<?xml version="1.0" encoding="UTF-8" standalone="no"?>
<!DOCTYPE svg PUBLIC "-//W3C//DTD SVG 1.1//EN" "http://www.w3.org/Graphics/SVG/1.1/DTD/svg11.dtd">
<svg width="100%" height="100%" viewBox="0 0 341 193" version="1.1" xmlns="http://www.w3.org/2000/svg" xmlns:xlink="http://www.w3.org/1999/xlink" xml:space="preserve" xmlns:serif="http://www.serif.com/" style="fill-rule:evenodd;clip-rule:evenodd;stroke-linecap:round;stroke-linejoin:round;stroke-miterlimit:1.5;">
    <g transform="matrix(1,0,0,1,-3388.88,-3448.42)">
        <g transform="matrix(1,0,0,1.20132,0,-694.251)">
            <rect x="3388.88" y="3448.42" width="341" height="160.256" style="fill:white;fill-opacity:0.45;"/>
        </g>
        <g transform="matrix(2.04062,0.00339622,-0.00339622,2.04062,-4824.73,-3489.43)">
            <g>
                <path d="M4096.69,3433.5L4096.69,3418.77C4096.69,3408.98 4104.64,3401.03 4114.43,3401.03C4124.22,3401.03 4132.16,3408.98 4132.16,3418.77L4132.16,3433.65C4137.46,3438.46 4140.78,3445.38 4140.78,3453.06C4140.78,3467.57 4128.94,3479.35 4114.35,3479.35C4099.76,3479.35 4087.91,3467.57 4087.91,3453.06C4087.91,3445.3 4091.3,3438.32 4096.69,3433.5Z" style="fill:white;stroke:black;stroke-width:1.74px;"/>
                <path d="M4110.14,3451.4C4108.71,3450.18 4107.8,3448.35 4107.8,3446.31C4107.8,3442.63 4110.76,3439.65 4114.4,3439.65C4118.05,3439.65 4121.01,3442.63 4121.01,3446.31C4121.01,3448.41 4120.05,3450.28 4118.54,3451.5L4121.01,3465.84L4107.8,3465.98L4110.14,3451.4Z" style="fill:rgb(233,81,96);stroke:black;stroke-width:1.12px;"/>
                <g transform="matrix(0.959114,0,0,1,168.361,-0.127691)">
                    <path d="M4096.51,3432.9C4107.97,3424.88 4119.78,3424.55 4132,3432.98" style="fill:white;stroke:black;stroke-width:1.88px;"/>
                </g>
            </g>
            <path d="M4105.78,3427.74C4105.74,3427.42 4105.72,3427.1 4105.72,3426.77L4105.72,3419.48C4105.72,3414.66 4109.63,3410.75 4114.45,3410.75C4119.27,3410.75 4123.18,3414.66 4123.18,3419.48L4123.18,3426.77C4123.18,3427.1 4123.16,3427.42 4123.13,3427.75C4120.48,3426.87 4117.54,3426.38 4114.44,3426.38C4111.35,3426.38 4108.41,3426.87 4105.78,3427.74Z" style="fill:white;stroke:black;stroke-width:1.74px;"/>
        </g>
    </g>
</svg>
