<?xml version="1.0" encoding="UTF-8" standalone="no"?>
<!DOCTYPE svg PUBLIC "-//W3C//DTD SVG 1.1//EN" "http://www.w3.org/Graphics/SVG/1.1/DTD/svg11.dtd">
<svg width="256px" height="506px" version="1.1" xmlns="http://www.w3.org/2000/svg" xmlns:xlink="http://www.w3.org/1999/xlink" xml:space="preserve" xmlns:serif="http://www.serif.com/" style="fill-rule:evenodd;clip-rule:evenodd;stroke-linecap:square;stroke-linejoin:round;stroke-miterlimit:1.5;">
    <path d="M77.387,283.57C33.66,262.265 3.125,214.136 3.125,158.235L3.125,140.165C3.125,64.531 59.023,3.125 127.874,3.125C196.725,3.125 252.623,64.531 252.623,140.165C252.623,140.165 251.833,189.344 240.436,208.58C217.148,247.882 205.699,272.612 181.886,285.177C184.625,306.522 189.259,336.094 196.668,348.14C208.993,368.178 252.779,358.923 252.623,381.286C252.198,442.062 202.985,504.042 129.109,502.256C14.536,499.488 10.401,409.099 3.33,380.062C-0.67,363.635 55.153,358.131 68.02,338.825C75.118,328.174 76.553,302.156 77.387,283.57Z" style="fill:rgb(31,31,32);stroke:white;stroke-width:6.25px;"/>
</svg>
