<?xml version="1.0" encoding="UTF-8" standalone="no"?>
<!DOCTYPE svg PUBLIC "-//W3C//DTD SVG 1.1//EN" "http://www.w3.org/Graphics/SVG/1.1/DTD/svg11.dtd">
<svg width="263px" height="500px" version="1.1" xmlns="http://www.w3.org/2000/svg" xmlns:xlink="http://www.w3.org/1999/xlink" xml:space="preserve" xmlns:serif="http://www.serif.com/" style="fill-rule:evenodd;clip-rule:evenodd;stroke-linejoin:round;stroke-miterlimit:2;">
    <path d="M85.693,342.266C78.446,331.685 84.653,319.318 72.107,337.89C59.24,356.937 3.417,362.368 7.417,378.574C14.488,407.222 18.624,496.4 133.196,499.132C207.072,500.893 256.285,439.745 256.71,379.782C256.866,357.719 213.081,366.85 200.756,347.081C188.431,327.311 176.48,354.137 175.25,355.728C156.204,380.381 152.327,394.036 134.719,393.037C117.186,392.043 114.817,384.785 85.693,342.266Z" style="fill:rgb(0,157,166);"/>
    <path d="M35.547,173.192C39.846,176.811 27.097,144.382 32.78,131.515C39.75,115.738 61.334,85.822 77.362,78.531C93.103,71.37 111.619,87.81 128.947,87.767C146.276,87.725 164.738,72.624 181.333,78.278C197.927,83.932 220.52,105.755 228.512,121.691C236.415,137.451 226.675,168.843 229.284,173.895C231.893,178.948 240.186,159.808 244.167,152.004C249.462,141.62 260.513,125.246 261.059,111.592C261.605,97.938 250.293,80.259 247.443,70.077C244.887,60.942 261.044,50.134 261.415,48.45C262.764,42.313 231.145,63.242 236.384,59.695C245.402,53.588 216.399,11.465 218.481,22.33C219.529,27.8 222.253,42.231 218.895,38.894C213.723,33.754 181.262,2.211 167.036,0.019C163.318,-0.554 169.172,12.325 165.932,10.528C155.731,4.87 113.389,2.256 101.131,8.25C97.355,10.097 101.021,-0.384 96.818,0.277C81.486,2.689 46.125,32.689 44.161,38.826C42.29,44.668 52.835,16.18 49.958,19.253C48.048,21.292 34.316,29.189 28.151,39.754C25.028,45.104 29.911,56.591 26.899,57.26C19.154,58.981 3.996,40.35 2.511,45.69C1.509,49.291 17.601,67.415 18.347,78.1C19.092,88.786 7.566,98.673 6.985,109.804C5.392,140.362 31.248,169.574 35.547,173.192Z" style="fill:rgb(82,40,50);"/>
    <path d="M54.67,168.57C58.285,175.267 68.784,181.381 79.902,181.155C88.836,180.974 109.499,175.988 109.766,170.502C110.032,165.017 90.683,148.525 81.499,148.243C69.092,147.862 55.906,161.602 54.67,168.57" style="fill:rgb(193,156,130);"/>
    <path d="M59.743,170.675C64.12,175.596 71.556,178.484 78.296,178.749C85.963,179.05 95.834,176.539 105.746,172.483C103.665,164.835 97.864,159.479 89.763,155.541C70.814,152.832 61.857,158.787 59.743,170.675Z" style="fill:rgb(255,253,250);"/>
    <path d="M82.219,154.895C89.974,154.895 95.759,157.672 95.759,164.518C95.759,171.365 89.463,176.923 81.708,176.923C73.953,176.923 67.657,171.365 67.657,164.518C67.657,157.672 74.465,154.895 82.219,154.895Z" style="fill:rgb(133,90,77);"/>
    <path d="M101.438,163.094C100.349,169.857 96.947,174.04 92.921,176.75C97.625,175.601 103.029,175.113 106.722,171.507L101.438,163.094Z" style="fill:rgb(217,182,148);"/>
    <path d="M82.219,154.68C87.208,154.68 91.259,158.45 91.259,163.094C91.259,167.737 87.733,171.239 82.744,171.239C77.756,171.239 73.18,167.737 73.18,163.094C73.18,158.45 77.231,154.68 82.219,154.68Z" style="fill:rgb(14,12,13);"/>
    <path d="M80.547,159.926C81.664,159.926 82.744,160.731 82.744,162.142C82.744,163.553 81.838,164.698 80.721,164.698C79.604,164.698 78.697,163.553 78.697,162.142C78.697,160.731 79.43,159.926 80.547,159.926Z" style="fill:rgb(250,244,244);"/>
    <path d="M59.743,168.723C62.709,159.884 70.325,153.295 84.002,153.98C95.875,155.931 103.254,163.156 106.722,171.507C105.555,170.041 102.384,165.472 98.287,162.079C94.371,158.835 89.577,156.753 86.289,155.767C75.099,152.411 61.952,161.287 59.743,170.704" style="fill:rgb(21,10,5);"/>
    <path d="M208.719,169.78C205.104,176.477 194.606,182.591 183.488,182.366C174.554,182.185 153.89,177.198 153.624,171.713C153.358,166.228 172.706,149.735 181.89,149.453C194.297,149.073 207.483,162.813 208.719,169.78" style="fill:rgb(193,156,130);"/>
    <path d="M203.647,171.886C199.27,176.807 191.833,179.695 185.094,179.959C177.427,180.261 167.555,177.749 157.643,173.693C159.725,166.046 165.526,160.69 173.627,156.751C192.575,154.042 201.532,159.997 203.647,171.886Z" style="fill:rgb(255,253,250);"/>
    <path d="M181.17,156.105C173.415,156.105 167.631,158.882 167.631,165.729C167.631,172.575 173.927,178.133 181.682,178.133C189.437,178.133 195.733,172.575 195.733,165.729C195.733,158.882 188.925,156.105 181.17,156.105Z" style="fill:rgb(133,90,77);"/>
    <path d="M161.952,164.304C163.041,171.068 166.443,175.251 170.469,177.96C165.765,176.811 160.361,176.323 156.668,172.718L161.952,164.304Z" style="fill:rgb(217,182,148);"/>
    <path d="M181.17,155.891C176.181,155.891 172.131,159.661 172.131,164.304C172.131,168.948 175.656,172.466 180.645,172.466C185.634,172.466 190.209,168.948 190.209,164.304C190.209,159.661 186.159,155.891 181.17,155.891Z" style="fill:rgb(14,12,13);"/>
    <path d="M180.645,159.191C179.528,159.191 178.622,160.337 178.622,161.748C178.622,163.159 180.053,164.178 181.17,164.178C182.287,164.178 182.669,163.159 182.669,161.748C182.669,160.337 181.762,159.191 180.645,159.191Z" style="fill:rgb(250,244,244);"/>
    <path d="M203.647,169.933C200.681,161.094 193.064,154.505 179.388,155.191C167.515,157.142 160.136,164.366 156.668,172.718C157.835,171.251 161.006,166.682 165.102,163.289C169.018,160.046 173.813,157.964 177.101,156.977C188.291,153.621 201.438,162.497 203.647,171.915" style="fill:rgb(21,10,5);"/>
    <path d="M131.961,210.069C140.035,210.069 147.149,206.248 147.149,212.015C147.149,217.782 140.594,222.464 132.52,222.464C124.446,222.464 117.891,217.782 117.891,212.015C117.891,206.248 123.887,210.069 131.961,210.069Z" style="fill:rgb(193,156,130);"/>
    <path d="M83.724,257.845C84.549,255.047 113.741,265.298 130.623,262.632C138.115,261.449 166.74,260.465 165.515,262.026C163.504,264.587 137.191,272.873 122.62,270.508C108.6,268.232 83.051,260.125 83.724,257.845Z" style="fill:rgb(31,31,32);"/>
    <path d="M149.221,136.329L183.521,130.584L206.496,139.903L205.593,146.472L175.165,138.098L149.221,136.329Z" style="fill:rgb(31,32,31);"/>
    <path d="M104.602,136.329L70.302,130.584L47.328,139.903L48.231,146.472L78.658,138.098L104.602,136.329Z" style="fill:rgb(31,32,31);"/>
    <path d="M250.703,182.243C249.991,185.233 245.216,186.395 243.87,188.916C242.548,191.393 239.99,197.748 242.628,197.372C245.296,196.992 257.112,193.116 259.878,186.634C263.009,179.298 262.964,157.995 261.414,153.353C260.07,149.329 252.788,155.847 250.577,158.784C248.366,161.722 248.125,167.066 248.146,170.976C248.167,174.841 251.416,179.253 250.703,182.243Z" style="fill:rgb(195,155,130);"/>
    <path d="M10.606,176.395C11.015,179.442 15.649,181.077 16.734,183.721C17.8,186.318 19.707,192.899 17.12,192.26C14.503,191.613 3.137,186.569 1.037,179.842C-1.341,172.228 0.845,151.037 2.854,146.575C4.596,142.706 11.185,149.923 13.09,153.068C14.995,156.213 14.697,161.555 14.283,165.443C13.874,169.286 10.198,173.349 10.606,176.395Z" style="fill:rgb(195,155,130);"/>
</svg>
