<?xml version="1.0" encoding="UTF-8" standalone="no"?>
<!DOCTYPE svg PUBLIC "-//W3C//DTD SVG 1.1//EN" "http://www.w3.org/Graphics/SVG/1.1/DTD/svg11.dtd">
<svg width="286px" height="506px" version="1.1" xmlns="http://www.w3.org/2000/svg" xmlns:xlink="http://www.w3.org/1999/xlink" xml:space="preserve" xmlns:serif="http://www.serif.com/" style="fill-rule:evenodd;clip-rule:evenodd;stroke-linecap:square;stroke-linejoin:round;stroke-miterlimit:1.5;">
    <g>
        <g>
            <path d="M248.701,163.01C253.297,149.821 258.984,135.173 271.485,137.74C280.607,139.614 283.156,157.758 281.564,171.961C279.963,186.243 264.077,215.653 248.851,218.207C237.696,220.078 242.719,180.175 248.701,163.01Z" style="fill:rgb(223,185,156);stroke:white;stroke-width:1.25px;"/>
            <path d="M36.431,163.01C31.835,149.821 26.148,135.173 13.647,137.74C4.525,139.614 1.976,157.758 3.568,171.961C5.17,186.243 21.055,215.653 36.281,218.207C47.436,220.078 42.413,180.175 36.431,163.01Z" style="fill:rgb(223,185,156);stroke:white;stroke-width:1.25px;"/>
            <path d="M94.771,267.414C89.66,256.51 94.805,322.443 82.26,341.015C69.393,360.062 13.569,365.493 17.569,381.699C24.64,410.347 28.776,499.525 143.349,502.257C217.225,504.018 266.437,442.87 266.862,382.907C267.019,360.844 223.233,369.975 210.908,350.206C198.583,330.436 193.939,262.831 192.912,264.29C172.822,292.837 112.783,305.847 94.771,267.414Z" style="fill:rgb(243,210,173);"/>
            <path d="M255.659,168.411C255.659,104.693 204.781,52.963 142.114,52.963C79.446,52.963 28.569,104.693 28.569,168.411L28.569,183.633C28.569,247.35 79.446,299.081 142.114,299.081C204.781,299.081 211.795,277.236 244.566,226.046C254.94,209.841 255.659,168.411 255.659,168.411Z" style="fill:rgb(227,191,158);"/>
            <path d="M45.7,176.317C49.999,179.936 37.249,147.507 42.933,134.64C49.902,118.863 71.487,88.947 87.515,81.656C103.255,74.495 121.772,90.935 139.1,90.892C156.428,90.85 174.891,75.749 191.485,81.403C208.079,87.057 230.672,108.88 238.664,124.816C246.568,140.576 236.827,171.968 239.436,177.02C242.045,182.073 250.339,162.933 254.319,155.129C259.615,144.745 270.666,128.371 271.212,114.717C271.758,101.063 260.445,83.384 257.596,73.202C255.04,64.067 271.197,53.259 271.567,51.575C272.917,45.438 241.298,66.367 246.537,62.82C255.555,56.713 226.552,14.59 228.633,25.455C229.681,30.925 232.406,45.356 229.047,42.019C223.875,36.879 191.415,5.336 177.188,3.144C173.471,2.571 179.324,15.45 176.084,13.653C165.884,7.995 123.541,5.381 111.283,11.375C107.508,13.222 111.174,2.741 106.971,3.402C91.638,5.814 56.278,35.814 54.313,41.951C52.443,47.793 62.987,19.305 60.11,22.378C58.201,24.417 44.469,32.314 38.303,42.879C35.181,48.229 40.063,59.716 37.052,60.385C29.306,62.106 14.149,43.475 12.663,48.815C11.661,52.416 27.753,70.54 28.499,81.225C29.245,91.911 17.718,101.798 17.138,112.929C15.544,143.487 41.4,172.699 45.7,176.317Z" style="fill:rgb(82,40,50);"/>
        </g>
        <path d="M54.873,40.824C59.853,32.808 92.425,5.69 106.971,3.402C111.174,2.741 107.508,13.222 111.283,11.375C123.541,5.381 165.884,7.995 176.084,13.653C179.324,15.45 173.471,2.571 177.188,3.144C191.415,5.336 223.875,36.879 229.047,42.019C232.406,45.356 229.681,30.925 228.633,25.455C226.552,14.59 255.555,56.713 246.537,62.82C241.298,66.367 272.917,45.438 271.567,51.575C271.197,53.259 255.04,64.067 257.596,73.202C260.445,83.384 271.758,101.063 271.212,114.717C270.904,122.4 267.271,130.945 263.209,138.797C265.593,137.543 268.321,137.091 271.485,137.74C280.607,139.614 283.156,157.758 281.564,171.961C279.963,186.243 264.077,215.653 248.851,218.207C248.65,218.241 248.453,218.261 248.261,218.268C247.191,221.211 245.966,223.858 244.566,226.046C225.008,256.596 214.624,276.695 196.106,287.937C198.843,309.009 203.481,338.293 210.908,350.206C223.233,369.975 267.019,360.844 266.862,382.907C266.437,442.87 217.225,504.018 143.349,502.257C28.776,499.525 24.64,410.347 17.569,381.699C13.569,365.493 69.393,360.062 82.26,341.015C89.289,330.609 90.765,305.335 91.602,287.039C63.963,273.042 42.713,247.926 33.53,217.464C19.197,212.172 5.073,185.385 3.568,171.961C1.976,157.758 4.525,139.614 13.647,137.74C16.616,137.131 19.201,137.492 21.479,138.575C18.521,130.533 16.676,121.787 17.138,112.929C17.718,101.798 29.245,91.911 28.499,81.225C27.753,70.54 11.661,52.416 12.663,48.815C14.149,43.475 29.306,62.106 37.052,60.385C40.063,59.716 35.181,48.229 38.303,42.879C44.469,32.314 58.201,24.417 60.11,22.378C62.255,20.087 56.942,35.333 54.873,40.824C54.603,41.258 54.414,41.636 54.313,41.951C53.837,43.438 54.165,42.7 54.873,40.824Z" style="fill:none;stroke:white;stroke-width:6.25px;"/>
    </g>
</svg>
