<?xml version="1.0" encoding="UTF-8" standalone="no"?>
<!DOCTYPE svg PUBLIC "-//W3C//DTD SVG 1.1//EN" "http://www.w3.org/Graphics/SVG/1.1/DTD/svg11.dtd">
<svg width="286px" height="504px" version="1.1" xmlns="http://www.w3.org/2000/svg" xmlns:xlink="http://www.w3.org/1999/xlink" xml:space="preserve" xmlns:serif="http://www.serif.com/" style="fill-rule:evenodd;clip-rule:evenodd;stroke-linecap:square;stroke-linejoin:round;stroke-miterlimit:1.5;">
    <path d="M18.051,134.407L18.051,133.39C18.051,61.495 73.949,3.125 142.8,3.125C211.651,3.125 267.549,61.495 267.549,133.39C267.549,133.39 267.543,133.727 267.526,134.357C268.765,134.24 270.082,134.31 271.485,134.593C280.607,136.436 283.156,154.281 281.564,168.25C279.963,182.297 264.077,211.221 248.851,213.733C247.849,213.899 246.977,213.732 246.225,213.28C228.606,242.169 217.263,261.013 196.725,271.276C199.454,293.775 204.107,325.392 211.594,338.193C223.919,359.264 267.705,349.532 267.548,373.047C267.124,436.957 217.911,502.132 144.035,500.254C29.462,497.343 25.326,402.294 18.255,371.76C14.255,354.487 70.079,348.699 82.946,328.397C90.115,317.086 91.507,289.294 92.337,269.716C67.176,258.068 46.383,237.982 33.254,212.9C19.015,207.457 5.064,181.367 3.568,168.25C1.976,154.281 4.525,136.436 13.647,134.593C15.219,134.276 16.682,134.226 18.051,134.407Z" style="fill:rgb(111,111,111);stroke:white;stroke-width:6.25px;"/>
</svg>
