<?xml version="1.0" encoding="UTF-8" standalone="no"?>
<!DOCTYPE svg PUBLIC "-//W3C//DTD SVG 1.1//EN" "http://www.w3.org/Graphics/SVG/1.1/DTD/svg11.dtd">
<svg width="286px" height="506px" version="1.1" xmlns="http://www.w3.org/2000/svg" xmlns:xlink="http://www.w3.org/1999/xlink" xml:space="preserve" xmlns:serif="http://www.serif.com/" style="fill-rule:evenodd;clip-rule:evenodd;stroke-linecap:square;stroke-linejoin:round;stroke-miterlimit:1.5;">
    <path d="M54.873,40.824C59.853,32.808 92.425,5.69 106.971,3.402C111.174,2.741 107.508,13.222 111.283,11.375C123.541,5.381 165.884,7.995 176.084,13.653C179.324,15.45 173.471,2.571 177.188,3.144C191.415,5.336 223.875,36.879 229.047,42.019C232.406,45.356 229.681,30.925 228.633,25.455C226.552,14.59 255.555,56.713 246.537,62.82C241.298,66.367 272.917,45.438 271.567,51.575C271.197,53.259 255.04,64.067 257.596,73.202C260.445,83.384 271.758,101.063 271.212,114.717C270.904,122.4 267.271,130.945 263.209,138.797C265.593,137.543 268.321,137.091 271.485,137.74C280.607,139.614 283.156,157.758 281.564,171.961C279.963,186.243 264.077,215.653 248.851,218.207C248.65,218.241 248.453,218.261 248.261,218.268C247.191,221.211 245.966,223.858 244.566,226.046C225.008,256.596 214.624,276.695 196.106,287.937C198.843,309.009 203.481,338.293 210.908,350.206C223.233,369.975 267.019,360.844 266.862,382.907C266.437,442.87 217.225,504.018 143.349,502.257C28.776,499.525 24.64,410.347 17.569,381.699C13.569,365.493 69.393,360.062 82.26,341.015C89.289,330.609 90.765,305.335 91.602,287.039C63.963,273.042 42.713,247.926 33.53,217.464C19.197,212.172 5.073,185.385 3.568,171.961C1.976,157.758 4.525,139.614 13.647,137.74C16.616,137.131 19.201,137.492 21.479,138.575C18.521,130.533 16.676,121.787 17.138,112.929C17.718,101.798 29.245,91.911 28.499,81.225C27.753,70.54 11.661,52.416 12.663,48.815C14.149,43.475 29.306,62.106 37.052,60.385C40.063,59.716 35.181,48.229 38.303,42.879C44.469,32.314 58.201,24.417 60.11,22.378C62.255,20.087 56.942,35.333 54.873,40.824C54.603,41.258 54.414,41.636 54.313,41.951C53.837,43.438 54.165,42.7 54.873,40.824Z" style="fill:rgb(151,131,110);stroke:white;stroke-width:6.25px;"/>
</svg>
