<?xml version="1.0" encoding="UTF-8" standalone="no"?><!DOCTYPE svg PUBLIC "-//W3C//DTD SVG 1.1//EN" "http://www.w3.org/Graphics/SVG/1.1/DTD/svg11.dtd"><svg width="319px" height="494px" version="1.1" xmlns="http://www.w3.org/2000/svg" xmlns:xlink="http://www.w3.org/1999/xlink" xml:space="preserve" xmlns:serif="http://www.serif.com/" style="fill-rule:evenodd;clip-rule:evenodd;stroke-linecap:square;stroke-linejoin:round;stroke-miterlimit:1.5;"><path d="M124.937,254.638C71.803,239.407 32.826,189.923 32.826,131.299C32.826,60.558 89.582,3.125 159.489,3.125C229.396,3.125 286.151,60.558 286.151,131.299C286.151,188.119 249.537,236.353 198.901,253.137L198.901,291.875L205.511,291.875C266.197,291.875 315.467,341.144 315.467,401.83L315.467,471.854C315.467,481.997 307.232,490.231 297.09,490.231L25.843,490.231C13.304,490.231 3.125,480.051 3.125,467.513L3.125,393.802C3.125,337.547 48.797,291.875 105.052,291.875L124.937,291.875L124.937,254.638Z" style="fill:rgb(31,31,32);stroke:white;stroke-width:6.25px;"/></svg>