<?xml version="1.0" encoding="UTF-8" standalone="no"?>
<!DOCTYPE svg PUBLIC "-//W3C//DTD SVG 1.1//EN" "http://www.w3.org/Graphics/SVG/1.1/DTD/svg11.dtd">
<svg width="100%" height="100%" viewBox="0 0 292 512" version="1.1" xmlns="http://www.w3.org/2000/svg" xmlns:xlink="http://www.w3.org/1999/xlink" xml:space="preserve" xmlns:serif="http://www.serif.com/" style="fill-rule:evenodd;clip-rule:evenodd;stroke-linecap:square;stroke-linejoin:round;stroke-miterlimit:1.5;">
    <path d="M57.998,43.949C62.978,35.933 95.55,8.815 110.096,6.527C114.299,5.866 110.633,16.347 114.408,14.5C126.666,8.506 169.009,11.12 179.209,16.778C182.449,18.575 176.596,5.696 180.313,6.269C194.54,8.461 227,40.004 232.172,45.144C235.531,48.481 232.806,34.05 231.758,28.58C229.677,17.715 258.68,59.838 249.662,65.945C244.423,69.492 276.042,48.563 274.692,54.7C274.322,56.384 258.165,67.192 260.721,76.327C263.57,86.509 274.883,104.188 274.337,117.842C274.029,125.525 270.396,134.07 266.334,141.922C268.718,140.668 271.446,140.216 274.61,140.865C283.732,142.739 286.281,160.883 284.689,175.086C283.088,189.368 267.202,218.778 251.976,221.332C251.775,221.366 251.578,221.386 251.386,221.393C250.316,224.336 249.091,226.983 247.691,229.171C228.133,259.721 217.749,279.82 199.231,291.062C201.968,312.134 206.606,341.418 214.033,353.331C226.358,373.1 270.144,363.969 269.987,386.032C269.562,445.995 220.35,507.143 146.474,505.382C31.901,502.65 27.765,413.472 20.694,384.824C16.694,368.618 72.518,363.187 85.385,344.14C92.414,333.734 93.89,308.46 94.727,290.164C67.088,276.167 45.838,251.051 36.655,220.589C22.322,215.297 8.198,188.51 6.693,175.086C5.101,160.883 7.65,142.739 16.772,140.865C19.741,140.256 22.326,140.617 24.604,141.7C21.646,133.658 19.801,124.912 20.263,116.054C20.843,104.923 32.37,95.036 31.624,84.35C30.878,73.665 14.786,55.541 15.788,51.94C17.274,46.6 32.431,65.231 40.177,63.51C43.188,62.841 38.306,51.354 41.428,46.004C47.594,35.439 61.326,27.542 63.235,25.503C65.38,23.212 60.067,38.458 57.998,43.949C57.728,44.383 57.539,44.761 57.438,45.076C56.962,46.563 57.29,45.825 57.998,43.949Z" style="fill:none;stroke:white;stroke-width:12.5px;"/>
    <path d="M251.826,166.135C256.422,152.946 262.109,138.298 274.61,140.865C283.732,142.739 286.281,160.883 284.689,175.086C283.088,189.368 267.202,218.778 251.976,221.332C240.821,223.203 245.844,183.3 251.826,166.135Z" style="fill:rgb(223,185,156);"/>
    <path d="M39.556,166.135C34.96,152.946 29.273,138.298 16.772,140.865C7.65,142.739 5.101,160.883 6.693,175.086C8.295,189.368 24.18,218.778 39.406,221.332C50.561,223.203 45.538,183.3 39.556,166.135Z" style="fill:rgb(223,185,156);"/>
    <path d="M97.896,270.539C92.785,259.635 97.93,325.568 85.385,344.14C72.518,363.187 16.694,368.618 20.694,384.824C27.765,413.472 31.901,502.65 146.474,505.382C220.35,507.143 269.562,445.995 269.987,386.032C270.144,363.969 226.358,373.1 214.033,353.331C201.708,333.561 197.064,265.956 196.037,267.415C175.947,295.962 115.908,308.972 97.896,270.539Z" style="fill:rgb(243,210,173);"/>
    <path d="M98.971,348.516C91.723,337.935 97.93,325.568 85.385,344.14C72.518,363.187 16.694,368.618 20.694,384.824C27.765,413.472 31.901,502.65 146.474,505.382C220.35,507.143 269.562,445.995 269.987,386.032C270.144,363.969 226.358,373.1 214.033,353.331C201.708,333.561 189.757,360.387 188.528,361.978C169.481,386.631 165.604,400.286 147.997,399.287C130.464,398.293 128.095,391.035 98.971,348.516Z" style="fill:rgb(0,157,166);"/>
    <path d="M258.784,171.536C258.784,107.818 207.906,56.088 145.239,56.088C82.571,56.088 31.694,107.818 31.694,171.536L31.694,186.758C31.694,250.475 82.571,315.532 145.239,315.532C207.906,315.532 214.92,280.361 247.691,229.171C258.065,212.966 258.784,171.536 258.784,171.536Z" style="fill:rgb(227,191,158);"/>
    <path d="M48.825,179.442C53.124,183.061 40.374,150.632 46.058,137.765C53.027,121.988 74.612,92.072 90.64,84.781C106.38,77.62 124.897,94.06 142.225,94.017C159.553,93.975 178.016,78.874 194.61,84.528C211.204,90.182 233.797,112.005 241.789,127.941C249.693,143.701 239.952,175.093 242.561,180.145C245.17,185.198 253.464,166.058 257.444,158.254C262.74,147.87 273.791,131.496 274.337,117.842C274.883,104.188 263.57,86.509 260.721,76.327C258.165,67.192 274.322,56.384 274.692,54.7C276.042,48.563 244.423,69.492 249.662,65.945C258.68,59.838 229.677,17.715 231.758,28.58C232.806,34.05 235.531,48.481 232.172,45.144C227,40.004 194.54,8.461 180.313,6.269C176.596,5.696 182.449,18.575 179.209,16.778C169.009,11.12 126.666,8.506 114.408,14.5C110.633,16.347 114.299,5.866 110.096,6.527C94.763,8.939 59.403,38.939 57.438,45.076C55.568,50.918 66.112,22.43 63.235,25.503C61.326,27.542 47.594,35.439 41.428,46.004C38.306,51.354 43.188,62.841 40.177,63.51C32.431,65.231 17.274,46.6 15.788,51.94C14.786,55.541 30.878,73.665 31.624,84.35C32.37,95.036 20.843,104.923 20.263,116.054C18.669,146.612 44.525,175.824 48.825,179.442Z" style="fill:rgb(82,40,50);"/>
    <path d="M67.948,174.82C71.563,181.517 82.062,187.631 93.179,187.405C102.113,187.224 122.777,182.238 123.043,176.752C123.309,171.267 103.961,154.775 94.777,154.493C82.37,154.112 69.184,167.852 67.948,174.82" style="fill:rgb(193,156,130);"/>
    <path d="M73.02,176.925C77.397,181.846 84.834,184.734 91.573,184.999C99.24,185.3 109.112,182.789 119.024,178.733C116.942,171.085 111.141,165.729 103.041,161.791C84.092,159.082 75.135,165.037 73.02,176.925Z" style="fill:rgb(255,0,11);"/>
    <path d="M95.497,161.145C103.252,161.145 109.036,163.922 109.036,170.768C109.036,177.615 102.74,183.173 94.985,183.173C87.23,183.173 80.934,177.615 80.934,170.768C80.934,163.922 87.742,161.145 95.497,161.145Z" style="fill:rgb(133,90,77);"/>
    <path d="M114.715,169.344C113.626,176.107 110.224,180.29 106.198,183C110.902,181.851 116.306,181.363 119.999,177.757L114.715,169.344Z" style="fill:rgb(217,182,148);"/>
    <path d="M95.497,160.93C100.486,160.93 104.536,164.7 104.536,169.344C104.536,173.987 101.011,177.489 96.022,177.489C91.033,177.489 86.458,173.987 86.458,169.344C86.458,164.7 90.508,160.93 95.497,160.93Z" style="fill:rgb(14,12,13);"/>
    <path d="M93.825,166.176C94.941,166.176 96.022,166.981 96.022,168.392C96.022,169.803 95.115,170.948 93.998,170.948C92.882,170.948 91.975,169.803 91.975,168.392C91.975,166.981 92.708,166.176 93.825,166.176Z" style="fill:rgb(250,244,244);"/>
    <path d="M73.02,174.973C75.986,166.134 83.603,159.545 97.279,160.23C109.153,162.181 116.531,169.406 119.999,177.757C118.832,176.291 115.661,171.722 111.565,168.329C107.649,165.085 102.854,163.003 99.566,162.017C88.376,158.661 75.229,167.537 73.02,176.954" style="fill:rgb(21,10,5);"/>
    <path d="M221.997,176.03C218.382,182.727 207.883,188.841 196.766,188.616C187.831,188.435 167.168,183.448 166.901,177.963C166.635,172.478 185.984,155.985 195.168,155.703C207.575,155.323 220.761,169.063 221.997,176.03" style="fill:rgb(193,156,130);"/>
    <path d="M216.925,178.136C212.547,183.057 205.111,185.945 198.371,186.209C190.704,186.511 180.833,183.999 170.921,179.943C173.003,172.296 178.803,166.94 186.904,163.001C205.853,160.292 214.81,166.247 216.925,178.136Z" style="fill:rgb(255,253,250);"/>
    <path d="M194.448,162.355C186.693,162.355 180.908,165.132 180.908,171.979C180.908,178.825 187.204,184.383 194.959,184.383C202.714,184.383 209.01,178.825 209.01,171.979C209.01,165.132 202.203,162.355 194.448,162.355Z" style="fill:rgb(133,90,77);"/>
    <path d="M175.229,170.554C176.319,177.318 179.72,181.501 183.746,184.21C179.042,183.061 173.638,182.573 169.945,178.968L175.229,170.554Z" style="fill:rgb(217,182,148);"/>
    <path d="M194.448,162.141C189.459,162.141 185.408,165.911 185.408,170.554C185.408,175.198 188.934,178.716 193.923,178.716C198.912,178.716 203.487,175.198 203.487,170.554C203.487,165.911 199.437,162.141 194.448,162.141Z" style="fill:rgb(14,12,13);"/>
    <path d="M193.923,165.441C192.806,165.441 191.899,166.587 191.899,167.998C191.899,169.409 193.331,170.428 194.448,170.428C195.564,170.428 195.946,169.409 195.946,167.998C195.946,166.587 195.039,165.441 193.923,165.441Z" style="fill:rgb(250,244,244);"/>
    <path d="M216.925,176.183C213.958,167.344 206.342,160.755 192.665,161.441C180.792,163.392 173.413,170.616 169.945,178.968C171.112,177.501 174.284,172.932 178.38,169.539C182.296,166.296 187.09,164.214 190.378,163.227C201.568,159.871 214.715,168.747 216.925,178.165" style="fill:rgb(21,10,5);"/>
    <path d="M145.239,216.319C153.313,216.319 160.427,212.498 160.427,218.265C160.427,224.032 153.872,228.714 145.798,228.714C137.724,228.714 131.168,224.032 131.168,218.265C131.168,212.498 137.165,216.319 145.239,216.319Z" style="fill:rgb(193,156,130);"/>
    <path d="M97.001,264.095C97.827,261.297 127.019,271.548 143.9,268.882C151.392,267.699 180.018,266.715 178.792,268.276C176.782,270.837 150.468,279.123 135.897,276.758C121.877,274.482 96.329,266.375 97.001,264.095Z" style="fill:rgb(31,31,32);"/>
    <path d="M162.498,142.579L196.799,136.834L219.773,146.153L218.87,152.722L188.443,144.348L162.498,142.579Z" style="fill:rgb(31,32,31);"/>
    <path d="M117.88,142.579L83.579,136.834L60.605,146.153L61.508,152.722L91.936,144.348L117.88,142.579Z" style="fill:rgb(31,32,31);"/>
    <path d="M263.981,188.493C263.268,191.483 258.493,192.645 257.147,195.166C255.825,197.643 253.267,203.998 255.906,203.622C258.574,203.242 270.389,199.366 273.155,192.884C276.286,185.548 276.242,164.245 274.691,159.603C273.347,155.579 266.066,162.097 263.855,165.034C261.643,167.972 261.403,173.316 261.424,177.226C261.444,181.091 264.693,185.503 263.981,188.493Z" style="fill:rgb(195,155,130);"/>
    <path d="M23.884,182.645C24.292,185.692 28.926,187.327 30.012,189.971C31.078,192.568 32.984,199.149 30.397,198.51C27.781,197.863 16.415,192.819 14.314,186.092C11.937,178.478 14.123,157.287 16.131,152.825C17.873,148.956 24.463,156.173 26.367,159.318C28.272,162.463 27.974,167.805 27.56,171.693C27.151,175.536 23.475,179.599 23.884,182.645Z" style="fill:rgb(195,155,130);"/>
</svg>
