<?xml version="1.0" encoding="UTF-8" standalone="no"?>
<!DOCTYPE svg PUBLIC "-//W3C//DTD SVG 1.1//EN" "http://www.w3.org/Graphics/SVG/1.1/DTD/svg11.dtd">
<svg width="100%" height="100%" viewBox="0 0 464 391" version="1.1" xmlns="http://www.w3.org/2000/svg" xmlns:xlink="http://www.w3.org/1999/xlink" xml:space="preserve" xmlns:serif="http://www.serif.com/" style="fill-rule:evenodd;clip-rule:evenodd;stroke-linecap:round;stroke-linejoin:round;stroke-miterlimit:1.5;">
    <g>
        <rect x="0" y="0" width="463.34" height="390.705" style="fill:rgb(255,80,32);"/>
        <path d="M51.007,234.004C87.179,169.255 155.127,125.606 232.915,125.606C310.703,125.606 378.651,169.255 414.822,234.004L382.238,261.873C354.284,206.345 297.881,168.363 232.915,168.363C167.949,168.363 111.546,206.345 83.591,261.873L51.007,234.004Z" style="fill:none;stroke:white;stroke-width:3.75px;"/>
        <path d="M274.397,129.833C306.301,136.425 335.596,150.476 360.489,170.143L333.334,202.631C313.267,187.219 289.744,176.307 264.181,171.353L274.397,129.833Z" style="fill:rgb(255,80,32);stroke:white;stroke-width:3.75px;"/>
        <path d="M187.69,130.643C202.254,127.345 217.388,125.606 232.915,125.606C246.917,125.606 260.6,127.021 273.84,129.719L264.616,171.438C254.349,169.419 243.751,168.363 232.915,168.363C220.929,168.363 209.234,169.656 197.955,172.114L187.69,130.643Z" style="fill:rgb(213,225,0);stroke:white;stroke-width:3.75px;"/>
        <path d="M224.406,114.386C224.631,108.657 229.181,104.077 234.752,104.077C240.323,104.077 244.873,108.657 245.098,114.386L245.107,114.386L272.311,267.516C273.078,270.126 273.572,272.851 273.757,275.658L273.84,276.126L273.785,276.126C273.822,276.805 273.84,277.489 273.84,278.178C273.84,299.368 256.325,316.572 234.752,316.572C213.179,316.572 195.664,299.368 195.664,278.178C195.664,277.489 195.682,276.805 195.719,276.126L195.664,276.126L195.747,275.658C195.932,272.851 196.426,270.126 197.193,267.516L224.406,114.386Z" style="fill:rgb(38,35,62);stroke:white;stroke-width:3.75px;"/>
        <ellipse cx="234.752" cy="277.553" rx="18.716" ry="19.076" style="fill:none;stroke:white;stroke-width:3.75px;"/>
        <path d="M421.311,228.264L372.945,268.487L382.216,279.635L430.582,239.412L421.311,228.264Z" style="fill:none;stroke:white;stroke-width:3.75px;"/>
        <path d="M15.688,31.817C15.688,32.452 15.92,32.953 16.384,33.319C16.848,33.685 17.397,33.868 18.032,33.868C18.805,33.868 19.554,33.689 20.278,33.331C21.499,32.737 22.109,31.764 22.109,30.414L22.109,28.643C21.841,28.814 21.495,28.957 21.072,29.071C20.649,29.185 20.233,29.266 19.827,29.315L18.496,29.486C17.698,29.592 17.1,29.758 16.702,29.986C16.026,30.369 15.688,30.979 15.688,31.817ZM21.011,27.374C21.515,27.309 21.853,27.097 22.024,26.739C22.122,26.544 22.17,26.263 22.17,25.897C22.17,25.148 21.904,24.605 21.371,24.267C20.838,23.93 20.075,23.761 19.082,23.761C17.935,23.761 17.121,24.07 16.641,24.688C16.372,25.03 16.197,25.539 16.116,26.214L14.065,26.214C14.106,24.603 14.628,23.482 15.633,22.851C16.639,22.221 17.804,21.905 19.131,21.905C20.669,21.905 21.918,22.198 22.878,22.784C23.83,23.37 24.307,24.282 24.307,25.518L24.307,33.05C24.307,33.278 24.353,33.461 24.447,33.6C24.541,33.738 24.738,33.807 25.039,33.807C25.137,33.807 25.247,33.801 25.369,33.789C25.491,33.777 25.621,33.758 25.759,33.734L25.759,35.357C25.417,35.455 25.157,35.516 24.978,35.54C24.799,35.565 24.555,35.577 24.246,35.577C23.489,35.577 22.939,35.309 22.598,34.771C22.419,34.487 22.292,34.084 22.219,33.563C21.772,34.149 21.129,34.657 20.29,35.089C19.452,35.52 18.529,35.736 17.519,35.736C16.307,35.736 15.316,35.368 14.547,34.631C13.778,33.895 13.393,32.973 13.393,31.866C13.393,30.654 13.772,29.714 14.529,29.046C15.286,28.379 16.278,27.968 17.507,27.813L21.011,27.374Z" style="fill:white;fill-rule:nonzero;"/>
        <path d="M27.908,22.284L30.142,22.284L30.142,35.296L27.908,35.296L27.908,22.284ZM27.908,17.364L30.142,17.364L30.142,19.854L27.908,19.854L27.908,17.364Z" style="fill:white;fill-rule:nonzero;"/>
        <path d="M33.523,22.223L35.61,22.223L35.61,24.481C35.781,24.041 36.2,23.506 36.868,22.876C37.535,22.245 38.304,21.93 39.175,21.93C39.215,21.93 39.285,21.934 39.382,21.942C39.48,21.95 39.647,21.966 39.883,21.991L39.883,24.31C39.753,24.286 39.633,24.269 39.523,24.261C39.413,24.253 39.293,24.249 39.163,24.249C38.056,24.249 37.205,24.605 36.611,25.317C36.017,26.029 35.72,26.849 35.72,27.777L35.72,35.296L33.523,35.296L33.523,22.223Z" style="fill:white;fill-rule:nonzero;"/>
        <path d="M53.774,21.844C55.247,21.844 56.446,22.202 57.369,22.918C58.293,23.635 58.848,24.867 59.036,26.617L56.899,26.617C56.769,25.811 56.472,25.142 56.008,24.609C55.544,24.076 54.8,23.81 53.774,23.81C52.375,23.81 51.374,24.493 50.771,25.86C50.381,26.747 50.185,27.842 50.185,29.144C50.185,30.454 50.462,31.557 51.016,32.452C51.569,33.347 52.44,33.795 53.628,33.795C54.539,33.795 55.262,33.516 55.795,32.959C56.328,32.401 56.696,31.638 56.899,30.67L59.036,30.67C58.791,32.403 58.181,33.671 57.205,34.472C56.228,35.274 54.979,35.675 53.457,35.675C51.748,35.675 50.385,35.05 49.368,33.801C48.35,32.552 47.842,30.991 47.842,29.12C47.842,26.825 48.399,25.038 49.514,23.761C50.629,22.483 52.049,21.844 53.774,21.844Z" style="fill:white;fill-rule:nonzero;"/>
        <path d="M66.421,33.88C67.878,33.88 68.876,33.329 69.418,32.226C69.959,31.124 70.229,29.897 70.229,28.546C70.229,27.325 70.034,26.332 69.643,25.567C69.025,24.363 67.959,23.761 66.445,23.761C65.102,23.761 64.126,24.273 63.516,25.299C62.905,26.324 62.6,27.561 62.6,29.01C62.6,30.401 62.905,31.561 63.516,32.489C64.126,33.416 65.094,33.88 66.421,33.88ZM66.506,21.844C68.191,21.844 69.615,22.406 70.779,23.529C71.942,24.652 72.524,26.304 72.524,28.485C72.524,30.593 72.012,32.334 70.986,33.709C69.961,35.085 68.37,35.772 66.213,35.772C64.415,35.772 62.987,35.164 61.929,33.947C60.871,32.731 60.342,31.097 60.342,29.046C60.342,26.849 60.899,25.099 62.014,23.797C63.129,22.495 64.626,21.844 66.506,21.844Z" style="fill:white;fill-rule:nonzero;"/>
        <path d="M75.137,22.223L77.224,22.223L77.224,24.078C77.843,23.313 78.498,22.764 79.189,22.43C79.881,22.096 80.65,21.93 81.497,21.93C83.352,21.93 84.605,22.577 85.256,23.871C85.614,24.579 85.793,25.592 85.793,26.91L85.793,35.296L83.56,35.296L83.56,27.057C83.56,26.259 83.442,25.616 83.205,25.128C82.815,24.314 82.107,23.907 81.081,23.907C80.561,23.907 80.133,23.96 79.8,24.066C79.198,24.245 78.669,24.603 78.213,25.14C77.847,25.571 77.609,26.017 77.499,26.477C77.389,26.937 77.334,27.594 77.334,28.448L77.334,35.296L75.137,35.296L75.137,22.223Z" style="fill:white;fill-rule:nonzero;"/>
        <path d="M90.432,28.912C90.432,30.312 90.729,31.484 91.323,32.428C91.917,33.372 92.869,33.844 94.18,33.844C95.197,33.844 96.033,33.406 96.688,32.531C97.343,31.657 97.671,30.401 97.671,28.766C97.671,27.114 97.333,25.891 96.658,25.097C95.982,24.304 95.148,23.907 94.155,23.907C93.048,23.907 92.151,24.33 91.464,25.177C90.776,26.023 90.432,27.268 90.432,28.912ZM93.74,21.991C94.741,21.991 95.579,22.202 96.255,22.625C96.645,22.87 97.089,23.297 97.585,23.907L97.585,17.303L99.697,17.303L99.697,35.296L97.72,35.296L97.72,33.477C97.207,34.283 96.601,34.865 95.901,35.223C95.201,35.581 94.399,35.76 93.496,35.76C92.039,35.76 90.778,35.148 89.712,33.923C88.646,32.698 88.113,31.069 88.113,29.034C88.113,27.13 88.599,25.48 89.571,24.084C90.544,22.689 91.934,21.991 93.74,21.991Z" style="fill:white;fill-rule:nonzero;"/>
        <path d="M102.944,22.284L105.178,22.284L105.178,35.296L102.944,35.296L102.944,22.284ZM102.944,17.364L105.178,17.364L105.178,19.854L102.944,19.854L102.944,17.364Z" style="fill:white;fill-rule:nonzero;"/>
        <path d="M108.938,18.573L111.16,18.573L111.16,22.223L113.247,22.223L113.247,24.017L111.16,24.017L111.16,32.55C111.16,33.005 111.314,33.311 111.623,33.465C111.794,33.555 112.079,33.6 112.478,33.6C112.584,33.6 112.698,33.598 112.82,33.593C112.942,33.589 113.084,33.579 113.247,33.563L113.247,35.296C112.995,35.37 112.732,35.422 112.46,35.455C112.187,35.488 111.892,35.504 111.575,35.504C110.549,35.504 109.853,35.241 109.487,34.716C109.121,34.192 108.938,33.51 108.938,32.672L108.938,24.017L107.168,24.017L107.168,22.223L108.938,22.223L108.938,18.573Z" style="fill:white;fill-rule:nonzero;"/>
        <path d="M115.444,22.284L117.678,22.284L117.678,35.296L115.444,35.296L115.444,22.284ZM115.444,17.364L117.678,17.364L117.678,19.854L115.444,19.854L115.444,17.364Z" style="fill:white;fill-rule:nonzero;"/>
        <path d="M126.186,33.88C127.643,33.88 128.642,33.329 129.183,32.226C129.724,31.124 129.995,29.897 129.995,28.546C129.995,27.325 129.8,26.332 129.409,25.567C128.791,24.363 127.725,23.761 126.211,23.761C124.868,23.761 123.892,24.273 123.281,25.299C122.671,26.324 122.366,27.561 122.366,29.01C122.366,30.401 122.671,31.561 123.281,32.489C123.892,33.416 124.86,33.88 126.186,33.88ZM126.272,21.844C127.956,21.844 129.381,22.406 130.544,23.529C131.708,24.652 132.29,26.304 132.29,28.485C132.29,30.593 131.777,32.334 130.752,33.709C129.726,35.085 128.136,35.772 125.979,35.772C124.18,35.772 122.752,35.164 121.694,33.947C120.636,32.731 120.107,31.097 120.107,29.046C120.107,26.849 120.665,25.099 121.78,23.797C122.895,22.495 124.392,21.844 126.272,21.844Z" style="fill:white;fill-rule:nonzero;"/>
        <path d="M134.902,22.223L136.99,22.223L136.99,24.078C137.608,23.313 138.263,22.764 138.955,22.43C139.647,22.096 140.416,21.93 141.262,21.93C143.118,21.93 144.371,22.577 145.022,23.871C145.38,24.579 145.559,25.592 145.559,26.91L145.559,35.296L143.325,35.296L143.325,27.057C143.325,26.259 143.207,25.616 142.971,25.128C142.58,24.314 141.872,23.907 140.847,23.907C140.326,23.907 139.899,23.96 139.565,24.066C138.963,24.245 138.434,24.603 137.978,25.14C137.612,25.571 137.374,26.017 137.264,26.477C137.154,26.937 137.1,27.594 137.1,28.448L137.1,35.296L134.902,35.296L134.902,22.223Z" style="fill:white;fill-rule:nonzero;"/>
        <path d="M148.806,22.284L151.04,22.284L151.04,35.296L148.806,35.296L148.806,22.284ZM148.806,17.364L151.04,17.364L151.04,19.854L148.806,19.854L148.806,17.364Z" style="fill:white;fill-rule:nonzero;"/>
        <path d="M154.36,22.223L156.448,22.223L156.448,24.078C157.066,23.313 157.721,22.764 158.413,22.43C159.105,22.096 159.874,21.93 160.72,21.93C162.576,21.93 163.829,22.577 164.48,23.871C164.838,24.579 165.017,25.592 165.017,26.91L165.017,35.296L162.783,35.296L162.783,27.057C162.783,26.259 162.665,25.616 162.429,25.128C162.039,24.314 161.33,23.907 160.305,23.907C159.784,23.907 159.357,23.96 159.023,24.066C158.421,24.245 157.892,24.603 157.436,25.14C157.07,25.571 156.832,26.017 156.722,26.477C156.612,26.937 156.558,27.594 156.558,28.448L156.558,35.296L154.36,35.296L154.36,22.223Z" style="fill:white;fill-rule:nonzero;"/>
        <path d="M172.878,21.991C173.904,21.991 174.799,22.243 175.564,22.748C175.979,23.032 176.402,23.447 176.833,23.993L176.833,22.345L178.86,22.345L178.86,34.234C178.86,35.894 178.616,37.205 178.127,38.165C177.216,39.939 175.495,40.826 172.964,40.826C171.556,40.826 170.372,40.511 169.412,39.88C168.451,39.249 167.914,38.263 167.8,36.92L170.034,36.92C170.14,37.506 170.351,37.957 170.669,38.275C171.165,38.763 171.947,39.007 173.013,39.007C174.697,39.007 175.8,38.413 176.321,37.225C176.63,36.525 176.772,35.276 176.748,33.477C176.309,34.145 175.78,34.641 175.161,34.967C174.543,35.292 173.725,35.455 172.707,35.455C171.291,35.455 170.052,34.952 168.99,33.947C167.928,32.942 167.397,31.28 167.397,28.961C167.397,26.772 167.932,25.063 169.003,23.834C170.073,22.605 171.365,21.991 172.878,21.991ZM176.833,28.705C176.833,27.085 176.5,25.885 175.832,25.103C175.165,24.322 174.315,23.932 173.281,23.932C171.735,23.932 170.677,24.656 170.107,26.104C169.806,26.878 169.656,27.891 169.656,29.144C169.656,30.617 169.955,31.738 170.553,32.507C171.151,33.276 171.955,33.661 172.964,33.661C174.543,33.661 175.653,32.949 176.296,31.524C176.654,30.719 176.833,29.779 176.833,28.705Z" style="fill:white;fill-rule:nonzero;"/>
        <path d="M187.675,130.647L197.882,172.13C172.758,177.616 149.703,188.881 130.102,204.503L102.971,172.044C127.393,152.174 156.21,137.774 187.675,130.647Z" style="fill:rgb(0,157,166);stroke:white;stroke-width:3.75px;"/>
        <path d="M42.029,227.878L90.395,268.101L81.124,279.249L32.758,239.026L42.029,227.878Z" style="fill:none;stroke:white;stroke-width:3.75px;"/>
    </g>
</svg>
