<?xml version="1.0" encoding="UTF-8" standalone="no"?>
<!DOCTYPE svg PUBLIC "-//W3C//DTD SVG 1.1//EN" "http://www.w3.org/Graphics/SVG/1.1/DTD/svg11.dtd">
<svg width="100%" height="100%" viewBox="0 0 462 391" version="1.1" xmlns="http://www.w3.org/2000/svg" xmlns:xlink="http://www.w3.org/1999/xlink" xml:space="preserve" xmlns:serif="http://www.serif.com/" style="fill-rule:evenodd;clip-rule:evenodd;stroke-linecap:round;stroke-linejoin:round;stroke-miterlimit:1.5;">
    <rect x="0" y="0" width="461.983" height="390.705" style="fill:rgb(0,157,166);"/>
    <rect x="39.204" y="67.996" width="76.489" height="66.376" style="fill:white;stroke:black;stroke-width:3.75px;"/>
    <rect x="39.58" y="132.707" width="76.489" height="66.376" style="fill:white;stroke:black;stroke-width:3.75px;"/>
    <rect x="39.956" y="197.419" width="76.489" height="66.376" style="fill:white;stroke:black;stroke-width:3.75px;"/>
    <rect x="40.333" y="262.13" width="76.489" height="66.376" style="fill:white;stroke:black;stroke-width:3.75px;"/>
    <rect x="115.693" y="67.996" width="76.489" height="66.376" style="fill:white;stroke:black;stroke-width:3.75px;"/>
    <rect x="116.069" y="132.707" width="76.489" height="66.376" style="fill:white;stroke:black;stroke-width:3.75px;"/>
    <rect x="116.446" y="197.419" width="76.489" height="66.376" style="fill:white;stroke:black;stroke-width:3.75px;"/>
    <rect x="116.822" y="262.13" width="76.489" height="66.376" style="fill:white;stroke:black;stroke-width:3.75px;"/>
    <rect x="192.183" y="67.996" width="76.489" height="66.376" style="fill:white;stroke:black;stroke-width:3.75px;"/>
    <rect x="192.559" y="132.707" width="76.489" height="66.376" style="fill:white;stroke:black;stroke-width:3.75px;"/>
    <rect x="192.935" y="197.419" width="76.489" height="66.376" style="fill:white;stroke:black;stroke-width:3.75px;"/>
    <rect x="193.311" y="262.13" width="76.489" height="66.376" style="fill:white;stroke:black;stroke-width:3.75px;"/>
    <rect x="268.672" y="67.996" width="76.489" height="66.376" style="fill:rgb(253,253,253);stroke:rgb(38,35,62);stroke-width:3.75px;"/>
    <rect x="269.048" y="132.707" width="76.489" height="66.376" style="fill:rgb(253,253,253);stroke:rgb(38,35,62);stroke-width:3.75px;"/>
    <rect x="269.424" y="197.419" width="76.489" height="66.376" style="fill:rgb(253,253,253);stroke:rgb(38,35,62);stroke-width:3.75px;"/>
    <rect x="269.8" y="262.13" width="76.489" height="66.376" style="fill:rgb(253,253,253);stroke:rgb(38,35,62);stroke-width:3.75px;"/>
    <rect x="345.161" y="67.996" width="76.489" height="66.376" style="fill:rgb(253,253,253);stroke:rgb(38,35,62);stroke-width:3.75px;"/>
    <rect x="345.537" y="132.707" width="76.489" height="66.376" style="fill:rgb(253,253,253);stroke:rgb(38,35,62);stroke-width:3.75px;"/>
    <rect x="345.913" y="197.419" width="76.489" height="66.376" style="fill:rgb(253,253,253);stroke:rgb(38,35,62);stroke-width:3.75px;"/>
    <rect x="346.29" y="262.13" width="76.489" height="66.376" style="fill:rgb(253,253,253);stroke:rgb(38,35,62);stroke-width:3.75px;"/>
    <path d="M28.313,36.546C28.313,37.181 28.545,37.681 29.009,38.047C29.473,38.413 30.022,38.597 30.657,38.597C31.43,38.597 32.179,38.418 32.903,38.059C34.124,37.465 34.734,36.493 34.734,35.142L34.734,33.372C34.465,33.543 34.119,33.685 33.696,33.799C33.273,33.913 32.858,33.994 32.451,34.043L31.121,34.214C30.323,34.32 29.725,34.487 29.326,34.715C28.651,35.097 28.313,35.708 28.313,36.546ZM33.635,32.102C34.14,32.037 34.478,31.826 34.648,31.468C34.746,31.272 34.795,30.992 34.795,30.625C34.795,29.877 34.528,29.333 33.995,28.996C33.462,28.658 32.699,28.489 31.707,28.489C30.559,28.489 29.745,28.798 29.265,29.417C28.997,29.759 28.822,30.267 28.74,30.943L26.689,30.943C26.73,29.331 27.253,28.21 28.258,27.58C29.263,26.949 30.429,26.634 31.755,26.634C33.293,26.634 34.543,26.927 35.503,27.513C36.455,28.098 36.931,29.01 36.931,30.247L36.931,37.779C36.931,38.007 36.978,38.19 37.072,38.328C37.165,38.466 37.362,38.536 37.664,38.536C37.761,38.536 37.871,38.529 37.993,38.517C38.115,38.505 38.245,38.487 38.384,38.462L38.384,40.086C38.042,40.183 37.782,40.244 37.603,40.269C37.424,40.293 37.179,40.306 36.87,40.306C36.113,40.306 35.564,40.037 35.222,39.5C35.043,39.215 34.917,38.812 34.844,38.291C34.396,38.877 33.753,39.386 32.915,39.817C32.077,40.249 31.153,40.464 30.144,40.464C28.932,40.464 27.941,40.096 27.172,39.359C26.403,38.623 26.018,37.701 26.018,36.595C26.018,35.382 26.397,34.442 27.153,33.775C27.91,33.107 28.903,32.696 30.132,32.542L33.635,32.102Z" style="fill:rgb(38,35,62);fill-rule:nonzero;"/>
    <path d="M41.924,33.64C41.924,35.04 42.221,36.212 42.815,37.156C43.409,38.1 44.361,38.572 45.671,38.572C46.689,38.572 47.525,38.135 48.18,37.26C48.835,36.385 49.163,35.13 49.163,33.494C49.163,31.842 48.825,30.619 48.149,29.826C47.474,29.032 46.64,28.636 45.647,28.636C44.54,28.636 43.643,29.059 42.955,29.905C42.268,30.751 41.924,31.997 41.924,33.64ZM45.232,26.719C46.233,26.719 47.071,26.931 47.747,27.354C48.137,27.598 48.581,28.025 49.077,28.636L49.077,22.032L51.189,22.032L51.189,40.025L49.211,40.025L49.211,38.206C48.699,39.012 48.092,39.593 47.393,39.952C46.693,40.31 45.891,40.489 44.988,40.489C43.531,40.489 42.27,39.876 41.204,38.651C40.138,37.427 39.605,35.797 39.605,33.763C39.605,31.858 40.091,30.208 41.063,28.813C42.036,27.417 43.425,26.719 45.232,26.719Z" style="fill:rgb(38,35,62);fill-rule:nonzero;"/>
    <path d="M55.51,26.951L59.001,37.596L62.651,26.951L65.056,26.951L60.125,40.025L57.781,40.025L52.959,26.951L55.51,26.951Z" style="fill:rgb(38,35,62);fill-rule:nonzero;"/>
    <path d="M72.38,26.658C73.308,26.658 74.207,26.876 75.078,27.311C75.949,27.747 76.612,28.31 77.068,29.002C77.507,29.661 77.8,30.43 77.947,31.309C78.077,31.911 78.142,32.871 78.142,34.19L68.56,34.19C68.6,35.516 68.914,36.58 69.5,37.382C70.085,38.184 70.993,38.584 72.222,38.584C73.369,38.584 74.285,38.206 74.968,37.449C75.359,37.01 75.636,36.501 75.798,35.923L77.959,35.923C77.902,36.403 77.713,36.938 77.391,37.528C77.07,38.118 76.71,38.601 76.311,38.975C75.644,39.626 74.818,40.065 73.833,40.293C73.304,40.424 72.706,40.489 72.039,40.489C70.411,40.489 69.032,39.897 67.9,38.713C66.769,37.528 66.204,35.87 66.204,33.738C66.204,31.639 66.773,29.934 67.913,28.623C69.052,27.313 70.541,26.658 72.38,26.658ZM75.884,32.444C75.794,31.492 75.587,30.731 75.261,30.161C74.659,29.104 73.654,28.575 72.246,28.575C71.237,28.575 70.391,28.939 69.707,29.667C69.023,30.395 68.661,31.321 68.621,32.444L75.884,32.444Z" style="fill:rgb(38,35,62);fill-rule:nonzero;"/>
    <path d="M80.901,26.951L82.988,26.951L82.988,29.209C83.159,28.77 83.578,28.235 84.246,27.604C84.913,26.973 85.682,26.658 86.553,26.658C86.593,26.658 86.663,26.662 86.76,26.67C86.858,26.678 87.025,26.695 87.261,26.719L87.261,29.038C87.131,29.014 87.011,28.998 86.901,28.99C86.791,28.981 86.671,28.977 86.541,28.977C85.434,28.977 84.583,29.333 83.989,30.046C83.395,30.758 83.098,31.577 83.098,32.505L83.098,40.025L80.901,40.025L80.901,26.951Z" style="fill:rgb(38,35,62);fill-rule:nonzero;"/>
    <path d="M89.605,23.301L91.826,23.301L91.826,26.951L93.914,26.951L93.914,28.745L91.826,28.745L91.826,37.278C91.826,37.734 91.981,38.039 92.29,38.194C92.461,38.283 92.746,38.328 93.145,38.328C93.25,38.328 93.364,38.326 93.486,38.322C93.608,38.318 93.751,38.308 93.914,38.291L93.914,40.025C93.661,40.098 93.399,40.151 93.126,40.183C92.854,40.216 92.559,40.232 92.241,40.232C91.216,40.232 90.52,39.97 90.154,39.445C89.788,38.92 89.605,38.238 89.605,37.4L89.605,28.745L87.834,28.745L87.834,26.951L89.605,26.951L89.605,23.301Z" style="fill:rgb(38,35,62);fill-rule:nonzero;"/>
    <path d="M96.111,27.012L98.345,27.012L98.345,40.025L96.111,40.025L96.111,27.012ZM96.111,22.093L98.345,22.093L98.345,24.583L96.111,24.583L96.111,22.093Z" style="fill:rgb(38,35,62);fill-rule:nonzero;"/>
    <path d="M102.971,35.923C103.036,36.656 103.219,37.217 103.521,37.608C104.074,38.316 105.034,38.67 106.401,38.67C107.215,38.67 107.931,38.493 108.55,38.139C109.168,37.785 109.478,37.237 109.478,36.497C109.478,35.935 109.229,35.508 108.733,35.215C108.416,35.036 107.789,34.829 106.853,34.593L105.107,34.153C103.993,33.876 103.171,33.567 102.642,33.225C101.698,32.631 101.226,31.809 101.226,30.76C101.226,29.523 101.671,28.522 102.562,27.757C103.453,26.992 104.652,26.609 106.157,26.609C108.127,26.609 109.547,27.187 110.418,28.343C110.963,29.075 111.227,29.864 111.211,30.711L109.136,30.711C109.095,30.214 108.92,29.763 108.611,29.356C108.106,28.778 107.231,28.489 105.986,28.489C105.156,28.489 104.528,28.648 104.1,28.965C103.673,29.283 103.459,29.702 103.459,30.223C103.459,30.792 103.74,31.248 104.302,31.59C104.627,31.793 105.107,31.972 105.742,32.127L107.195,32.481C108.774,32.863 109.832,33.234 110.369,33.592C111.223,34.153 111.65,35.036 111.65,36.241C111.65,37.404 111.209,38.409 110.326,39.256C109.443,40.102 108.098,40.525 106.292,40.525C104.347,40.525 102.969,40.084 102.159,39.201C101.35,38.318 100.916,37.225 100.859,35.923L102.971,35.923Z" style="fill:rgb(38,35,62);fill-rule:nonzero;"/>
    <path d="M119.609,26.658C120.537,26.658 121.436,26.876 122.307,27.311C123.178,27.747 123.841,28.31 124.297,29.002C124.736,29.661 125.029,30.43 125.176,31.309C125.306,31.911 125.371,32.871 125.371,34.19L115.789,34.19C115.829,35.516 116.143,36.58 116.729,37.382C117.314,38.184 118.222,38.584 119.451,38.584C120.598,38.584 121.514,38.206 122.197,37.449C122.588,37.01 122.865,36.501 123.027,35.923L125.188,35.923C125.131,36.403 124.942,36.938 124.62,37.528C124.299,38.118 123.939,38.601 123.54,38.975C122.873,39.626 122.047,40.065 121.062,40.293C120.533,40.424 119.935,40.489 119.268,40.489C117.64,40.489 116.261,39.897 115.129,38.713C113.998,37.528 113.433,35.87 113.433,33.738C113.433,31.639 114.002,29.934 115.142,28.623C116.281,27.313 117.77,26.658 119.609,26.658ZM123.113,32.444C123.023,31.492 122.816,30.731 122.49,30.161C121.888,29.104 120.883,28.575 119.475,28.575C118.466,28.575 117.62,28.939 116.936,29.667C116.252,30.395 115.89,31.321 115.85,32.444L123.113,32.444Z" style="fill:rgb(38,35,62);fill-rule:nonzero;"/>
    <path d="M128.13,26.951L130.217,26.951L130.217,29.209C130.388,28.77 130.807,28.235 131.475,27.604C132.142,26.973 132.911,26.658 133.782,26.658C133.822,26.658 133.892,26.662 133.989,26.67C134.087,26.678 134.254,26.695 134.49,26.719L134.49,29.038C134.36,29.014 134.24,28.998 134.13,28.99C134.02,28.981 133.9,28.977 133.77,28.977C132.663,28.977 131.812,29.333 131.218,30.046C130.624,30.758 130.327,31.577 130.327,32.505L130.327,40.025L128.13,40.025L128.13,26.951Z" style="fill:rgb(38,35,62);fill-rule:nonzero;"/>
    <path d="M137.7,35.923C137.765,36.656 137.948,37.217 138.25,37.608C138.803,38.316 139.763,38.67 141.13,38.67C141.944,38.67 142.66,38.493 143.279,38.139C143.897,37.785 144.207,37.237 144.207,36.497C144.207,35.935 143.958,35.508 143.462,35.215C143.145,35.036 142.518,34.829 141.582,34.593L139.836,34.153C138.722,33.876 137.9,33.567 137.371,33.225C136.427,32.631 135.955,31.809 135.955,30.76C135.955,29.523 136.4,28.522 137.291,27.757C138.182,26.992 139.381,26.609 140.886,26.609C142.856,26.609 144.276,27.187 145.147,28.343C145.692,29.075 145.956,29.864 145.94,30.711L143.865,30.711C143.824,30.214 143.649,29.763 143.34,29.356C142.835,28.778 141.96,28.489 140.715,28.489C139.885,28.489 139.257,28.648 138.829,28.965C138.402,29.283 138.189,29.702 138.189,30.223C138.189,30.792 138.469,31.248 139.031,31.59C139.356,31.793 139.836,31.972 140.471,32.127L141.924,32.481C143.503,32.863 144.561,33.234 145.098,33.592C145.952,34.153 146.379,35.036 146.379,36.241C146.379,37.404 145.938,38.409 145.055,39.256C144.172,40.102 142.827,40.525 141.021,40.525C139.076,40.525 137.698,40.084 136.888,39.201C136.079,38.318 135.645,37.225 135.588,35.923L137.7,35.923Z" style="fill:rgb(38,35,62);fill-rule:nonzero;"/>
</svg>
