<?xml version="1.0" encoding="UTF-8" standalone="no"?>
<!DOCTYPE svg PUBLIC "-//W3C//DTD SVG 1.1//EN" "http://www.w3.org/Graphics/SVG/1.1/DTD/svg11.dtd">
<svg width="100%" height="100%" viewBox="0 0 462 391" version="1.1" xmlns="http://www.w3.org/2000/svg" xmlns:xlink="http://www.w3.org/1999/xlink" xml:space="preserve" xmlns:serif="http://www.serif.com/" style="fill-rule:evenodd;clip-rule:evenodd;stroke-linecap:round;stroke-linejoin:round;stroke-miterlimit:1.5;">
    <g>
        <rect x="0" y="0" width="461.983" height="390.705" style="fill:rgb(38,35,62);"/>
        <rect x="176.127" y="92.362" width="57.874" height="57.725" style="fill:rgb(38,35,62);stroke:white;stroke-width:3.75px;"/>
        <rect x="176.412" y="148.639" width="57.874" height="57.725" style="fill:rgb(38,35,62);stroke:white;stroke-width:3.75px;"/>
        <rect x="176.696" y="204.916" width="57.874" height="57.725" style="fill:rgb(38,35,62);stroke:white;stroke-width:3.75px;"/>
        <rect x="176.981" y="261.194" width="57.874" height="57.725" style="fill:rgb(38,35,62);stroke:white;stroke-width:3.75px;"/>
        <rect x="234.001" y="92.362" width="57.874" height="57.725" style="fill:rgb(38,35,62);stroke:white;stroke-width:3.75px;"/>
        <rect x="234.286" y="148.639" width="57.874" height="57.725" style="fill:rgb(38,35,62);stroke:white;stroke-width:3.75px;"/>
        <rect x="234.57" y="204.916" width="57.874" height="57.725" style="fill:rgb(38,35,62);stroke:white;stroke-width:3.75px;"/>
        <rect x="234.855" y="261.194" width="57.874" height="57.725" style="fill:rgb(38,35,62);stroke:white;stroke-width:3.75px;"/>
        <rect x="291.875" y="92.362" width="57.874" height="57.725" style="fill:rgb(38,35,62);stroke:white;stroke-width:3.75px;"/>
        <rect x="292.16" y="148.639" width="57.874" height="57.725" style="fill:rgb(38,35,62);stroke:white;stroke-width:3.75px;"/>
        <rect x="292.445" y="204.916" width="57.874" height="57.725" style="fill:rgb(38,35,62);stroke:white;stroke-width:3.75px;"/>
        <rect x="292.729" y="261.194" width="57.874" height="57.725" style="fill:rgb(38,35,62);stroke:white;stroke-width:3.75px;"/>
        <rect x="349.749" y="92.362" width="57.874" height="57.725" style="fill:rgb(38,35,62);stroke:white;stroke-width:3.75px;"/>
        <rect x="350.034" y="148.639" width="57.874" height="57.725" style="fill:rgb(38,35,62);stroke:white;stroke-width:3.75px;"/>
        <rect x="350.319" y="204.916" width="57.874" height="57.725" style="fill:rgb(38,35,62);stroke:white;stroke-width:3.75px;"/>
        <rect x="350.603" y="261.194" width="57.874" height="57.725" style="fill:rgb(38,35,62);stroke:white;stroke-width:3.75px;"/>
        <path d="M234.286,99.605L234.286,314.491" style="fill:none;stroke:rgb(38,35,62);stroke-width:5px;stroke-linecap:square;stroke-dasharray:5,20,0,0;stroke-dashoffset:10;"/>
        <path d="M54.132,204.916L408.709,204.916" style="fill:none;stroke:rgb(38,35,62);stroke-width:5px;stroke-linecap:square;stroke-dasharray:5,20,0,0;stroke-dashoffset:10;"/>
        <rect x="60.379" y="92.362" width="57.874" height="57.725" style="fill:rgb(38,35,62);stroke:white;stroke-width:3.75px;"/>
        <rect x="60.664" y="148.639" width="57.874" height="57.725" style="fill:rgb(38,35,62);stroke:white;stroke-width:3.75px;"/>
        <rect x="60.948" y="204.916" width="57.874" height="57.725" style="fill:rgb(38,35,62);stroke:white;stroke-width:3.75px;"/>
        <rect x="61.233" y="261.194" width="57.874" height="57.725" style="fill:rgb(38,35,62);stroke:white;stroke-width:3.75px;"/>
        <rect x="118.253" y="92.362" width="57.874" height="57.725" style="fill:rgb(38,35,62);stroke:white;stroke-width:3.75px;"/>
        <rect x="118.538" y="148.639" width="57.874" height="57.725" style="fill:rgb(38,35,62);stroke:white;stroke-width:3.75px;"/>
        <rect x="118.822" y="204.916" width="57.874" height="57.725" style="fill:rgb(38,35,62);stroke:white;stroke-width:3.75px;"/>
        <rect x="119.107" y="261.194" width="57.874" height="57.725" style="fill:rgb(38,35,62);stroke:white;stroke-width:3.75px;"/>
        <path d="M18.632,24.906C18.632,25.54 18.864,26.041 19.328,26.407C19.792,26.773 20.341,26.956 20.976,26.956C21.749,26.956 22.498,26.777 23.222,26.419C24.443,25.825 25.053,24.853 25.053,23.502L25.053,21.732C24.785,21.903 24.439,22.045 24.016,22.159C23.592,22.273 23.177,22.354 22.77,22.403L21.44,22.574C20.642,22.68 20.044,22.847 19.645,23.074C18.97,23.457 18.632,24.067 18.632,24.906ZM23.955,20.462C24.459,20.397 24.797,20.186 24.968,19.827C25.065,19.632 25.114,19.351 25.114,18.985C25.114,18.236 24.848,17.693 24.315,17.356C23.782,17.018 23.019,16.849 22.026,16.849C20.878,16.849 20.065,17.158 19.584,17.777C19.316,18.118 19.141,18.627 19.06,19.303L17.009,19.303C17.049,17.691 17.572,16.57 18.577,15.939C19.582,15.309 20.748,14.993 22.075,14.993C23.613,14.993 24.862,15.286 25.822,15.872C26.774,16.458 27.25,17.37 27.25,18.607L27.25,26.138C27.25,26.366 27.297,26.549 27.391,26.688C27.484,26.826 27.682,26.895 27.983,26.895C28.081,26.895 28.19,26.889 28.312,26.877C28.435,26.865 28.565,26.846 28.703,26.822L28.703,28.446C28.361,28.543 28.101,28.604 27.922,28.629C27.743,28.653 27.499,28.665 27.189,28.665C26.433,28.665 25.883,28.397 25.541,27.86C25.362,27.575 25.236,27.172 25.163,26.651C24.715,27.237 24.073,27.746 23.234,28.177C22.396,28.608 21.472,28.824 20.463,28.824C19.251,28.824 18.26,28.456 17.491,27.719C16.722,26.983 16.337,26.061 16.337,24.954C16.337,23.742 16.716,22.802 17.473,22.135C18.229,21.467 19.222,21.056 20.451,20.902L23.955,20.462Z" style="fill:white;fill-rule:nonzero;"/>
        <path d="M30.852,15.311L33.024,15.311L33.024,17.166C33.545,16.523 34.017,16.055 34.44,15.762C35.165,15.266 35.987,15.018 36.906,15.018C37.948,15.018 38.786,15.274 39.421,15.787C39.779,16.08 40.104,16.511 40.397,17.081C40.886,16.381 41.459,15.862 42.119,15.524C42.778,15.187 43.518,15.018 44.34,15.018C46.098,15.018 47.294,15.653 47.929,16.922C48.271,17.606 48.442,18.525 48.442,19.681L48.442,28.385L46.159,28.385L46.159,19.303C46.159,18.432 45.941,17.834 45.506,17.508C45.071,17.183 44.54,17.02 43.913,17.02C43.05,17.02 42.308,17.309 41.685,17.887C41.063,18.464 40.751,19.429 40.751,20.78L40.751,28.385L38.518,28.385L38.518,19.852C38.518,18.965 38.412,18.318 38.2,17.911C37.866,17.301 37.244,16.995 36.332,16.995C35.502,16.995 34.748,17.317 34.068,17.96C33.389,18.603 33.049,19.766 33.049,21.451L33.049,28.385L30.852,28.385L30.852,15.311Z" style="fill:white;fill-rule:nonzero;"/>
        <path d="M51.506,10.391L53.642,10.391L53.642,16.898C54.122,16.271 54.696,15.793 55.363,15.463C56.031,15.134 56.755,14.969 57.536,14.969C59.164,14.969 60.484,15.529 61.497,16.647C62.51,17.766 63.017,19.416 63.017,21.597C63.017,23.665 62.517,25.382 61.516,26.749C60.515,28.116 59.127,28.8 57.353,28.8C56.36,28.8 55.522,28.56 54.838,28.079C54.431,27.795 53.996,27.339 53.532,26.712L53.532,28.385L51.506,28.385L51.506,10.391ZM57.219,26.859C58.407,26.859 59.296,26.387 59.886,25.443C60.476,24.499 60.771,23.254 60.771,21.707C60.771,20.332 60.476,19.193 59.886,18.289C59.296,17.386 58.427,16.934 57.28,16.934C56.279,16.934 55.402,17.305 54.649,18.045C53.896,18.786 53.52,20.006 53.52,21.707C53.52,22.936 53.675,23.933 53.984,24.698C54.562,26.138 55.64,26.859 57.219,26.859Z" style="fill:white;fill-rule:nonzero;"/>
        <path d="M65.581,15.372L67.814,15.372L67.814,28.385L65.581,28.385L65.581,15.372ZM65.581,10.452L67.814,10.452L67.814,12.943L65.581,12.943L65.581,10.452Z" style="fill:white;fill-rule:nonzero;"/>
        <path d="M76.579,15.018C77.507,15.018 78.406,15.236 79.277,15.671C80.148,16.106 80.811,16.67 81.267,17.362C81.706,18.021 81.999,18.79 82.145,19.669C82.276,20.271 82.341,21.231 82.341,22.55L72.758,22.55C72.799,23.876 73.112,24.94 73.698,25.742C74.284,26.543 75.192,26.944 76.42,26.944C77.568,26.944 78.483,26.566 79.167,25.809C79.558,25.369 79.834,24.861 79.997,24.283L82.158,24.283C82.101,24.763 81.911,25.298 81.59,25.888C81.269,26.478 80.908,26.96 80.51,27.335C79.842,27.986 79.016,28.425 78.032,28.653C77.503,28.783 76.905,28.848 76.237,28.848C74.61,28.848 73.23,28.256 72.099,27.072C70.968,25.888 70.402,24.23 70.402,22.098C70.402,19.998 70.972,18.293 72.111,16.983C73.251,15.673 74.74,15.018 76.579,15.018ZM80.082,20.804C79.993,19.852 79.785,19.091 79.46,18.521C78.858,17.463 77.853,16.934 76.445,16.934C75.436,16.934 74.589,17.299 73.906,18.027C73.222,18.755 72.86,19.681 72.819,20.804L80.082,20.804Z" style="fill:white;fill-rule:nonzero;"/>
        <path d="M85.039,15.311L87.126,15.311L87.126,17.166C87.744,16.401 88.4,15.852 89.091,15.518C89.783,15.185 90.552,15.018 91.398,15.018C93.254,15.018 94.507,15.665 95.158,16.959C95.516,17.667 95.695,18.68 95.695,19.998L95.695,28.385L93.461,28.385L93.461,20.145C93.461,19.347 93.343,18.704 93.107,18.216C92.717,17.402 92.009,16.995 90.983,16.995C90.463,16.995 90.035,17.048 89.702,17.154C89.099,17.333 88.57,17.691 88.115,18.228C87.748,18.66 87.51,19.105 87.401,19.565C87.291,20.025 87.236,20.682 87.236,21.536L87.236,28.385L85.039,28.385L85.039,15.311Z" style="fill:white;fill-rule:nonzero;"/>
        <path d="M99.382,11.661L101.603,11.661L101.603,15.311L103.691,15.311L103.691,17.105L101.603,17.105L101.603,25.638C101.603,26.094 101.758,26.399 102.067,26.554C102.238,26.643 102.523,26.688 102.922,26.688C103.028,26.688 103.142,26.686 103.264,26.682C103.386,26.678 103.528,26.667 103.691,26.651L103.691,28.385C103.439,28.458 103.176,28.511 102.904,28.543C102.631,28.576 102.336,28.592 102.018,28.592C100.993,28.592 100.297,28.33 99.931,27.805C99.565,27.28 99.382,26.598 99.382,25.76L99.382,17.105L97.612,17.105L97.612,15.311L99.382,15.311L99.382,11.661Z" style="fill:white;fill-rule:nonzero;"/>
        <path d="M112.834,15.311L114.921,15.311L114.921,17.166C115.54,16.401 116.195,15.852 116.887,15.518C117.578,15.185 118.347,15.018 119.194,15.018C121.049,15.018 122.303,15.665 122.954,16.959C123.312,17.667 123.491,18.68 123.491,19.998L123.491,28.385L121.257,28.385L121.257,20.145C121.257,19.347 121.139,18.704 120.903,18.216C120.512,17.402 119.804,16.995 118.779,16.995C118.258,16.995 117.831,17.048 117.497,17.154C116.895,17.333 116.366,17.691 115.91,18.228C115.544,18.66 115.306,19.105 115.196,19.565C115.086,20.025 115.031,20.682 115.031,21.536L115.031,28.385L112.834,28.385L112.834,15.311Z" style="fill:white;fill-rule:nonzero;"/>
        <path d="M131.926,26.969C133.382,26.969 134.381,26.417 134.923,25.314C135.464,24.212 135.734,22.985 135.734,21.634C135.734,20.413 135.539,19.421 135.148,18.656C134.53,17.451 133.464,16.849 131.95,16.849C130.607,16.849 129.631,17.362 129.02,18.387C128.41,19.412 128.105,20.649 128.105,22.098C128.105,23.49 128.41,24.649 129.02,25.577C129.631,26.505 130.599,26.969 131.926,26.969ZM132.011,14.932C133.696,14.932 135.12,15.494 136.284,16.617C137.447,17.74 138.029,19.392 138.029,21.573C138.029,23.681 137.517,25.422 136.491,26.798C135.466,28.173 133.875,28.861 131.718,28.861C129.92,28.861 128.491,28.252 127.434,27.036C126.376,25.819 125.847,24.185 125.847,22.135C125.847,19.937 126.404,18.188 127.519,16.886C128.634,15.583 130.131,14.932 132.011,14.932Z" style="fill:white;fill-rule:nonzero;"/>
        <path d="M140.642,15.372L142.875,15.372L142.875,28.385L140.642,28.385L140.642,15.372ZM140.642,10.452L142.875,10.452L142.875,12.943L140.642,12.943L140.642,10.452Z" style="fill:white;fill-rule:nonzero;"/>
        <path d="M147.502,24.283C147.567,25.015 147.75,25.577 148.051,25.968C148.605,26.676 149.565,27.03 150.932,27.03C151.746,27.03 152.462,26.853 153.081,26.499C153.699,26.145 154.008,25.597 154.008,24.857C154.008,24.295 153.76,23.868 153.264,23.575C152.946,23.396 152.32,23.188 151.384,22.952L149.638,22.513C148.523,22.236 147.701,21.927 147.172,21.585C146.228,20.991 145.756,20.169 145.756,19.119C145.756,17.882 146.202,16.881 147.093,16.116C147.984,15.352 149.182,14.969 150.688,14.969C152.657,14.969 154.077,15.547 154.948,16.702C155.493,17.435 155.758,18.224 155.742,19.071L153.666,19.071C153.626,18.574 153.451,18.123 153.142,17.716C152.637,17.138 151.762,16.849 150.517,16.849C149.687,16.849 149.058,17.008 148.631,17.325C148.204,17.642 147.99,18.061 147.99,18.582C147.99,19.152 148.271,19.608 148.832,19.949C149.158,20.153 149.638,20.332 150.273,20.487L151.726,20.841C153.304,21.223 154.362,21.593 154.899,21.951C155.754,22.513 156.181,23.396 156.181,24.6C156.181,25.764 155.74,26.769 154.857,27.616C153.974,28.462 152.629,28.885 150.822,28.885C148.877,28.885 147.5,28.444 146.69,27.561C145.88,26.678 145.447,25.585 145.39,24.283L147.502,24.283Z" style="fill:white;fill-rule:nonzero;"/>
        <path d="M164.14,15.018C165.068,15.018 165.967,15.236 166.838,15.671C167.709,16.106 168.372,16.67 168.828,17.362C169.267,18.021 169.56,18.79 169.706,19.669C169.837,20.271 169.902,21.231 169.902,22.55L160.319,22.55C160.36,23.876 160.673,24.94 161.259,25.742C161.845,26.543 162.753,26.944 163.981,26.944C165.129,26.944 166.044,26.566 166.728,25.809C167.119,25.369 167.395,24.861 167.558,24.283L169.719,24.283C169.662,24.763 169.473,25.298 169.151,25.888C168.83,26.478 168.47,26.96 168.071,27.335C167.403,27.986 166.577,28.425 165.593,28.653C165.064,28.783 164.466,28.848 163.798,28.848C162.171,28.848 160.791,28.256 159.66,27.072C158.529,25.888 157.963,24.23 157.963,22.098C157.963,19.998 158.533,18.293 159.672,16.983C160.812,15.673 162.301,15.018 164.14,15.018ZM167.643,20.804C167.554,19.852 167.346,19.091 167.021,18.521C166.419,17.463 165.414,16.934 164.006,16.934C162.997,16.934 162.15,17.299 161.467,18.027C160.783,18.755 160.421,19.681 160.38,20.804L167.643,20.804Z" style="fill:white;fill-rule:nonzero;"/>
        <path d="M61.288,204.916C61.288,204.916 73.874,183.957 83.684,167.62C86.116,163.57 90.477,161.074 95.201,161.029C99.925,160.984 104.333,163.395 106.842,167.398C119.907,188.238 140.875,221.684 153.924,242.498C156.429,246.495 160.828,248.906 165.544,248.867C170.261,248.829 174.62,246.348 177.06,242.311C189.777,221.278 210.223,187.461 223.002,166.326C225.457,162.265 229.853,159.78 234.598,159.77C239.343,159.759 243.75,162.225 246.223,166.275C259.094,187.355 279.695,221.096 292.555,242.157C295.025,246.202 299.425,248.668 304.165,248.663C308.905,248.657 313.299,246.182 315.76,242.131C328.561,221.064 349.056,187.333 361.858,166.263C364.32,162.211 368.716,159.736 373.457,159.731C378.198,159.727 382.598,162.195 385.067,166.242C395.176,182.814 408.218,204.193 408.218,204.193" style="fill:none;stroke:white;stroke-width:8.33px;stroke-linecap:square;"/>
    </g>
</svg>
