<?xml version="1.0" encoding="UTF-8" standalone="no"?>
<!DOCTYPE svg PUBLIC "-//W3C//DTD SVG 1.1//EN" "http://www.w3.org/Graphics/SVG/1.1/DTD/svg11.dtd">
<svg width="100%" height="100%" viewBox="0 0 462 391" version="1.1" xmlns="http://www.w3.org/2000/svg" xmlns:xlink="http://www.w3.org/1999/xlink" xml:space="preserve" xmlns:serif="http://www.serif.com/" style="fill-rule:evenodd;clip-rule:evenodd;stroke-linecap:round;stroke-linejoin:round;stroke-miterlimit:1.5;">
    <rect x="0" y="0" width="461.983" height="390.599" style="fill:rgb(38,35,62);"/>
    <rect x="55.36" y="252.352" width="48.384" height="15.682" style="fill:rgb(214,225,0);stroke:rgb(229,229,229);stroke-width:3.75px;"/>
    <rect x="116.549" y="252.124" width="48.384" height="15.682" style="fill:rgb(214,225,0);stroke:white;stroke-width:3.75px;"/>
    <rect x="177.739" y="251.896" width="48.384" height="15.682" style="fill:rgb(214,225,0);stroke:white;stroke-width:3.75px;"/>
    <rect x="238.928" y="251.667" width="48.384" height="15.682" style="fill:rgb(214,225,0);stroke:rgb(252,252,252);stroke-width:3.75px;"/>
    <rect x="300.117" y="251.439" width="48.384" height="15.682" style="fill:rgb(214,225,0);stroke:white;stroke-width:3.75px;"/>
    <rect x="361.307" y="251.211" width="48.384" height="15.682" style="fill:rgb(214,225,0);stroke:white;stroke-width:3.75px;"/>
    <rect x="55.36" y="227.968" width="48.384" height="15.682" style="fill:rgb(214,225,0);stroke:rgb(229,229,229);stroke-width:3.75px;"/>
    <rect x="116.549" y="227.74" width="48.384" height="15.682" style="fill:rgb(214,225,0);stroke:white;stroke-width:3.75px;"/>
    <rect x="177.739" y="227.512" width="48.384" height="15.682" style="fill:rgb(214,225,0);stroke:white;stroke-width:3.75px;"/>
    <rect x="238.928" y="227.283" width="48.384" height="15.682" style="fill:rgb(214,225,0);stroke:rgb(252,252,252);stroke-width:3.75px;"/>
    <rect x="300.117" y="227.055" width="48.384" height="15.682" style="fill:rgb(214,225,0);stroke:white;stroke-width:3.75px;"/>
    <rect x="361.307" y="226.827" width="48.384" height="15.682" style="fill:rgb(214,225,0);stroke:white;stroke-width:3.75px;"/>
    <rect x="55.36" y="203.585" width="48.384" height="15.682" style="fill:rgb(214,225,0);stroke:rgb(229,229,229);stroke-width:3.75px;"/>
    <rect x="116.549" y="203.356" width="48.384" height="15.682" style="fill:rgb(214,225,0);stroke:white;stroke-width:3.75px;"/>
    <rect x="177.739" y="203.128" width="48.384" height="15.682" style="fill:rgb(214,225,0);stroke:white;stroke-width:3.75px;"/>
    <rect x="238.928" y="202.9" width="48.384" height="15.682" style="fill:rgb(214,225,0);stroke:rgb(252,252,252);stroke-width:3.75px;"/>
    <rect x="361.307" y="202.443" width="48.384" height="15.682" style="fill:rgb(214,225,0);stroke:white;stroke-width:3.75px;"/>
    <rect x="55.36" y="179.201" width="48.384" height="15.682" style="fill:rgb(214,225,0);stroke:rgb(229,229,229);stroke-width:3.75px;"/>
    <rect x="177.739" y="178.744" width="48.384" height="15.682" style="fill:rgb(214,225,0);stroke:white;stroke-width:3.75px;"/>
    <rect x="238.928" y="178.516" width="48.384" height="15.682" style="fill:rgb(214,225,0);stroke:rgb(252,252,252);stroke-width:3.75px;"/>
    <rect x="55.36" y="154.817" width="48.384" height="15.682" style="fill:rgb(214,225,0);stroke:white;stroke-width:3.75px;"/>
    <rect x="238.928" y="154.132" width="48.384" height="15.682" style="fill:rgb(214,225,0);stroke:rgb(252,252,252);stroke-width:3.75px;"/>
    <rect x="238.928" y="129.748" width="48.384" height="15.682" style="fill:rgb(214,225,0);stroke:rgb(252,252,252);stroke-width:3.75px;"/>
    <path d="M23.033,17.812C23.065,16.9 23.224,16.233 23.509,15.81C24.021,15.061 25.01,14.687 26.475,14.687C26.613,14.687 26.756,14.691 26.902,14.699C27.049,14.707 27.216,14.719 27.403,14.736L27.403,16.738C27.175,16.721 27.01,16.711 26.908,16.707C26.807,16.703 26.711,16.701 26.621,16.701C25.954,16.701 25.555,16.874 25.425,17.22C25.295,17.566 25.23,18.447 25.23,19.863L27.403,19.863L27.403,21.596L25.205,21.596L25.205,32.875L23.033,32.875L23.033,21.596L21.214,21.596L21.214,19.863L23.033,19.863L23.033,17.812ZM29.515,17.433L29.515,14.943L31.712,14.943L31.712,17.433L29.515,17.433ZM29.515,19.863L31.712,19.863L31.712,32.875L29.515,32.875L29.515,19.863Z" style="fill:white;fill-rule:nonzero;"/>
    <rect x="35.044" y="14.943" width="2.197" height="17.932" style="fill:white;fill-rule:nonzero;"/>
    <path d="M40.537,19.802L42.71,19.802L42.71,21.657C43.231,21.014 43.703,20.546 44.126,20.253C44.851,19.757 45.673,19.509 46.592,19.509C47.634,19.509 48.472,19.765 49.107,20.278C49.465,20.571 49.79,21.002 50.083,21.572C50.572,20.872 51.145,20.353 51.805,20.015C52.464,19.677 53.204,19.509 54.026,19.509C55.784,19.509 56.98,20.143 57.615,21.413C57.957,22.096 58.128,23.016 58.128,24.172L58.128,32.875L55.845,32.875L55.845,23.793C55.845,22.922 55.627,22.324 55.192,21.999C54.757,21.673 54.226,21.511 53.599,21.511C52.736,21.511 51.994,21.799 51.371,22.377C50.749,22.955 50.437,23.919 50.437,25.27L50.437,32.875L48.204,32.875L48.204,24.343C48.204,23.455 48.098,22.809 47.886,22.402C47.552,21.791 46.93,21.486 46.018,21.486C45.188,21.486 44.434,21.808 43.754,22.45C43.075,23.093 42.735,24.257 42.735,25.942L42.735,32.875L40.537,32.875L40.537,19.802Z" style="fill:white;fill-rule:nonzero;"/>
    <path d="M68.37,19.802L70.457,19.802L70.457,22.06C70.628,21.62 71.047,21.085 71.714,20.455C72.382,19.824 73.151,19.509 74.021,19.509C74.062,19.509 74.131,19.513 74.229,19.521C74.327,19.529 74.493,19.545 74.729,19.57L74.729,21.889C74.599,21.865 74.479,21.848 74.369,21.84C74.259,21.832 74.139,21.828 74.009,21.828C72.902,21.828 72.052,22.184 71.458,22.896C70.864,23.608 70.567,24.428 70.567,25.356L70.567,32.875L68.37,32.875L68.37,19.802Z" style="fill:white;fill-rule:nonzero;"/>
    <path d="M82.078,19.509C83.006,19.509 83.905,19.726 84.776,20.162C85.647,20.597 86.31,21.161 86.766,21.852C87.205,22.511 87.498,23.281 87.644,24.159C87.775,24.762 87.84,25.722 87.84,27.04L78.257,27.04C78.298,28.367 78.611,29.431 79.197,30.232C79.783,31.034 80.69,31.435 81.919,31.435C83.067,31.435 83.982,31.056 84.666,30.3C85.057,29.86 85.333,29.351 85.496,28.774L87.657,28.774C87.6,29.254 87.41,29.789 87.089,30.379C86.768,30.969 86.407,31.451 86.009,31.825C85.341,32.476 84.515,32.916 83.531,33.144C83.002,33.274 82.404,33.339 81.736,33.339C80.109,33.339 78.729,32.747 77.598,31.563C76.467,30.379 75.901,28.721 75.901,26.589C75.901,24.489 76.471,22.784 77.61,21.474C78.75,20.164 80.239,19.509 82.078,19.509ZM85.581,25.295C85.492,24.343 85.284,23.582 84.959,23.012C84.357,21.954 83.352,21.425 81.944,21.425C80.935,21.425 80.088,21.789 79.405,22.518C78.721,23.246 78.359,24.172 78.318,25.295L85.581,25.295Z" style="fill:white;fill-rule:nonzero;"/>
    <path d="M95.579,19.423C97.052,19.423 98.25,19.781 99.174,20.497C100.098,21.213 100.653,22.446 100.84,24.196L98.704,24.196C98.574,23.39 98.277,22.721 97.813,22.188C97.349,21.655 96.604,21.388 95.579,21.388C94.179,21.388 93.178,22.072 92.576,23.439C92.185,24.326 91.99,25.421 91.99,26.723C91.99,28.033 92.267,29.136 92.82,30.031C93.374,30.926 94.244,31.374 95.433,31.374C96.344,31.374 97.066,31.095 97.599,30.538C98.132,29.98 98.501,29.217 98.704,28.249L100.84,28.249C100.596,29.982 99.986,31.25 99.009,32.051C98.033,32.853 96.783,33.254 95.262,33.254C93.553,33.254 92.19,32.629 91.172,31.38C90.155,30.131 89.646,28.57 89.646,26.698C89.646,24.404 90.204,22.617 91.319,21.34C92.434,20.062 93.854,19.423 95.579,19.423Z" style="fill:white;fill-rule:nonzero;"/>
    <path d="M108.225,31.459C109.682,31.459 110.681,30.908 111.222,29.805C111.763,28.702 112.034,27.476 112.034,26.125C112.034,24.904 111.839,23.911 111.448,23.146C110.83,21.942 109.764,21.34 108.25,21.34C106.907,21.34 105.931,21.852 105.32,22.878C104.71,23.903 104.405,25.14 104.405,26.589C104.405,27.98 104.71,29.14 105.32,30.068C105.931,30.995 106.899,31.459 108.225,31.459ZM108.311,19.423C109.995,19.423 111.42,19.985 112.583,21.108C113.747,22.231 114.329,23.883 114.329,26.064C114.329,28.171 113.816,29.913 112.791,31.288C111.766,32.664 110.175,33.351 108.018,33.351C106.219,33.351 104.791,32.743 103.733,31.526C102.675,30.31 102.146,28.676 102.146,26.625C102.146,24.428 102.704,22.678 103.819,21.376C104.934,20.074 106.431,19.423 108.311,19.423Z" style="fill:white;fill-rule:nonzero;"/>
    <path d="M116.941,19.802L119.114,19.802L119.114,21.657C119.635,21.014 120.107,20.546 120.53,20.253C121.254,19.757 122.076,19.509 122.996,19.509C124.038,19.509 124.876,19.765 125.511,20.278C125.869,20.571 126.194,21.002 126.487,21.572C126.975,20.872 127.549,20.353 128.208,20.015C128.868,19.677 129.608,19.509 130.43,19.509C132.188,19.509 133.384,20.143 134.019,21.413C134.361,22.096 134.532,23.016 134.532,24.172L134.532,32.875L132.249,32.875L132.249,23.793C132.249,22.922 132.031,22.324 131.596,21.999C131.16,21.673 130.629,21.511 130.003,21.511C129.14,21.511 128.398,21.799 127.775,22.377C127.152,22.955 126.841,23.919 126.841,25.27L126.841,32.875L124.607,32.875L124.607,24.343C124.607,23.455 124.502,22.809 124.29,22.402C123.956,21.791 123.334,21.486 122.422,21.486C121.592,21.486 120.837,21.808 120.158,22.45C119.478,23.093 119.139,24.257 119.139,25.942L119.139,32.875L116.941,32.875L116.941,19.802Z" style="fill:white;fill-rule:nonzero;"/>
    <path d="M137.766,19.802L139.939,19.802L139.939,21.657C140.46,21.014 140.932,20.546 141.355,20.253C142.08,19.757 142.902,19.509 143.821,19.509C144.863,19.509 145.701,19.765 146.336,20.278C146.694,20.571 147.019,21.002 147.312,21.572C147.801,20.872 148.374,20.353 149.034,20.015C149.693,19.677 150.433,19.509 151.255,19.509C153.013,19.509 154.209,20.143 154.844,21.413C155.186,22.096 155.357,23.016 155.357,24.172L155.357,32.875L153.074,32.875L153.074,23.793C153.074,22.922 152.856,22.324 152.421,21.999C151.986,21.673 151.455,21.511 150.828,21.511C149.965,21.511 149.223,21.799 148.6,22.377C147.978,22.955 147.666,23.919 147.666,25.27L147.666,32.875L145.433,32.875L145.433,24.343C145.433,23.455 145.327,22.809 145.115,22.402C144.781,21.791 144.159,21.486 143.247,21.486C142.417,21.486 141.663,21.808 140.983,22.45C140.304,23.093 139.964,24.257 139.964,25.942L139.964,32.875L137.766,32.875L137.766,19.802Z" style="fill:white;fill-rule:nonzero;"/>
    <path d="M164.036,19.509C164.964,19.509 165.863,19.726 166.734,20.162C167.605,20.597 168.268,21.161 168.724,21.852C169.163,22.511 169.456,23.281 169.602,24.159C169.733,24.762 169.798,25.722 169.798,27.04L160.215,27.04C160.256,28.367 160.569,29.431 161.155,30.232C161.741,31.034 162.648,31.435 163.877,31.435C165.025,31.435 165.94,31.056 166.624,30.3C167.015,29.86 167.291,29.351 167.454,28.774L169.615,28.774C169.558,29.254 169.368,29.789 169.047,30.379C168.726,30.969 168.365,31.451 167.967,31.825C167.299,32.476 166.473,32.916 165.489,33.144C164.96,33.274 164.362,33.339 163.694,33.339C162.067,33.339 160.687,32.747 159.556,31.563C158.425,30.379 157.859,28.721 157.859,26.589C157.859,24.489 158.429,22.784 159.568,21.474C160.708,20.164 162.197,19.509 164.036,19.509ZM167.539,25.295C167.45,24.343 167.242,23.582 166.917,23.012C166.315,21.954 165.31,21.425 163.902,21.425C162.893,21.425 162.046,21.789 161.363,22.518C160.679,23.246 160.317,24.172 160.276,25.295L167.539,25.295Z" style="fill:white;fill-rule:nonzero;"/>
    <path d="M172.495,19.802L174.583,19.802L174.583,21.657C175.201,20.892 175.857,20.343 176.548,20.009C177.24,19.675 178.009,19.509 178.855,19.509C180.711,19.509 181.964,20.156 182.615,21.449C182.973,22.157 183.152,23.171 183.152,24.489L183.152,32.875L180.918,32.875L180.918,24.636C180.918,23.838 180.8,23.195 180.564,22.707C180.174,21.893 179.466,21.486 178.44,21.486C177.919,21.486 177.492,21.539 177.159,21.645C176.556,21.824 176.027,22.182 175.572,22.719C175.205,23.15 174.967,23.596 174.858,24.056C174.748,24.515 174.693,25.173 174.693,26.027L174.693,32.875L172.495,32.875L172.495,19.802Z" style="fill:white;fill-rule:nonzero;"/>
    <path d="M187.791,26.491C187.791,27.891 188.088,29.063 188.682,30.007C189.276,30.951 190.228,31.423 191.538,31.423C192.556,31.423 193.392,30.985 194.047,30.11C194.702,29.236 195.03,27.98 195.03,26.344C195.03,24.692 194.692,23.47 194.016,22.676C193.341,21.883 192.507,21.486 191.514,21.486C190.407,21.486 189.51,21.909 188.822,22.756C188.135,23.602 187.791,24.847 187.791,26.491ZM191.099,19.57C192.1,19.57 192.938,19.781 193.614,20.204C194.004,20.448 194.448,20.876 194.944,21.486L194.944,14.882L197.056,14.882L197.056,32.875L195.079,32.875L195.079,31.056C194.566,31.862 193.96,32.444 193.26,32.802C192.56,33.16 191.758,33.339 190.855,33.339C189.398,33.339 188.137,32.727 187.071,31.502C186.005,30.277 185.472,28.648 185.472,26.613C185.472,24.709 185.958,23.059 186.93,21.663C187.903,20.267 189.292,19.57 191.099,19.57Z" style="fill:white;fill-rule:nonzero;"/>
    <path d="M201.988,29.396C201.988,30.031 202.22,30.531 202.683,30.898C203.147,31.264 203.697,31.447 204.331,31.447C205.105,31.447 205.853,31.268 206.578,30.91C207.798,30.316 208.409,29.343 208.409,27.992L208.409,26.222C208.14,26.393 207.794,26.536 207.371,26.65C206.948,26.764 206.533,26.845 206.126,26.894L204.795,27.065C203.998,27.17 203.4,27.337 203.001,27.565C202.325,27.948 201.988,28.558 201.988,29.396ZM207.31,24.953C207.815,24.888 208.152,24.676 208.323,24.318C208.421,24.123 208.47,23.842 208.47,23.476C208.47,22.727 208.203,22.184 207.67,21.846C207.137,21.508 206.374,21.34 205.381,21.34C204.234,21.34 203.42,21.649 202.94,22.267C202.671,22.609 202.496,23.118 202.415,23.793L200.364,23.793C200.405,22.182 200.928,21.061 201.933,20.43C202.938,19.799 204.104,19.484 205.43,19.484C206.968,19.484 208.217,19.777 209.178,20.363C210.13,20.949 210.606,21.86 210.606,23.097L210.606,30.629C210.606,30.857 210.653,31.04 210.746,31.178C210.84,31.317 211.037,31.386 211.338,31.386C211.436,31.386 211.546,31.38 211.668,31.368C211.79,31.355 211.92,31.337 212.058,31.313L212.058,32.936C211.717,33.034 211.456,33.095 211.277,33.119C211.098,33.144 210.854,33.156 210.545,33.156C209.788,33.156 209.239,32.887 208.897,32.35C208.718,32.066 208.592,31.663 208.518,31.142C208.071,31.728 207.428,32.236 206.59,32.668C205.752,33.099 204.828,33.315 203.819,33.315C202.606,33.315 201.615,32.946 200.846,32.21C200.077,31.473 199.693,30.552 199.693,29.445C199.693,28.233 200.071,27.293 200.828,26.625C201.585,25.958 202.578,25.547 203.807,25.392L207.31,24.953Z" style="fill:white;fill-rule:nonzero;"/>
    <path d="M214.646,16.152L216.868,16.152L216.868,19.802L218.955,19.802L218.955,21.596L216.868,21.596L216.868,30.129C216.868,30.584 217.023,30.89 217.332,31.044C217.503,31.134 217.788,31.178 218.186,31.178C218.292,31.178 218.406,31.176 218.528,31.172C218.65,31.168 218.793,31.158 218.955,31.142L218.955,32.875C218.703,32.948 218.441,33.001 218.168,33.034C217.895,33.066 217.6,33.083 217.283,33.083C216.258,33.083 215.562,32.82 215.196,32.295C214.829,31.771 214.646,31.089 214.646,30.251L214.646,21.596L212.876,21.596L212.876,19.802L214.646,19.802L214.646,16.152Z" style="fill:white;fill-rule:nonzero;"/>
    <path d="M221.153,19.863L223.387,19.863L223.387,32.875L221.153,32.875L221.153,19.863ZM221.153,14.943L223.387,14.943L223.387,17.433L221.153,17.433L221.153,14.943Z" style="fill:white;fill-rule:nonzero;"/>
    <path d="M231.895,31.459C233.352,31.459 234.351,30.908 234.892,29.805C235.433,28.702 235.704,27.476 235.704,26.125C235.704,24.904 235.508,23.911 235.118,23.146C234.499,21.942 233.433,21.34 231.919,21.34C230.577,21.34 229.6,21.852 228.99,22.878C228.379,23.903 228.074,25.14 228.074,26.589C228.074,27.98 228.379,29.14 228.99,30.068C229.6,30.995 230.568,31.459 231.895,31.459ZM231.98,19.423C233.665,19.423 235.089,19.985 236.253,21.108C237.417,22.231 237.998,23.883 237.998,26.064C237.998,28.171 237.486,29.913 236.46,31.288C235.435,32.664 233.844,33.351 231.687,33.351C229.889,33.351 228.461,32.743 227.403,31.526C226.345,30.31 225.816,28.676 225.816,26.625C225.816,24.428 226.373,22.678 227.488,21.376C228.603,20.074 230.1,19.423 231.98,19.423Z" style="fill:white;fill-rule:nonzero;"/>
    <path d="M240.611,19.802L242.698,19.802L242.698,21.657C243.317,20.892 243.972,20.343 244.663,20.009C245.355,19.675 246.124,19.509 246.971,19.509C248.826,19.509 250.079,20.156 250.73,21.449C251.088,22.157 251.267,23.171 251.267,24.489L251.267,32.875L249.034,32.875L249.034,24.636C249.034,23.838 248.916,23.195 248.68,22.707C248.289,21.893 247.581,21.486 246.556,21.486C246.035,21.486 245.607,21.539 245.274,21.645C244.672,21.824 244.143,22.182 243.687,22.719C243.321,23.15 243.083,23.596 242.973,24.056C242.863,24.515 242.808,25.173 242.808,26.027L242.808,32.875L240.611,32.875L240.611,19.802Z" style="fill:white;fill-rule:nonzero;"/>
    <path d="M255.821,28.774C255.886,29.506 256.069,30.068 256.37,30.458C256.923,31.166 257.884,31.52 259.251,31.52C260.065,31.52 260.781,31.343 261.399,30.989C262.018,30.635 262.327,30.088 262.327,29.347C262.327,28.786 262.079,28.359 261.582,28.066C261.265,27.887 260.638,27.679 259.703,27.443L257.957,27.004C256.842,26.727 256.02,26.418 255.491,26.076C254.547,25.482 254.075,24.66 254.075,23.61C254.075,22.373 254.521,21.372 255.412,20.607C256.303,19.842 257.501,19.46 259.007,19.46C260.976,19.46 262.396,20.038 263.267,21.193C263.812,21.926 264.077,22.715 264.06,23.561L261.985,23.561C261.945,23.065 261.77,22.613 261.46,22.206C260.956,21.629 260.081,21.34 258.836,21.34C258.006,21.34 257.377,21.498 256.95,21.816C256.523,22.133 256.309,22.552 256.309,23.073C256.309,23.643 256.59,24.098 257.151,24.44C257.477,24.644 257.957,24.823 258.592,24.977L260.044,25.331C261.623,25.714 262.681,26.084 263.218,26.442C264.073,27.004 264.5,27.887 264.5,29.091C264.5,30.255 264.058,31.26 263.175,32.106C262.292,32.953 260.948,33.376 259.141,33.376C257.196,33.376 255.819,32.934 255.009,32.051C254.199,31.168 253.766,30.076 253.709,28.774L255.821,28.774Z" style="fill:white;fill-rule:nonzero;"/>
</svg>
