<?xml version="1.0" encoding="UTF-8" standalone="no"?>
<!DOCTYPE svg PUBLIC "-//W3C//DTD SVG 1.1//EN" "http://www.w3.org/Graphics/SVG/1.1/DTD/svg11.dtd">
<svg width="100%" height="100%" viewBox="0 0 462 391" version="1.1" xmlns="http://www.w3.org/2000/svg" xmlns:xlink="http://www.w3.org/1999/xlink" xml:space="preserve" xmlns:serif="http://www.serif.com/" style="fill-rule:evenodd;clip-rule:evenodd;stroke-linejoin:round;stroke-miterlimit:2;">
    <g>
        <rect x="0" y="0" width="461.983" height="390.705" style="fill:rgb(85,79,164);"/>
        <path d="M17.513,11.031L19.711,11.031L19.711,17.721C20.232,17.062 20.699,16.598 21.114,16.329C21.823,15.865 22.705,15.634 23.763,15.634C25.66,15.634 26.945,16.297 27.621,17.623C27.987,18.348 28.17,19.353 28.17,20.638L28.17,29.025L25.912,29.025L25.912,20.785C25.912,19.825 25.79,19.121 25.546,18.673C25.147,17.957 24.398,17.599 23.3,17.599C22.388,17.599 21.562,17.912 20.822,18.539C20.081,19.165 19.711,20.349 19.711,22.091L19.711,29.025L17.513,29.025L17.513,11.031Z" style="fill:white;fill-rule:nonzero;stroke:white;stroke-width:1px;"/>
        <path d="M36.862,15.658C37.789,15.658 38.689,15.876 39.559,16.311C40.43,16.746 41.093,17.31 41.549,18.002C41.989,18.661 42.281,19.43 42.428,20.309C42.558,20.911 42.623,21.871 42.623,23.19L33.041,23.19C33.081,24.516 33.395,25.58 33.981,26.382C34.567,27.183 35.474,27.584 36.703,27.584C37.85,27.584 38.766,27.206 39.449,26.449C39.84,26.009 40.117,25.501 40.28,24.923L42.44,24.923C42.383,25.403 42.194,25.938 41.873,26.528C41.551,27.118 41.191,27.6 40.792,27.975C40.125,28.626 39.299,29.065 38.314,29.293C37.785,29.423 37.187,29.488 36.52,29.488C34.892,29.488 33.513,28.896 32.382,27.712C31.25,26.528 30.685,24.87 30.685,22.738C30.685,20.638 31.254,18.933 32.394,17.623C33.533,16.313 35.022,15.658 36.862,15.658ZM40.365,21.444C40.275,20.492 40.068,19.731 39.742,19.161C39.14,18.103 38.135,17.574 36.727,17.574C35.718,17.574 34.872,17.939 34.188,18.667C33.505,19.395 33.142,20.321 33.102,21.444L40.365,21.444Z" style="fill:white;fill-rule:nonzero;stroke:white;stroke-width:1px;"/>
        <path d="M47.006,25.546C47.006,26.18 47.238,26.681 47.701,27.047C48.165,27.413 48.715,27.596 49.349,27.596C50.122,27.596 50.871,27.417 51.595,27.059C52.816,26.465 53.427,25.493 53.427,24.142L53.427,22.372C53.158,22.543 52.812,22.685 52.389,22.799C51.966,22.913 51.551,22.994 51.144,23.043L49.813,23.214C49.016,23.32 48.418,23.487 48.019,23.715C47.343,24.097 47.006,24.707 47.006,25.546ZM52.328,21.102C52.832,21.037 53.17,20.826 53.341,20.467C53.439,20.272 53.488,19.991 53.488,19.625C53.488,18.877 53.221,18.333 52.688,17.996C52.155,17.658 51.392,17.489 50.399,17.489C49.252,17.489 48.438,17.798 47.958,18.417C47.689,18.759 47.514,19.267 47.433,19.943L45.382,19.943C45.423,18.331 45.946,17.21 46.951,16.58C47.956,15.949 49.121,15.634 50.448,15.634C51.986,15.634 53.235,15.926 54.196,16.512C55.148,17.098 55.624,18.01 55.624,19.247L55.624,26.779C55.624,27.006 55.671,27.189 55.764,27.328C55.858,27.466 56.055,27.535 56.356,27.535C56.454,27.535 56.564,27.529 56.686,27.517C56.808,27.505 56.938,27.487 57.076,27.462L57.076,29.086C56.735,29.183 56.474,29.244 56.295,29.269C56.116,29.293 55.872,29.305 55.563,29.305C54.806,29.305 54.257,29.037 53.915,28.5C53.736,28.215 53.61,27.812 53.536,27.291C53.089,27.877 52.446,28.386 51.608,28.817C50.769,29.248 49.846,29.464 48.837,29.464C47.624,29.464 46.633,29.096 45.864,28.359C45.095,27.623 44.711,26.701 44.711,25.594C44.711,24.382 45.089,23.442 45.846,22.775C46.603,22.107 47.596,21.696 48.824,21.542L52.328,21.102Z" style="fill:white;fill-rule:nonzero;stroke:white;stroke-width:1px;"/>
        <path d="M59.664,12.301L61.886,12.301L61.886,15.951L63.973,15.951L63.973,17.745L61.886,17.745L61.886,26.278C61.886,26.734 62.041,27.039 62.35,27.194C62.521,27.283 62.806,27.328 63.204,27.328C63.31,27.328 63.424,27.326 63.546,27.322C63.668,27.318 63.811,27.307 63.973,27.291L63.973,29.025C63.721,29.098 63.459,29.151 63.186,29.183C62.913,29.216 62.618,29.232 62.301,29.232C61.276,29.232 60.58,28.97 60.214,28.445C59.847,27.92 59.664,27.238 59.664,26.4L59.664,17.745L57.894,17.745L57.894,15.951L59.664,15.951L59.664,12.301Z" style="fill:white;fill-rule:nonzero;stroke:white;stroke-width:1px;"/>
        <path d="M66.171,16.012L68.405,16.012L68.405,29.025L66.171,29.025L66.171,16.012ZM66.171,11.092L68.405,11.092L68.405,13.583L66.171,13.583L66.171,11.092Z" style="fill:white;fill-rule:nonzero;stroke:white;stroke-width:1px;"/>
        <path d="M71.725,15.951L73.812,15.951L73.812,17.806C74.431,17.041 75.086,16.492 75.778,16.158C76.469,15.825 77.238,15.658 78.085,15.658C79.94,15.658 81.193,16.305 81.844,17.599C82.203,18.307 82.382,19.32 82.382,20.638L82.382,29.025L80.148,29.025L80.148,20.785C80.148,19.987 80.03,19.344 79.794,18.856C79.403,18.042 78.695,17.635 77.67,17.635C77.149,17.635 76.722,17.688 76.388,17.794C75.786,17.973 75.257,18.331 74.801,18.868C74.435,19.3 74.197,19.745 74.087,20.205C73.977,20.665 73.922,21.322 73.922,22.176L73.922,29.025L71.725,29.025L71.725,15.951Z" style="fill:white;fill-rule:nonzero;stroke:white;stroke-width:1px;"/>
        <path d="M90.243,15.719C91.268,15.719 92.163,15.971 92.928,16.476C93.344,16.761 93.767,17.176 94.198,17.721L94.198,16.073L96.224,16.073L96.224,27.963C96.224,29.623 95.98,30.933 95.492,31.893C94.58,33.667 92.859,34.554 90.328,34.554C88.92,34.554 87.736,34.239 86.776,33.608C85.816,32.978 85.279,31.991 85.165,30.648L87.399,30.648C87.504,31.234 87.716,31.686 88.033,32.003C88.53,32.491 89.311,32.736 90.377,32.736C92.062,32.736 93.164,32.141 93.685,30.953C93.995,30.253 94.137,29.004 94.113,27.206C93.673,27.873 93.144,28.37 92.526,28.695C91.907,29.021 91.089,29.183 90.072,29.183C88.656,29.183 87.417,28.681 86.355,27.676C85.293,26.671 84.762,25.009 84.762,22.689C84.762,20.5 85.297,18.791 86.367,17.562C87.437,16.333 88.729,15.719 90.243,15.719ZM94.198,22.433C94.198,20.813 93.864,19.613 93.197,18.832C92.53,18.05 91.679,17.66 90.646,17.66C89.1,17.66 88.042,18.384 87.472,19.833C87.171,20.606 87.02,21.619 87.02,22.872C87.02,24.345 87.319,25.466 87.917,26.235C88.516,27.004 89.319,27.389 90.328,27.389C91.907,27.389 93.018,26.677 93.661,25.253C94.019,24.447 94.198,23.507 94.198,22.433Z" style="fill:white;fill-rule:nonzero;stroke:white;stroke-width:1px;"/>
        <path d="M54.449,207.311C90.621,142.562 158.569,98.914 236.356,98.914C314.144,98.914 382.092,142.562 418.264,207.311L385.68,235.18C357.726,179.652 301.322,141.67 236.356,141.67C171.391,141.67 114.987,179.652 87.033,235.18L54.449,207.311Z" style="fill:none;stroke:white;stroke-width:3.75px;stroke-linecap:round;stroke-miterlimit:1.5;"/>
        <path d="M191.116,103.954L201.323,145.437C176.2,150.923 153.145,162.189 133.543,177.811L106.412,145.351C130.835,125.481 159.652,111.082 191.116,103.954Z" style="fill:rgb(0,157,166);stroke:white;stroke-width:3.75px;stroke-linecap:round;stroke-miterlimit:1.5;"/>
        <path d="M277.839,103.141C309.742,109.733 339.037,123.784 363.931,143.451L336.776,175.938C316.708,160.527 293.186,149.615 267.622,144.661L277.839,103.141Z" style="fill:rgb(255,80,32);stroke:white;stroke-width:3.75px;stroke-linecap:round;stroke-miterlimit:1.5;"/>
        <path d="M191.132,103.951C205.695,100.653 220.83,98.914 236.356,98.914C250.358,98.914 264.041,100.328 277.282,103.026L268.058,144.746C257.791,142.727 247.193,141.67 236.356,141.67C224.37,141.67 212.675,142.963 201.396,145.421L191.132,103.951Z" style="fill:rgb(213,225,0);stroke:white;stroke-width:3.75px;stroke-linecap:round;stroke-miterlimit:1.5;"/>
        <path d="M227.847,87.693C228.073,81.964 232.622,77.384 238.194,77.384C243.765,77.384 248.314,81.964 248.54,87.693L248.549,87.693L275.752,240.823C276.52,243.433 277.013,246.158 277.199,248.965L277.282,249.433L277.227,249.433C277.263,250.112 277.282,250.797 277.282,251.485C277.282,272.676 259.767,289.879 238.194,289.879C216.62,289.879 199.105,272.676 199.105,251.485C199.105,250.797 199.124,250.112 199.16,249.433L199.105,249.433L199.188,248.965C199.374,246.159 199.867,243.434 200.635,240.823L227.847,87.693Z" style="fill:rgb(38,35,62);stroke:white;stroke-width:3.75px;stroke-linecap:round;stroke-miterlimit:1.5;"/>
        <ellipse cx="238.194" cy="250.86" rx="18.716" ry="19.076" style="fill:none;stroke:white;stroke-width:3.75px;stroke-linecap:round;stroke-miterlimit:1.5;"/>
        <path d="M45.471,201.185L93.836,241.408L84.565,252.556L36.2,212.333L45.471,201.185Z" style="fill:none;stroke:white;stroke-width:3.75px;stroke-linecap:round;stroke-miterlimit:1.5;"/>
        <path d="M424.752,201.572L376.387,241.795L385.658,252.943L434.023,212.719L424.752,201.572Z" style="fill:none;stroke:white;stroke-width:3.75px;stroke-linecap:round;stroke-miterlimit:1.5;"/>
    </g>
</svg>
