<?xml version="1.0" encoding="UTF-8" standalone="no"?>
<!DOCTYPE svg PUBLIC "-//W3C//DTD SVG 1.1//EN" "http://www.w3.org/Graphics/SVG/1.1/DTD/svg11.dtd">
<svg width="100%" height="100%" viewBox="0 0 462 392" version="1.1" xmlns="http://www.w3.org/2000/svg" xmlns:xlink="http://www.w3.org/1999/xlink" xml:space="preserve" xmlns:serif="http://www.serif.com/" style="fill-rule:evenodd;clip-rule:evenodd;stroke-linecap:round;stroke-linejoin:round;stroke-miterlimit:1.5;">
    <rect x="0" y="0" width="461.983" height="391.731" style="fill:rgb(85,79,164);"/>
    <path d="M25.446,20.01C25.478,19.098 25.637,18.431 25.922,18.008C26.435,17.259 27.423,16.885 28.888,16.885C29.027,16.885 29.169,16.889 29.315,16.897C29.462,16.905 29.629,16.917 29.816,16.934L29.816,18.936C29.588,18.919 29.423,18.909 29.322,18.905C29.22,18.901 29.124,18.899 29.035,18.899C28.367,18.899 27.969,19.072 27.838,19.418C27.708,19.764 27.643,20.645 27.643,22.061L29.816,22.061L29.816,23.794L27.619,23.794L27.619,35.073L25.446,35.073L25.446,23.794L23.627,23.794L23.627,22.061L25.446,22.061L25.446,20.01ZM31.928,19.631L31.928,17.141L34.125,17.141L34.125,19.631L31.928,19.631ZM31.928,22.061L34.125,22.061L34.125,35.073L31.928,35.073L31.928,22.061Z" style="fill:white;fill-rule:nonzero;"/>
    <rect x="37.458" y="17.141" width="2.197" height="17.932" style="fill:white;fill-rule:nonzero;"/>
    <path d="M42.951,22L45.124,22L45.124,23.855C45.644,23.212 46.116,22.744 46.54,22.451C47.264,21.955 48.086,21.707 49.005,21.707C50.047,21.707 50.885,21.963 51.52,22.476C51.878,22.769 52.204,23.2 52.497,23.77C52.985,23.07 53.559,22.551 54.218,22.213C54.877,21.875 55.618,21.707 56.439,21.707C58.197,21.707 59.394,22.341 60.028,23.611C60.37,24.294 60.541,25.214 60.541,26.37L60.541,35.073L58.258,35.073L58.258,25.991C58.258,25.12 58.041,24.522 57.605,24.197C57.17,23.871 56.639,23.709 56.012,23.709C55.15,23.709 54.407,23.997 53.784,24.575C53.162,25.153 52.851,26.117 52.851,27.468L52.851,35.073L50.617,35.073L50.617,26.541C50.617,25.654 50.511,25.007 50.299,24.6C49.966,23.989 49.343,23.684 48.432,23.684C47.602,23.684 46.847,24.006 46.167,24.648C45.488,25.291 45.148,26.455 45.148,28.14L45.148,35.073L42.951,35.073L42.951,22Z" style="fill:white;fill-rule:nonzero;"/>
    <rect x="70.783" y="17.141" width="2.197" height="17.932" style="fill:white;fill-rule:nonzero;"/>
    <path d="M76.276,22.061L78.51,22.061L78.51,35.073L76.276,35.073L76.276,22.061ZM76.276,17.141L78.51,17.141L78.51,19.631L76.276,19.631L76.276,17.141Z" style="fill:white;fill-rule:nonzero;"/>
    <path d="M81.659,17.08L83.795,17.08L83.795,23.586C84.276,22.96 84.849,22.482 85.517,22.152C86.184,21.823 86.908,21.658 87.689,21.658C89.317,21.658 90.637,22.217 91.651,23.336C92.664,24.455 93.17,26.105 93.17,28.286C93.17,30.353 92.67,32.07 91.669,33.438C90.668,34.805 89.28,35.488 87.506,35.488C86.514,35.488 85.675,35.248 84.992,34.768C84.585,34.483 84.149,34.028 83.686,33.401L83.686,35.073L81.659,35.073L81.659,17.08ZM87.372,33.547C88.56,33.547 89.449,33.075 90.039,32.131C90.629,31.187 90.924,29.942 90.924,28.396C90.924,27.021 90.629,25.881 90.039,24.978C89.449,24.075 88.581,23.623 87.433,23.623C86.432,23.623 85.555,23.993 84.803,24.734C84.05,25.474 83.673,26.695 83.673,28.396C83.673,29.625 83.828,30.622 84.137,31.387C84.715,32.827 85.793,33.547 87.372,33.547Z" style="fill:white;fill-rule:nonzero;"/>
    <path d="M95.795,22L97.882,22L97.882,24.258C98.053,23.818 98.472,23.283 99.14,22.653C99.807,22.022 100.576,21.707 101.447,21.707C101.487,21.707 101.557,21.711 101.654,21.719C101.752,21.727 101.919,21.743 102.155,21.768L102.155,24.087C102.025,24.063 101.905,24.046 101.795,24.038C101.685,24.03 101.565,24.026 101.435,24.026C100.328,24.026 99.477,24.382 98.883,25.094C98.289,25.806 97.992,26.626 97.992,27.554L97.992,35.073L95.795,35.073L95.795,22Z" style="fill:white;fill-rule:nonzero;"/>
    <path d="M105.744,31.594C105.744,32.229 105.976,32.73 106.439,33.096C106.903,33.462 107.453,33.645 108.087,33.645C108.861,33.645 109.609,33.466 110.334,33.108C111.554,32.514 112.165,31.541 112.165,30.19L112.165,28.42C111.896,28.591 111.55,28.734 111.127,28.848C110.704,28.962 110.289,29.043 109.882,29.092L108.551,29.263C107.754,29.369 107.156,29.535 106.757,29.763C106.081,30.146 105.744,30.756 105.744,31.594ZM111.066,27.151C111.57,27.086 111.908,26.874 112.079,26.516C112.177,26.321 112.226,26.04 112.226,25.674C112.226,24.925 111.959,24.382 111.426,24.044C110.893,23.707 110.13,23.538 109.137,23.538C107.99,23.538 107.176,23.847 106.696,24.465C106.427,24.807 106.252,25.316 106.171,25.991L104.12,25.991C104.161,24.38 104.684,23.259 105.689,22.628C106.694,21.998 107.86,21.682 109.186,21.682C110.724,21.682 111.973,21.975 112.934,22.561C113.886,23.147 114.362,24.058 114.362,25.295L114.362,32.827C114.362,33.055 114.409,33.238 114.502,33.377C114.596,33.515 114.793,33.584 115.094,33.584C115.192,33.584 115.302,33.578 115.424,33.566C115.546,33.554 115.676,33.535 115.814,33.511L115.814,35.134C115.473,35.232 115.212,35.293 115.033,35.317C114.854,35.342 114.61,35.354 114.301,35.354C113.544,35.354 112.995,35.085 112.653,34.548C112.474,34.264 112.348,33.861 112.274,33.34C111.827,33.926 111.184,34.434 110.346,34.866C109.508,35.297 108.584,35.513 107.575,35.513C106.362,35.513 105.371,35.144 104.602,34.408C103.833,33.672 103.449,32.75 103.449,31.643C103.449,30.431 103.827,29.491 104.584,28.823C105.341,28.156 106.334,27.745 107.563,27.59L111.066,27.151Z" style="fill:white;fill-rule:nonzero;"/>
    <path d="M118.024,22L120.111,22L120.111,24.258C120.282,23.818 120.701,23.283 121.369,22.653C122.036,22.022 122.805,21.707 123.676,21.707C123.716,21.707 123.786,21.711 123.883,21.719C123.981,21.727 124.148,21.743 124.384,21.768L124.384,24.087C124.254,24.063 124.134,24.046 124.024,24.038C123.914,24.03 123.794,24.026 123.664,24.026C122.557,24.026 121.706,24.382 121.112,25.094C120.518,25.806 120.221,26.626 120.221,27.554L120.221,35.073L118.024,35.073L118.024,22Z" style="fill:white;fill-rule:nonzero;"/>
    <path d="M134.455,22L136.884,22C136.575,22.838 135.887,24.75 134.821,27.737C134.023,29.983 133.356,31.814 132.819,33.23C131.549,36.567 130.654,38.601 130.133,39.334C129.612,40.066 128.717,40.432 127.448,40.432C127.139,40.432 126.9,40.42 126.734,40.396C126.567,40.371 126.361,40.326 126.117,40.261L126.117,38.259C126.5,38.365 126.776,38.43 126.947,38.455C127.118,38.479 127.269,38.491 127.399,38.491C127.806,38.491 128.105,38.424 128.296,38.29C128.487,38.156 128.648,37.991 128.778,37.795C128.819,37.73 128.966,37.397 129.218,36.794C129.47,36.192 129.653,35.745 129.767,35.452L124.933,22L127.423,22L130.927,32.644L134.455,22Z" style="fill:white;fill-rule:nonzero;"/>
    <path d="M147.04,30.972C147.105,31.704 147.288,32.266 147.589,32.656C148.143,33.364 149.103,33.718 150.47,33.718C151.284,33.718 152,33.541 152.619,33.187C153.237,32.833 153.546,32.286 153.546,31.545C153.546,30.984 153.298,30.557 152.802,30.264C152.484,30.085 151.858,29.877 150.922,29.641L149.176,29.202C148.061,28.925 147.239,28.616 146.71,28.274C145.766,27.68 145.294,26.858 145.294,25.808C145.294,24.571 145.74,23.57 146.631,22.805C147.522,22.04 148.721,21.658 150.226,21.658C152.195,21.658 153.616,22.236 154.486,23.391C155.032,24.124 155.296,24.913 155.28,25.759L153.205,25.759C153.164,25.263 152.989,24.811 152.68,24.404C152.175,23.827 151.3,23.538 150.055,23.538C149.225,23.538 148.596,23.696 148.169,24.014C147.742,24.331 147.528,24.75 147.528,25.271C147.528,25.841 147.809,26.296 148.371,26.638C148.696,26.842 149.176,27.021 149.811,27.175L151.264,27.529C152.842,27.912 153.9,28.282 154.438,28.64C155.292,29.202 155.719,30.085 155.719,31.289C155.719,32.453 155.278,33.458 154.395,34.304C153.512,35.151 152.167,35.574 150.36,35.574C148.415,35.574 147.038,35.132 146.228,34.249C145.419,33.366 144.985,32.274 144.928,30.972L147.04,30.972Z" style="fill:white;fill-rule:nonzero;"/>
    <path d="M158.234,22.061L160.468,22.061L160.468,35.073L158.234,35.073L158.234,22.061ZM158.234,17.141L160.468,17.141L160.468,19.631L158.234,19.631L158.234,17.141Z" style="fill:white;fill-rule:nonzero;"/>
    <path d="M162.812,33.34L170.563,23.965L163.385,23.965L163.385,22L173.517,22L173.517,23.794L165.814,33.108L173.749,33.108L173.749,35.073L162.812,35.073L162.812,33.34Z" style="fill:white;fill-rule:nonzero;"/>
    <path d="M181.732,21.707C182.66,21.707 183.559,21.924 184.43,22.36C185.301,22.795 185.964,23.359 186.42,24.05C186.859,24.71 187.152,25.479 187.299,26.357C187.429,26.96 187.494,27.92 187.494,29.238L177.912,29.238C177.952,30.565 178.266,31.629 178.852,32.43C179.438,33.232 180.345,33.633 181.574,33.633C182.721,33.633 183.637,33.254 184.32,32.498C184.711,32.058 184.988,31.55 185.15,30.972L187.311,30.972C187.254,31.452 187.065,31.987 186.743,32.577C186.422,33.167 186.062,33.649 185.663,34.023C184.996,34.675 184.17,35.114 183.185,35.342C182.656,35.472 182.058,35.537 181.391,35.537C179.763,35.537 178.384,34.945 177.252,33.761C176.121,32.577 175.556,30.919 175.556,28.787C175.556,26.687 176.125,24.982 177.265,23.672C178.404,22.362 179.893,21.707 181.732,21.707ZM185.236,27.493C185.146,26.541 184.939,25.78 184.613,25.21C184.011,24.152 183.006,23.623 181.598,23.623C180.589,23.623 179.743,23.987 179.059,24.716C178.376,25.444 178.013,26.37 177.973,27.493L185.236,27.493Z" style="fill:white;fill-rule:nonzero;"/>
    <path d="M51.984,219.043C88.155,154.294 156.103,110.646 233.891,110.646C311.679,110.646 379.627,154.294 415.799,219.043L383.215,246.912C355.26,191.384 298.857,153.402 233.891,153.402C168.925,153.402 112.522,191.384 84.568,246.912L51.984,219.043Z" style="fill:none;stroke:white;stroke-width:3.75px;"/>
    <path d="M188.651,115.686L198.858,157.169C173.735,162.655 150.679,173.921 131.078,189.543L103.947,157.083C128.369,137.213 157.187,122.814 188.651,115.686Z" style="fill:rgb(255,80,32);stroke:white;stroke-width:3.75px;"/>
    <path d="M275.373,114.872C307.277,121.465 336.572,135.515 361.465,155.183L334.311,187.67C314.243,172.258 290.72,161.347 265.157,156.392L275.373,114.872Z" style="fill:rgb(0,157,166);stroke:white;stroke-width:3.75px;"/>
    <path d="M188.666,115.682C203.23,112.385 218.365,110.646 233.891,110.646C247.893,110.646 261.576,112.06 274.816,114.758L265.593,156.478C255.325,154.459 244.727,153.402 233.891,153.402C221.905,153.402 210.21,154.695 198.931,157.153L188.666,115.682Z" style="fill:rgb(213,225,0);stroke:white;stroke-width:3.75px;"/>
    <path d="M305.713,116.054C308.607,111.104 314.776,109.203 319.693,111.823C324.609,114.444 326.469,120.625 323.973,125.787L323.981,125.791L275.955,273.718C275.405,276.382 274.559,279.019 273.402,281.584L273.255,282.035L273.207,282.01C272.919,282.626 272.614,283.239 272.29,283.847C262.322,302.546 238.773,309.489 219.736,299.341C200.698,289.193 193.335,265.772 203.303,247.073C203.627,246.465 203.965,245.87 204.317,245.287L204.268,245.262L204.561,244.888C206.045,242.499 207.762,240.326 209.668,238.383L305.713,116.054Z" style="fill:rgb(38,35,62);stroke:white;stroke-width:3.75px;"/>
    <path d="M247.063,248.075C256.179,252.934 259.559,264.421 254.606,273.712C249.654,283.003 238.232,286.601 229.117,281.742C220.001,276.883 216.622,265.395 221.574,256.104C226.527,246.814 237.948,243.216 247.063,248.075Z" style="fill:none;stroke:white;stroke-width:3.75px;"/>
    <path d="M43.005,212.917L91.371,253.14L82.1,264.288L33.734,224.065L43.005,212.917Z" style="fill:none;stroke:white;stroke-width:3.75px;"/>
    <path d="M422.287,213.303L373.921,253.527L383.192,264.674L431.558,224.451L422.287,213.303Z" style="fill:none;stroke:white;stroke-width:3.75px;"/>
</svg>
