<?xml version="1.0" encoding="UTF-8" standalone="no"?>
<!DOCTYPE svg PUBLIC "-//W3C//DTD SVG 1.1//EN" "http://www.w3.org/Graphics/SVG/1.1/DTD/svg11.dtd">
<svg width="100%" height="100%" viewBox="0 0 462 391" version="1.1" xmlns="http://www.w3.org/2000/svg" xmlns:xlink="http://www.w3.org/1999/xlink" xml:space="preserve" xmlns:serif="http://www.serif.com/" style="fill-rule:evenodd;clip-rule:evenodd;stroke-linecap:round;stroke-linejoin:round;stroke-miterlimit:1.5;">
    <g>
        <rect x="0" y="0" width="461.983" height="390.705" style="fill:rgb(255,80,32);"/>
        <path d="M350.333,165.522C350.333,146.119 334.58,130.367 315.178,130.367C295.776,130.367 280.023,146.119 280.023,165.522L280.023,231.704C280.023,251.106 295.776,266.859 315.178,266.859C334.58,266.859 350.333,251.106 350.333,231.704L350.333,165.522Z" style="fill:rgb(214,226,0);stroke:rgb(38,35,62);stroke-width:3.75px;"/>
        <path d="M265.507,165.522C265.507,146.119 249.754,130.367 230.352,130.367C210.949,130.367 195.197,146.119 195.197,165.522L195.197,231.704C195.197,251.106 210.949,266.859 230.352,266.859C249.754,266.859 265.507,251.106 265.507,231.704L265.507,165.522Z" style="fill:rgb(214,226,0);stroke:rgb(38,35,62);stroke-width:3.75px;"/>
        <path d="M180.68,165.522C180.68,146.119 164.928,130.367 145.526,130.367C126.123,130.367 110.371,146.119 110.371,165.522L110.371,231.704C110.371,251.106 126.123,266.859 145.526,266.859C164.928,266.859 180.68,251.106 180.68,231.704L180.68,165.522Z" style="fill:rgb(214,226,0);stroke:rgb(38,35,62);stroke-width:3.75px;"/>
        <ellipse cx="315.178" cy="162.589" rx="35.155" ry="34.757" style="fill:rgb(255,80,32);stroke:rgb(38,35,62);stroke-width:3.75px;"/>
        <ellipse cx="230.352" cy="232.102" rx="35.155" ry="34.757" style="fill:rgb(255,80,32);stroke:rgb(38,35,62);stroke-width:3.75px;"/>
        <ellipse cx="145.526" cy="162.589" rx="35.155" ry="34.757" style="fill:rgb(255,80,32);stroke:rgb(38,35,62);stroke-width:3.75px;"/>
        <rect x="27.36" y="20.645" width="2.197" height="17.932" style="fill:white;fill-rule:nonzero;"/>
        <path d="M32.853,25.565L35.087,25.565L35.087,38.577L32.853,38.577L32.853,25.565ZM32.853,20.645L35.087,20.645L35.087,23.135L32.853,23.135L32.853,20.645Z" style="fill:white;fill-rule:nonzero;"/>
        <path d="M43.022,25.272C44.047,25.272 44.942,25.524 45.707,26.028C46.122,26.313 46.546,26.728 46.977,27.274L46.977,25.626L49.003,25.626L49.003,37.515C49.003,39.175 48.759,40.486 48.271,41.446C47.359,43.22 45.638,44.107 43.107,44.107C41.699,44.107 40.515,43.792 39.555,43.161C38.595,42.53 38.058,41.544 37.944,40.201L40.178,40.201C40.283,40.787 40.495,41.238 40.812,41.556C41.309,42.044 42.09,42.288 43.156,42.288C44.841,42.288 45.943,41.694 46.464,40.506C46.773,39.806 46.916,38.557 46.891,36.758C46.452,37.426 45.923,37.922 45.304,38.248C44.686,38.573 43.868,38.736 42.851,38.736C41.435,38.736 40.196,38.233 39.134,37.228C38.072,36.223 37.541,34.561 37.541,32.242C37.541,30.053 38.076,28.344 39.146,27.115C40.216,25.886 41.508,25.272 43.022,25.272ZM46.977,31.985C46.977,30.366 46.643,29.166 45.976,28.384C45.309,27.603 44.458,27.213 43.425,27.213C41.878,27.213 40.82,27.937 40.251,29.385C39.95,30.159 39.799,31.172 39.799,32.425C39.799,33.898 40.098,35.019 40.696,35.788C41.294,36.557 42.098,36.942 43.107,36.942C44.686,36.942 45.797,36.229 46.44,34.805C46.798,34 46.977,33.06 46.977,31.985Z" style="fill:white;fill-rule:nonzero;"/>
        <path d="M52.311,20.584L54.509,20.584L54.509,27.274C55.029,26.614 55.497,26.151 55.912,25.882C56.62,25.418 57.503,25.186 58.561,25.186C60.457,25.186 61.743,25.849 62.419,27.176C62.785,27.9 62.968,28.905 62.968,30.191L62.968,38.577L60.71,38.577L60.71,30.338C60.71,29.377 60.588,28.673 60.344,28.226C59.945,27.51 59.196,27.152 58.097,27.152C57.186,27.152 56.36,27.465 55.619,28.091C54.879,28.718 54.509,29.902 54.509,31.644L54.509,38.577L52.311,38.577L52.311,20.584Z" style="fill:white;fill-rule:nonzero;"/>
        <path d="M66.655,21.854L68.876,21.854L68.876,25.504L70.964,25.504L70.964,27.298L68.876,27.298L68.876,35.831C68.876,36.286 69.031,36.592 69.34,36.746C69.511,36.836 69.796,36.881 70.195,36.881C70.3,36.881 70.414,36.878 70.536,36.874C70.658,36.87 70.801,36.86 70.964,36.844L70.964,38.577C70.711,38.651 70.449,38.703 70.176,38.736C69.904,38.769 69.609,38.785 69.291,38.785C68.266,38.785 67.57,38.522 67.204,37.997C66.838,37.473 66.655,36.791 66.655,35.953L66.655,27.298L64.885,27.298L64.885,25.504L66.655,25.504L66.655,21.854Z" style="fill:white;fill-rule:nonzero;"/>
        <path d="M74.467,34.476C74.532,35.208 74.715,35.77 75.016,36.16C75.57,36.868 76.53,37.222 77.897,37.222C78.711,37.222 79.427,37.045 80.046,36.691C80.664,36.337 80.973,35.79 80.973,35.049C80.973,34.488 80.725,34.061 80.229,33.768C79.911,33.589 79.285,33.381 78.349,33.145L76.603,32.706C75.488,32.429 74.666,32.12 74.137,31.778C73.193,31.184 72.721,30.362 72.721,29.312C72.721,28.075 73.167,27.074 74.058,26.309C74.949,25.544 76.148,25.162 77.653,25.162C79.623,25.162 81.043,25.74 81.913,26.895C82.459,27.628 82.723,28.417 82.707,29.263L80.632,29.263C80.591,28.767 80.416,28.315 80.107,27.908C79.602,27.331 78.727,27.042 77.482,27.042C76.652,27.042 76.023,27.2 75.596,27.518C75.169,27.835 74.955,28.254 74.955,28.775C74.955,29.345 75.236,29.8 75.798,30.142C76.123,30.346 76.603,30.525 77.238,30.679L78.691,31.033C80.269,31.416 81.327,31.786 81.865,32.144C82.719,32.706 83.146,33.589 83.146,34.793C83.146,35.957 82.705,36.962 81.822,37.808C80.939,38.655 79.594,39.078 77.787,39.078C75.842,39.078 74.465,38.636 73.655,37.753C72.846,36.87 72.412,35.778 72.355,34.476L74.467,34.476Z" style="fill:white;fill-rule:nonzero;"/>
    </g>
</svg>
