<?xml version="1.0" encoding="UTF-8" standalone="no"?>
<!DOCTYPE svg PUBLIC "-//W3C//DTD SVG 1.1//EN" "http://www.w3.org/Graphics/SVG/1.1/DTD/svg11.dtd">
<svg width="100%" height="100%" viewBox="0 0 462 391" version="1.1" xmlns="http://www.w3.org/2000/svg" xmlns:xlink="http://www.w3.org/1999/xlink" xml:space="preserve" xmlns:serif="http://www.serif.com/" style="fill-rule:evenodd;clip-rule:evenodd;stroke-linecap:round;stroke-linejoin:round;stroke-miterlimit:1.5;">
    <rect x="0" y="0" width="461.983" height="390.599" style="fill:rgb(255,80,32);"/>
    <g>
        <rect x="56.335" y="252.709" width="48.384" height="15.682" style="fill:rgb(214,225,0);stroke:rgb(38,35,62);stroke-width:3.75px;"/>
        <rect x="56.335" y="228.326" width="48.384" height="15.682" style="fill:rgb(214,225,0);stroke:rgb(38,35,62);stroke-width:3.75px;"/>
        <rect x="56.335" y="203.942" width="48.384" height="15.682" style="fill:rgb(214,225,0);stroke:rgb(38,35,62);stroke-width:3.75px;"/>
        <rect x="56.335" y="179.558" width="48.384" height="15.682" style="fill:rgb(214,225,0);stroke:rgb(38,35,62);stroke-width:3.75px;"/>
        <rect x="56.335" y="155.174" width="48.384" height="15.682" style="fill:rgb(214,225,0);stroke:rgb(38,35,62);stroke-width:3.75px;"/>
    </g>
    <g>
        <rect x="117.524" y="252.481" width="48.384" height="15.682" style="fill:rgb(214,225,0);stroke:rgb(38,35,62);stroke-width:3.75px;"/>
        <rect x="117.524" y="228.097" width="48.384" height="15.682" style="fill:rgb(214,225,0);stroke:rgb(38,35,62);stroke-width:3.75px;"/>
        <rect x="117.524" y="203.713" width="48.384" height="15.682" style="fill:rgb(214,225,0);stroke:rgb(38,35,62);stroke-width:3.75px;"/>
    </g>
    <g>
        <rect x="178.713" y="252.253" width="48.384" height="15.682" style="fill:rgb(214,225,0);stroke:rgb(38,35,62);stroke-width:3.75px;"/>
        <rect x="178.713" y="227.869" width="48.384" height="15.682" style="fill:rgb(214,225,0);stroke:rgb(38,35,62);stroke-width:3.75px;"/>
        <rect x="178.713" y="203.485" width="48.384" height="15.682" style="fill:rgb(214,225,0);stroke:rgb(38,35,62);stroke-width:3.75px;"/>
        <rect x="178.713" y="179.101" width="48.384" height="15.682" style="fill:rgb(214,225,0);stroke:rgb(38,35,62);stroke-width:3.75px;"/>
    </g>
    <g>
        <rect x="239.903" y="252.024" width="48.384" height="15.682" style="fill:rgb(214,225,0);stroke:rgb(38,35,62);stroke-width:3.75px;"/>
        <rect x="239.903" y="227.641" width="48.384" height="15.682" style="fill:rgb(214,225,0);stroke:rgb(38,35,62);stroke-width:3.75px;"/>
        <rect x="239.903" y="203.257" width="48.384" height="15.682" style="fill:rgb(214,225,0);stroke:rgb(38,35,62);stroke-width:3.75px;"/>
        <rect x="239.903" y="178.873" width="48.384" height="15.682" style="fill:rgb(214,225,0);stroke:rgb(38,35,62);stroke-width:3.75px;"/>
        <rect x="239.903" y="154.489" width="48.384" height="15.682" style="fill:rgb(214,225,0);stroke:rgb(38,35,62);stroke-width:3.75px;"/>
        <rect x="239.903" y="130.105" width="48.384" height="15.682" style="fill:rgb(214,225,0);stroke:rgb(38,35,62);stroke-width:3.75px;"/>
    </g>
    <g>
        <rect x="301.092" y="251.796" width="48.384" height="15.682" style="fill:rgb(214,225,0);stroke:rgb(38,35,62);stroke-width:3.75px;"/>
        <rect x="301.092" y="227.412" width="48.384" height="15.682" style="fill:rgb(214,225,0);stroke:rgb(38,35,62);stroke-width:3.75px;"/>
    </g>
    <g>
        <rect x="362.281" y="251.568" width="48.384" height="15.682" style="fill:rgb(214,225,0);stroke:rgb(38,35,62);stroke-width:3.75px;"/>
        <rect x="362.281" y="227.184" width="48.384" height="15.682" style="fill:rgb(214,225,0);stroke:rgb(38,35,62);stroke-width:3.75px;"/>
        <rect x="362.281" y="202.8" width="48.384" height="15.682" style="fill:rgb(214,225,0);stroke:rgb(38,35,62);stroke-width:3.75px;"/>
    </g>
    <path d="M21.214,22.298L23.387,22.298L23.387,24.154C23.907,23.511 24.379,23.043 24.803,22.75C25.527,22.253 26.349,22.005 27.268,22.005C28.31,22.005 29.148,22.261 29.783,22.774C30.141,23.067 30.467,23.498 30.76,24.068C31.248,23.368 31.822,22.849 32.481,22.512C33.14,22.174 33.881,22.005 34.703,22.005C36.46,22.005 37.657,22.64 38.291,23.909C38.633,24.593 38.804,25.513 38.804,26.668L38.804,35.372L36.521,35.372L36.521,26.29C36.521,25.419 36.304,24.821 35.868,24.495C35.433,24.17 34.902,24.007 34.275,24.007C33.413,24.007 32.67,24.296 32.048,24.874C31.425,25.452 31.114,26.416 31.114,27.767L31.114,35.372L28.88,35.372L28.88,26.839C28.88,25.952 28.774,25.305 28.562,24.898C28.229,24.288 27.606,23.983 26.695,23.983C25.865,23.983 25.11,24.304 24.43,24.947C23.751,25.59 23.411,26.754 23.411,28.438L23.411,35.372L21.214,35.372L21.214,22.298Z" style="fill:white;fill-rule:nonzero;"/>
    <path d="M44.236,22.298L44.236,30.977C44.236,31.645 44.342,32.19 44.554,32.613C44.944,33.394 45.673,33.785 46.739,33.785C48.269,33.785 49.31,33.101 49.864,31.734C50.165,31.002 50.315,29.997 50.315,28.719L50.315,22.298L52.513,22.298L52.513,35.372L50.437,35.372L50.462,33.443C50.177,33.94 49.823,34.359 49.4,34.7C48.562,35.384 47.544,35.726 46.348,35.726C44.484,35.726 43.215,35.103 42.539,33.858C42.173,33.191 41.99,32.3 41.99,31.185L41.99,22.298L44.236,22.298Z" style="fill:white;fill-rule:nonzero;"/>
    <path d="M57.249,31.27C57.314,32.003 57.497,32.564 57.798,32.955C58.352,33.663 59.312,34.017 60.679,34.017C61.493,34.017 62.209,33.84 62.828,33.486C63.446,33.132 63.755,32.585 63.755,31.844C63.755,31.282 63.507,30.855 63.011,30.562C62.693,30.383 62.067,30.176 61.131,29.94L59.385,29.5C58.27,29.224 57.448,28.914 56.919,28.572C55.975,27.978 55.503,27.156 55.503,26.107C55.503,24.87 55.949,23.869 56.84,23.104C57.731,22.339 58.929,21.956 60.435,21.956C62.404,21.956 63.824,22.534 64.695,23.69C65.24,24.422 65.505,25.211 65.489,26.058L63.413,26.058C63.373,25.561 63.198,25.11 62.889,24.703C62.384,24.125 61.509,23.836 60.264,23.836C59.434,23.836 58.805,23.995 58.378,24.312C57.951,24.63 57.737,25.049 57.737,25.57C57.737,26.139 58.018,26.595 58.579,26.937C58.905,27.14 59.385,27.319 60.02,27.474L61.473,27.828C63.051,28.21 64.109,28.581 64.646,28.939C65.501,29.5 65.928,30.383 65.928,31.588C65.928,32.751 65.487,33.756 64.604,34.603C63.721,35.449 62.376,35.872 60.569,35.872C58.624,35.872 57.247,35.431 56.437,34.548C55.627,33.665 55.194,32.572 55.137,31.27L57.249,31.27Z" style="fill:white;fill-rule:nonzero;"/>
    <path d="M68.443,22.359L70.677,22.359L70.677,35.372L68.443,35.372L68.443,22.359ZM68.443,17.44L70.677,17.44L70.677,19.93L68.443,19.93L68.443,17.44Z" style="fill:white;fill-rule:nonzero;"/>
    <path d="M79.038,21.92C80.511,21.92 81.71,22.278 82.633,22.994C83.557,23.71 84.113,24.943 84.3,26.693L82.163,26.693C82.033,25.887 81.736,25.218 81.272,24.685C80.808,24.151 80.064,23.885 79.038,23.885C77.639,23.885 76.638,24.569 76.036,25.936C75.645,26.823 75.45,27.917 75.45,29.219C75.45,30.53 75.726,31.632 76.28,32.528C76.833,33.423 77.704,33.87 78.892,33.87C79.803,33.87 80.526,33.592 81.059,33.034C81.592,32.477 81.96,31.714 82.163,30.745L84.3,30.745C84.056,32.479 83.445,33.746 82.469,34.548C81.492,35.349 80.243,35.75 78.721,35.75C77.012,35.75 75.649,35.126 74.632,33.876C73.614,32.627 73.106,31.067 73.106,29.195C73.106,26.9 73.663,25.114 74.778,23.836C75.893,22.558 77.313,21.92 79.038,21.92Z" style="fill:white;fill-rule:nonzero;"/>
    <path d="M93.504,22.298L95.591,22.298L95.591,24.556C95.762,24.117 96.181,23.582 96.849,22.951C97.516,22.32 98.285,22.005 99.156,22.005C99.196,22.005 99.266,22.009 99.363,22.017C99.461,22.025 99.628,22.042 99.864,22.066L99.864,24.385C99.733,24.361 99.613,24.345 99.504,24.337C99.394,24.328 99.274,24.324 99.143,24.324C98.037,24.324 97.186,24.68 96.592,25.393C95.998,26.105 95.701,26.925 95.701,27.852L95.701,35.372L93.504,35.372L93.504,22.298Z" style="fill:white;fill-rule:nonzero;"/>
    <path d="M107.212,22.005C108.14,22.005 109.039,22.223 109.91,22.658C110.781,23.094 111.444,23.657 111.9,24.349C112.339,25.008 112.632,25.777 112.779,26.656C112.909,27.258 112.974,28.218 112.974,29.537L103.391,29.537C103.432,30.863 103.745,31.927 104.331,32.729C104.917,33.531 105.825,33.931 107.054,33.931C108.201,33.931 109.117,33.553 109.8,32.796C110.191,32.357 110.468,31.848 110.63,31.27L112.791,31.27C112.734,31.75 112.545,32.285 112.223,32.875C111.902,33.465 111.542,33.948 111.143,34.322C110.476,34.973 109.65,35.412 108.665,35.64C108.136,35.771 107.538,35.836 106.87,35.836C105.243,35.836 103.864,35.244 102.732,34.06C101.601,32.875 101.036,31.217 101.036,29.085C101.036,26.986 101.605,25.281 102.745,23.97C103.884,22.66 105.373,22.005 107.212,22.005ZM110.716,27.791C110.626,26.839 110.419,26.078 110.093,25.509C109.491,24.451 108.486,23.922 107.078,23.922C106.069,23.922 105.223,24.286 104.539,25.014C103.855,25.742 103.493,26.668 103.453,27.791L110.716,27.791Z" style="fill:white;fill-rule:nonzero;"/>
    <path d="M120.713,21.92C122.186,21.92 123.385,22.278 124.308,22.994C125.232,23.71 125.787,24.943 125.975,26.693L123.838,26.693C123.708,25.887 123.411,25.218 122.947,24.685C122.483,24.151 121.739,23.885 120.713,23.885C119.314,23.885 118.313,24.569 117.71,25.936C117.32,26.823 117.124,27.917 117.124,29.219C117.124,30.53 117.401,31.632 117.954,32.528C118.508,33.423 119.379,33.87 120.567,33.87C121.478,33.87 122.2,33.592 122.734,33.034C123.267,32.477 123.635,31.714 123.838,30.745L125.975,30.745C125.73,32.479 125.12,33.746 124.143,34.548C123.167,35.349 121.918,35.75 120.396,35.75C118.687,35.75 117.324,35.126 116.307,33.876C115.289,32.627 114.781,31.067 114.781,29.195C114.781,26.9 115.338,25.114 116.453,23.836C117.568,22.558 118.988,21.92 120.713,21.92Z" style="fill:white;fill-rule:nonzero;"/>
    <path d="M133.36,33.956C134.816,33.956 135.815,33.404 136.357,32.302C136.898,31.199 137.168,29.972 137.168,28.621C137.168,27.401 136.973,26.408 136.582,25.643C135.964,24.438 134.898,23.836 133.384,23.836C132.041,23.836 131.065,24.349 130.454,25.374C129.844,26.4 129.539,27.637 129.539,29.085C129.539,30.477 129.844,31.636 130.454,32.564C131.065,33.492 132.033,33.956 133.36,33.956ZM133.445,21.92C135.13,21.92 136.554,22.481 137.718,23.604C138.881,24.727 139.463,26.379 139.463,28.56C139.463,30.668 138.951,32.41 137.925,33.785C136.9,35.16 135.309,35.848 133.152,35.848C131.354,35.848 129.926,35.24 128.868,34.023C127.81,32.806 127.281,31.173 127.281,29.122C127.281,26.925 127.838,25.175 128.953,23.873C130.068,22.571 131.565,21.92 133.445,21.92Z" style="fill:white;fill-rule:nonzero;"/>
    <path d="M142.076,22.298L144.248,22.298L144.248,24.154C144.769,23.511 145.241,23.043 145.664,22.75C146.389,22.253 147.211,22.005 148.13,22.005C149.172,22.005 150.01,22.261 150.645,22.774C151.003,23.067 151.329,23.498 151.621,24.068C152.11,23.368 152.683,22.849 153.343,22.512C154.002,22.174 154.742,22.005 155.564,22.005C157.322,22.005 158.518,22.64 159.153,23.909C159.495,24.593 159.666,25.513 159.666,26.668L159.666,35.372L157.383,35.372L157.383,26.29C157.383,25.419 157.166,24.821 156.73,24.495C156.295,24.17 155.764,24.007 155.137,24.007C154.274,24.007 153.532,24.296 152.909,24.874C152.287,25.452 151.975,26.416 151.975,27.767L151.975,35.372L149.742,35.372L149.742,26.839C149.742,25.952 149.636,25.305 149.424,24.898C149.091,24.288 148.468,23.983 147.557,23.983C146.726,23.983 145.972,24.304 145.292,24.947C144.613,25.59 144.273,26.754 144.273,28.438L144.273,35.372L142.076,35.372L142.076,22.298Z" style="fill:white;fill-rule:nonzero;"/>
    <path d="M162.901,22.298L165.074,22.298L165.074,24.154C165.594,23.511 166.066,23.043 166.49,22.75C167.214,22.253 168.036,22.005 168.955,22.005C169.997,22.005 170.835,22.261 171.47,22.774C171.828,23.067 172.154,23.498 172.447,24.068C172.935,23.368 173.509,22.849 174.168,22.512C174.827,22.174 175.568,22.005 176.39,22.005C178.147,22.005 179.344,22.64 179.978,23.909C180.32,24.593 180.491,25.513 180.491,26.668L180.491,35.372L178.208,35.372L178.208,26.29C178.208,25.419 177.991,24.821 177.555,24.495C177.12,24.17 176.589,24.007 175.962,24.007C175.1,24.007 174.357,24.296 173.735,24.874C173.112,25.452 172.801,26.416 172.801,27.767L172.801,35.372L170.567,35.372L170.567,26.839C170.567,25.952 170.461,25.305 170.249,24.898C169.916,24.288 169.293,23.983 168.382,23.983C167.552,23.983 166.797,24.304 166.117,24.947C165.438,25.59 165.098,26.754 165.098,28.438L165.098,35.372L162.901,35.372L162.901,22.298Z" style="fill:white;fill-rule:nonzero;"/>
    <path d="M189.17,22.005C190.098,22.005 190.997,22.223 191.868,22.658C192.739,23.094 193.402,23.657 193.858,24.349C194.297,25.008 194.59,25.777 194.737,26.656C194.867,27.258 194.932,28.218 194.932,29.537L185.35,29.537C185.39,30.863 185.704,31.927 186.289,32.729C186.875,33.531 187.783,33.931 189.012,33.931C190.159,33.931 191.075,33.553 191.758,32.796C192.149,32.357 192.426,31.848 192.588,31.27L194.749,31.27C194.692,31.75 194.503,32.285 194.181,32.875C193.86,33.465 193.5,33.948 193.101,34.322C192.434,34.973 191.608,35.412 190.623,35.64C190.094,35.771 189.496,35.836 188.829,35.836C187.201,35.836 185.822,35.244 184.69,34.06C183.559,32.875 182.994,31.217 182.994,29.085C182.994,26.986 183.563,25.281 184.703,23.97C185.842,22.66 187.331,22.005 189.17,22.005ZM192.674,27.791C192.584,26.839 192.377,26.078 192.051,25.509C191.449,24.451 190.444,23.922 189.036,23.922C188.027,23.922 187.181,24.286 186.497,25.014C185.813,25.742 185.451,26.668 185.411,27.791L192.674,27.791Z" style="fill:white;fill-rule:nonzero;"/>
    <path d="M197.63,22.298L199.717,22.298L199.717,24.154C200.336,23.389 200.991,22.839 201.683,22.506C202.374,22.172 203.143,22.005 203.99,22.005C205.845,22.005 207.098,22.652 207.749,23.946C208.107,24.654 208.287,25.667 208.287,26.986L208.287,35.372L206.053,35.372L206.053,27.132C206.053,26.335 205.935,25.692 205.699,25.203C205.308,24.39 204.6,23.983 203.575,23.983C203.054,23.983 202.627,24.036 202.293,24.141C201.691,24.32 201.162,24.678 200.706,25.216C200.34,25.647 200.102,26.092 199.992,26.552C199.882,27.012 199.827,27.669 199.827,28.524L199.827,35.372L197.63,35.372L197.63,22.298Z" style="fill:white;fill-rule:nonzero;"/>
    <path d="M212.925,28.988C212.925,30.387 213.222,31.559 213.816,32.503C214.41,33.447 215.363,33.919 216.673,33.919C217.69,33.919 218.526,33.482 219.181,32.607C219.836,31.732 220.164,30.477 220.164,28.841C220.164,27.189 219.826,25.966 219.151,25.173C218.475,24.379 217.641,23.983 216.648,23.983C215.542,23.983 214.644,24.406 213.957,25.252C213.269,26.099 212.925,27.344 212.925,28.988ZM216.233,22.066C217.234,22.066 218.072,22.278 218.748,22.701C219.139,22.945 219.582,23.372 220.079,23.983L220.079,17.379L222.19,17.379L222.19,35.372L220.213,35.372L220.213,33.553C219.7,34.359 219.094,34.94 218.394,35.299C217.694,35.657 216.892,35.836 215.989,35.836C214.532,35.836 213.271,35.223 212.205,33.999C211.139,32.774 210.606,31.144 210.606,29.11C210.606,27.205 211.092,25.555 212.065,24.16C213.037,22.764 214.427,22.066 216.233,22.066Z" style="fill:white;fill-rule:nonzero;"/>
    <path d="M227.122,31.893C227.122,32.528 227.354,33.028 227.818,33.394C228.282,33.76 228.831,33.944 229.466,33.944C230.239,33.944 230.988,33.765 231.712,33.406C232.933,32.812 233.543,31.84 233.543,30.489L233.543,28.719C233.274,28.89 232.928,29.032 232.505,29.146C232.082,29.26 231.667,29.342 231.26,29.39L229.93,29.561C229.132,29.667 228.534,29.834 228.135,30.062C227.46,30.444 227.122,31.055 227.122,31.893ZM232.444,27.449C232.949,27.384 233.287,27.173 233.457,26.815C233.555,26.619 233.604,26.339 233.604,25.972C233.604,25.224 233.337,24.68 232.804,24.343C232.271,24.005 231.508,23.836 230.516,23.836C229.368,23.836 228.554,24.145 228.074,24.764C227.806,25.106 227.631,25.614 227.549,26.29L225.498,26.29C225.539,24.678 226.062,23.557 227.067,22.927C228.072,22.296 229.238,21.981 230.564,21.981C232.102,21.981 233.352,22.274 234.312,22.86C235.264,23.446 235.74,24.357 235.74,25.594L235.74,33.126C235.74,33.354 235.787,33.537 235.881,33.675C235.974,33.813 236.171,33.883 236.473,33.883C236.57,33.883 236.68,33.876 236.802,33.864C236.924,33.852 237.054,33.834 237.193,33.809L237.193,35.433C236.851,35.53 236.591,35.592 236.412,35.616C236.232,35.64 235.988,35.653 235.679,35.653C234.922,35.653 234.373,35.384 234.031,34.847C233.852,34.562 233.726,34.159 233.653,33.638C233.205,34.224 232.562,34.733 231.724,35.164C230.886,35.596 229.962,35.811 228.953,35.811C227.74,35.811 226.75,35.443 225.981,34.707C225.212,33.97 224.827,33.048 224.827,31.942C224.827,30.729 225.205,29.789 225.962,29.122C226.719,28.454 227.712,28.044 228.941,27.889L232.444,27.449Z" style="fill:white;fill-rule:nonzero;"/>
    <path d="M239.781,18.648L242.002,18.648L242.002,22.298L244.09,22.298L244.09,24.092L242.002,24.092L242.002,32.625C242.002,33.081 242.157,33.386 242.466,33.541C242.637,33.63 242.922,33.675 243.321,33.675C243.426,33.675 243.54,33.673 243.662,33.669C243.785,33.665 243.927,33.655 244.09,33.638L244.09,35.372C243.837,35.445 243.575,35.498 243.302,35.53C243.03,35.563 242.735,35.579 242.417,35.579C241.392,35.579 240.696,35.317 240.33,34.792C239.964,34.267 239.781,33.585 239.781,32.747L239.781,24.092L238.011,24.092L238.011,22.298L239.781,22.298L239.781,18.648Z" style="fill:white;fill-rule:nonzero;"/>
    <path d="M246.287,22.359L248.521,22.359L248.521,35.372L246.287,35.372L246.287,22.359ZM246.287,17.44L248.521,17.44L248.521,19.93L246.287,19.93L246.287,17.44Z" style="fill:white;fill-rule:nonzero;"/>
    <path d="M257.029,33.956C258.486,33.956 259.485,33.404 260.026,32.302C260.567,31.199 260.838,29.972 260.838,28.621C260.838,27.401 260.642,26.408 260.252,25.643C259.633,24.438 258.567,23.836 257.054,23.836C255.711,23.836 254.734,24.349 254.124,25.374C253.514,26.4 253.208,27.637 253.208,29.085C253.208,30.477 253.514,31.636 254.124,32.564C254.734,33.492 255.703,33.956 257.029,33.956ZM257.115,21.92C258.799,21.92 260.223,22.481 261.387,23.604C262.551,24.727 263.133,26.379 263.133,28.56C263.133,30.668 262.62,32.41 261.595,33.785C260.569,35.16 258.978,35.848 256.822,35.848C255.023,35.848 253.595,35.24 252.537,34.023C251.479,32.806 250.95,31.173 250.95,29.122C250.95,26.925 251.508,25.175 252.622,23.873C253.737,22.571 255.235,21.92 257.115,21.92Z" style="fill:white;fill-rule:nonzero;"/>
    <path d="M265.745,22.298L267.832,22.298L267.832,24.154C268.451,23.389 269.106,22.839 269.798,22.506C270.489,22.172 271.259,22.005 272.105,22.005C273.96,22.005 275.214,22.652 275.865,23.946C276.223,24.654 276.402,25.667 276.402,26.986L276.402,35.372L274.168,35.372L274.168,27.132C274.168,26.335 274.05,25.692 273.814,25.203C273.423,24.39 272.715,23.983 271.69,23.983C271.169,23.983 270.742,24.036 270.408,24.141C269.806,24.32 269.277,24.678 268.821,25.216C268.455,25.647 268.217,26.092 268.107,26.552C267.997,27.012 267.942,27.669 267.942,28.524L267.942,35.372L265.745,35.372L265.745,22.298Z" style="fill:white;fill-rule:nonzero;"/>
    <path d="M280.955,31.27C281.02,32.003 281.203,32.564 281.504,32.955C282.058,33.663 283.018,34.017 284.385,34.017C285.199,34.017 285.915,33.84 286.534,33.486C287.152,33.132 287.461,32.585 287.461,31.844C287.461,31.282 287.213,30.855 286.717,30.562C286.399,30.383 285.773,30.176 284.837,29.94L283.091,29.5C281.976,29.224 281.154,28.914 280.625,28.572C279.681,27.978 279.209,27.156 279.209,26.107C279.209,24.87 279.655,23.869 280.546,23.104C281.437,22.339 282.635,21.956 284.141,21.956C286.11,21.956 287.53,22.534 288.401,23.69C288.947,24.422 289.211,25.211 289.195,26.058L287.12,26.058C287.079,25.561 286.904,25.11 286.595,24.703C286.09,24.125 285.215,23.836 283.97,23.836C283.14,23.836 282.511,23.995 282.084,24.312C281.657,24.63 281.443,25.049 281.443,25.57C281.443,26.139 281.724,26.595 282.286,26.937C282.611,27.14 283.091,27.319 283.726,27.474L285.179,27.828C286.757,28.21 287.815,28.581 288.352,28.939C289.207,29.5 289.634,30.383 289.634,31.588C289.634,32.751 289.193,33.756 288.31,34.603C287.427,35.449 286.082,35.872 284.275,35.872C282.33,35.872 280.953,35.431 280.143,34.548C279.333,33.665 278.9,32.572 278.843,31.27L280.955,31.27Z" style="fill:white;fill-rule:nonzero;"/>
</svg>
