<?xml version="1.0" encoding="UTF-8" standalone="no"?>
<!DOCTYPE svg PUBLIC "-//W3C//DTD SVG 1.1//EN" "http://www.w3.org/Graphics/SVG/1.1/DTD/svg11.dtd">
<svg width="100%" height="100%" viewBox="0 0 462 391" version="1.1" xmlns="http://www.w3.org/2000/svg" xmlns:xlink="http://www.w3.org/1999/xlink" xml:space="preserve" xmlns:serif="http://www.serif.com/" style="fill-rule:evenodd;clip-rule:evenodd;stroke-linecap:round;stroke-linejoin:round;stroke-miterlimit:1.5;">
    <g>
        <rect x="0" y="0" width="461.983" height="390.705" style="fill:rgb(0,157,166);"/>
        <path d="M19.473,30.345C20.929,30.345 21.928,29.793 22.469,28.691C23.011,27.588 23.281,26.361 23.281,25.01C23.281,23.789 23.086,22.797 22.695,22.032C22.077,20.827 21.011,20.225 19.497,20.225C18.154,20.225 17.178,20.738 16.567,21.763C15.957,22.789 15.652,24.025 15.652,25.474C15.652,26.866 15.957,28.025 16.567,28.953C17.178,29.881 18.146,30.345 19.473,30.345ZM19.558,18.309C21.243,18.309 22.667,18.87 23.83,19.993C24.994,21.116 25.576,22.768 25.576,24.949C25.576,27.057 25.063,28.798 24.038,30.174C23.013,31.549 21.422,32.237 19.265,32.237C17.467,32.237 16.038,31.628 14.98,30.412C13.922,29.195 13.393,27.561 13.393,25.511C13.393,23.313 13.951,21.564 15.066,20.262C16.181,18.96 17.678,18.309 19.558,18.309Z" style="fill:white;fill-rule:nonzero;"/>
        <rect x="28.249" y="13.829" width="2.197" height="17.932" style="fill:white;fill-rule:nonzero;"/>
        <path d="M34.292,16.697C34.324,15.786 34.483,15.118 34.768,14.695C35.281,13.947 36.269,13.572 37.734,13.572C37.873,13.572 38.015,13.576 38.162,13.584C38.308,13.593 38.475,13.605 38.662,13.621L38.662,15.623C38.434,15.607 38.269,15.597 38.168,15.592C38.066,15.588 37.97,15.586 37.881,15.586C37.213,15.586 36.815,15.759 36.685,16.105C36.554,16.451 36.489,17.332 36.489,18.748L38.662,18.748L38.662,20.481L36.465,20.481L36.465,31.761L34.292,31.761L34.292,20.481L32.473,20.481L32.473,18.748L34.292,18.748L34.292,16.697Z" style="fill:white;fill-rule:nonzero;"/>
        <path d="M42.373,28.282C42.373,28.916 42.605,29.417 43.069,29.783C43.533,30.149 44.082,30.332 44.717,30.332C45.49,30.332 46.239,30.153 46.963,29.795C48.184,29.201 48.794,28.229 48.794,26.878L48.794,25.108C48.525,25.279 48.179,25.421 47.756,25.535C47.333,25.649 46.918,25.73 46.511,25.779L45.181,25.95C44.383,26.056 43.785,26.223 43.386,26.451C42.711,26.833 42.373,27.443 42.373,28.282ZM47.695,23.838C48.2,23.773 48.538,23.562 48.708,23.204C48.806,23.008 48.855,22.727 48.855,22.361C48.855,21.613 48.588,21.069 48.055,20.732C47.522,20.394 46.759,20.225 45.767,20.225C44.619,20.225 43.805,20.534 43.325,21.153C43.057,21.495 42.882,22.003 42.8,22.679L40.749,22.679C40.79,21.067 41.313,19.946 42.318,19.316C43.323,18.685 44.489,18.37 45.815,18.37C47.353,18.37 48.603,18.663 49.563,19.248C50.515,19.834 50.991,20.746 50.991,21.983L50.991,29.515C50.991,29.742 51.038,29.926 51.132,30.064C51.225,30.202 51.422,30.271 51.724,30.271C51.821,30.271 51.931,30.265 52.053,30.253C52.175,30.241 52.305,30.223 52.444,30.198L52.444,31.822C52.102,31.919 51.842,31.98 51.663,32.005C51.483,32.029 51.239,32.041 50.93,32.041C50.173,32.041 49.624,31.773 49.282,31.236C49.103,30.951 48.977,30.548 48.904,30.027C48.456,30.613 47.813,31.122 46.975,31.553C46.137,31.984 45.213,32.2 44.204,32.2C42.991,32.2 42.001,31.832 41.232,31.095C40.463,30.359 40.078,29.437 40.078,28.331C40.078,27.118 40.456,26.178 41.213,25.511C41.97,24.843 42.963,24.432 44.192,24.278L47.695,23.838Z" style="fill:white;fill-rule:nonzero;"/>
        <path d="M59.634,18.309C61.107,18.309 62.305,18.667 63.229,19.383C64.152,20.099 64.708,21.332 64.895,23.081L62.759,23.081C62.629,22.276 62.331,21.606 61.868,21.073C61.404,20.54 60.659,20.274 59.634,20.274C58.234,20.274 57.233,20.957 56.631,22.325C56.24,23.212 56.045,24.306 56.045,25.608C56.045,26.919 56.322,28.021 56.875,28.916C57.428,29.812 58.299,30.259 59.487,30.259C60.399,30.259 61.121,29.98 61.654,29.423C62.187,28.866 62.555,28.103 62.759,27.134L64.895,27.134C64.651,28.868 64.04,30.135 63.064,30.937C62.087,31.738 60.838,32.139 59.316,32.139C57.607,32.139 56.244,31.515 55.227,30.265C54.21,29.016 53.701,27.456 53.701,25.584C53.701,23.289 54.259,21.503 55.373,20.225C56.488,18.947 57.908,18.309 59.634,18.309Z" style="fill:white;fill-rule:nonzero;"/>
        <path d="M67.532,15.037L69.753,15.037L69.753,18.687L71.841,18.687L71.841,20.481L69.753,20.481L69.753,29.014C69.753,29.47 69.908,29.775 70.217,29.93C70.388,30.019 70.673,30.064 71.072,30.064C71.178,30.064 71.291,30.062 71.414,30.058C71.536,30.054 71.678,30.044 71.841,30.027L71.841,31.761C71.588,31.834 71.326,31.887 71.053,31.919C70.781,31.952 70.486,31.968 70.168,31.968C69.143,31.968 68.447,31.706 68.081,31.181C67.715,30.656 67.532,29.974 67.532,29.136L67.532,20.481L65.762,20.481L65.762,18.687L67.532,18.687L67.532,15.037Z" style="fill:white;fill-rule:nonzero;"/>
        <path d="M79.226,30.345C80.683,30.345 81.682,29.793 82.223,28.691C82.764,27.588 83.035,26.361 83.035,25.01C83.035,23.789 82.839,22.797 82.449,22.032C81.83,20.827 80.764,20.225 79.25,20.225C77.908,20.225 76.931,20.738 76.321,21.763C75.71,22.789 75.405,24.025 75.405,25.474C75.405,26.866 75.71,28.025 76.321,28.953C76.931,29.881 77.9,30.345 79.226,30.345ZM79.311,18.309C80.996,18.309 82.42,18.87 83.584,19.993C84.748,21.116 85.33,22.768 85.33,24.949C85.33,27.057 84.817,28.798 83.791,30.174C82.766,31.549 81.175,32.237 79.018,32.237C77.22,32.237 75.792,31.628 74.734,30.412C73.676,29.195 73.147,27.561 73.147,25.511C73.147,23.313 73.704,21.564 74.819,20.262C75.934,18.96 77.432,18.309 79.311,18.309Z" style="fill:white;fill-rule:nonzero;"/>
        <path d="M88.003,18.687L90.09,18.687L90.09,20.945C90.261,20.506 90.68,19.971 91.348,19.34C92.015,18.709 92.784,18.394 93.655,18.394C93.695,18.394 93.765,18.398 93.862,18.406C93.96,18.414 94.127,18.431 94.363,18.455L94.363,20.774C94.233,20.75 94.112,20.734 94.003,20.726C93.893,20.717 93.773,20.713 93.643,20.713C92.536,20.713 91.685,21.069 91.091,21.781C90.497,22.494 90.2,23.313 90.2,24.241L90.2,31.761L88.003,31.761L88.003,18.687Z" style="fill:white;fill-rule:nonzero;"/>
        <path d="M104.434,18.687L106.863,18.687C106.553,19.525 105.866,21.438 104.8,24.424C104.002,26.67 103.335,28.501 102.798,29.917C101.528,33.254 100.633,35.289 100.112,36.021C99.591,36.753 98.696,37.12 97.427,37.12C97.117,37.12 96.879,37.107 96.713,37.083C96.546,37.059 96.34,37.014 96.096,36.949L96.096,34.947C96.479,35.053 96.755,35.118 96.926,35.142C97.097,35.166 97.248,35.179 97.378,35.179C97.785,35.179 98.084,35.112 98.275,34.977C98.466,34.843 98.627,34.678 98.757,34.483C98.798,34.418 98.944,34.084 99.197,33.482C99.449,32.88 99.632,32.432 99.746,32.139L94.912,18.687L97.402,18.687L100.906,29.331L104.434,18.687Z" style="fill:white;fill-rule:nonzero;"/>
        <rect x="159.841" y="119.313" width="16.364" height="184.284" style="fill:white;stroke:black;stroke-width:3.75px;"/>
        <rect x="224.166" y="119.313" width="16.364" height="184.284" style="fill:white;stroke:black;stroke-width:3.75px;"/>
        <rect x="288.491" y="119.313" width="16.364" height="184.284" style="fill:white;stroke:black;stroke-width:3.75px;"/>
        <rect x="143.766" y="211.455" width="48.515" height="15.725" style="fill:rgb(0,157,166);stroke:black;stroke-width:3.75px;"/>
        <rect x="208.091" y="258.716" width="48.515" height="15.725" style="fill:rgb(0,157,166);stroke:black;stroke-width:3.75px;"/>
        <rect x="272.416" y="170.896" width="48.515" height="15.725" style="fill:rgb(0,157,166);stroke:black;stroke-width:3.75px;"/>
        <path d="M205.687,110.077C208.788,107.638 222.729,98.827 225.669,95.863C226.71,94.813 223.395,93.641 223.325,92.294C223.247,90.773 224.616,87.457 225.197,86.734C225.6,86.233 226.684,87.367 226.813,87.956C227.099,89.269 226.118,94.168 226.917,94.612C227.715,95.057 230.791,91.517 231.603,90.62C231.943,90.246 232.047,89.649 231.792,89.233C231.297,88.422 228.762,87.035 228.631,85.757C228.5,84.478 230.262,81.901 231.007,81.563C231.752,81.226 232.828,82.839 233.1,83.731C233.413,84.762 233.108,86.836 232.89,87.753C232.756,88.318 231.402,89.714 231.792,89.233C232.299,88.608 235.633,85.438 235.928,84.006C236.191,82.731 233.743,81.699 233.567,80.637C233.392,79.587 234.111,77.445 234.87,77.638C236.361,78.017 236.127,83.75 235.928,84.006C235.532,84.515 238.406,79.742 239.255,78.245C239.861,77.178 240.824,75.738 241.025,75.026C241.131,74.652 240.828,74.213 240.465,73.968C239.872,73.57 238.047,73.136 237.468,72.633C236.983,72.211 236.718,70.827 236.988,70.947C237.258,71.067 239.432,71.106 240.065,71.711C240.555,72.179 240.278,74.763 240.786,74.575C241.294,74.387 241.468,72.898 242.134,72.225C243.046,71.304 245.419,69.847 246.256,69.048C246.729,68.597 246.849,67.107 247.159,67.43C247.468,67.753 248.112,69.997 248.115,70.986C248.117,71.818 247.946,72.816 247.174,73.363C246.349,73.948 244.036,73.98 243.165,74.497C242.434,74.931 241.722,76.328 241.945,76.466C242.167,76.605 243.593,75.509 244.501,75.33C245.408,75.152 247.129,75.103 247.391,75.394C247.653,75.686 246.79,76.76 246.071,77.08C245.287,77.428 243.617,76.946 242.69,77.485C241.67,78.077 240.046,80.174 239.951,80.634C239.856,81.095 241.387,80.33 242.12,80.245C243.237,80.116 246.105,79.663 246.649,79.861C247.194,80.059 246.152,81.351 245.389,81.433C244.386,81.542 241.58,80.401 240.633,80.512C239.92,80.596 240.073,81.596 239.707,82.102C238.955,83.139 235.901,86.081 236.122,86.736C236.343,87.392 239.772,86.415 241.033,86.036C242.06,85.728 243.29,84.407 243.689,84.465C244.087,84.524 243.87,85.853 243.426,86.387C242.926,86.988 241.723,87.833 240.69,88.073C239.657,88.313 238.109,87.695 237.226,87.826C236.495,87.934 235.914,88.426 235.393,88.857C234.744,89.393 232.382,90.903 233.336,91.043C234.289,91.182 239.764,89.735 241.113,89.696C241.579,89.682 241.691,90.489 241.43,90.804C241.046,91.266 239.879,92.478 238.811,92.47C237.742,92.461 236.12,90.839 235.018,90.751C233.964,90.667 233.018,91.397 232.197,91.941C231.368,92.491 229.967,93.774 230.044,94.05C230.12,94.326 231.765,93.589 232.655,93.598C233.881,93.61 235.825,94.172 237.405,94.121C238.985,94.07 241.236,93.251 242.135,93.293C242.631,93.316 243.151,94.091 242.799,94.375C242.086,94.951 239.354,96.569 237.857,96.748C236.424,96.92 234.834,95.952 233.814,95.453C232.973,95.042 232.501,93.812 231.738,93.756C230.661,93.678 229.262,94.524 229.242,95.103C229.197,96.39 225.992,97.458 225.934,97.843C225.875,98.229 227.726,97.285 228.892,97.418C230.327,97.583 232.726,98.92 234.073,99.095C235.061,99.224 236.342,98.442 236.973,98.47C237.413,98.489 238.205,99.037 237.863,99.262C237.141,99.737 234.312,101.378 232.642,101.32C230.973,101.262 229.276,99.263 227.847,98.914C226.634,98.618 225.162,98.711 224.067,99.229C222.255,100.086 219.361,102.471 216.97,104.056C214.136,105.934 208.943,109.495 207.062,110.498C206.653,110.717 205.335,110.354 205.687,110.077Z" style="fill:white;stroke:black;stroke-width:1.25px;stroke-linecap:square;"/>
        <path d="M150.084,82.899C150.397,90.134 156.006,99.194 160.984,101.753C162.802,102.687 164.885,103.523 166.939,103.358C169.407,103.159 173.585,102.658 175.796,100.559C178.561,97.934 180.862,94.987 183.524,87.609L183.662,82.899C184.004,78.333 180.665,74.881 166.939,74.571C153.098,75.671 150.099,78.981 150.084,82.899Z" style="fill:white;stroke:black;stroke-width:1.46px;stroke-linecap:square;"/>
        <path d="M181.748,91.477C181.705,91.713 182.387,91.681 182.521,91.477C182.797,91.06 182.627,89.392 183.402,88.975C184.177,88.558 186.2,88.514 187.17,88.975C188.14,89.436 189.241,90.839 189.222,91.742C189.202,92.644 188.133,93.918 187.051,94.39C185.323,95.145 180.622,95.419 178.854,96.269C177.602,96.872 175.145,99.449 176.444,99.494C177.743,99.54 184.228,97.649 186.65,96.542C188.407,95.738 190.244,94.112 190.973,92.85C191.631,91.712 191.588,90.058 191.024,88.975C190.46,87.892 188.86,86.74 187.59,86.355C186.319,85.97 184.376,85.81 183.402,86.664C182.428,87.517 181.894,90.675 181.748,91.477Z" style="fill:white;stroke:black;stroke-width:1.46px;stroke-linecap:square;"/>
        <ellipse cx="166.884" cy="81.333" rx="14.32" ry="4.71" style="fill:white;stroke:black;stroke-width:1.46px;stroke-linecap:square;"/>
        <path d="M287.104,103.355L290.434,103.379C290.985,103.068 288.031,88.499 283.397,84.664C280.214,82.029 275.437,81.622 273.678,84.221C272.56,85.874 272.164,91.398 272.287,90.4C272.373,89.705 274.798,81.667 278.22,82.555C284.464,84.174 287.993,103.265 287.104,103.355Z" style="fill:white;stroke:black;stroke-width:1.46px;stroke-linecap:square;"/>
        <path d="M304.188,103.379L299.889,103.379C299.316,103.048 301.558,86.249 307.196,83.405C310.916,81.528 315.479,81.115 317.303,83.892C319.888,87.828 318.463,94.279 318.336,93.214C318.247,92.472 314.892,81.448 311.339,82.396C304.855,84.124 303.265,103.283 304.188,103.379Z" style="fill:white;stroke:black;stroke-width:1.46px;stroke-linecap:square;"/>
        <path d="M278.11,72.211C285.079,75.565 288.145,88.516 290.434,103.379L292.518,103.379C291.36,87.716 288.236,74.897 278.11,72.211Z" style="fill:white;stroke:black;stroke-width:1.46px;stroke-linecap:square;"/>
        <path d="M281.383,64.404C291.689,74.844 295.119,88.574 296.306,103.379L292.518,103.379C291.474,88.204 288.008,75.012 281.383,64.404Z" style="fill:white;stroke:black;stroke-width:1.46px;stroke-linecap:square;"/>
        <path d="M308.937,67.443C298.631,77.883 298.85,88.604 296.306,103.379L300.094,103.379C301.673,88.644 304.202,79.18 308.937,67.443Z" style="fill:white;stroke:black;stroke-width:1.46px;stroke-linecap:square;"/>
        <path d="M291.686,58.74C294.624,73.346 295.478,88.302 295.61,103.379L299.072,103.379C298.83,82.963 297.017,68.14 291.686,58.74Z" style="fill:white;stroke:black;stroke-width:1.46px;stroke-linecap:square;"/>
    </g>
</svg>
