<?xml version="1.0" encoding="UTF-8" standalone="no"?>
<!DOCTYPE svg PUBLIC "-//W3C//DTD SVG 1.1//EN" "http://www.w3.org/Graphics/SVG/1.1/DTD/svg11.dtd">
<svg width="100%" height="100%" viewBox="0 0 462 392" version="1.1" xmlns="http://www.w3.org/2000/svg" xmlns:xlink="http://www.w3.org/1999/xlink" xml:space="preserve" xmlns:serif="http://www.serif.com/" style="fill-rule:evenodd;clip-rule:evenodd;stroke-linecap:round;stroke-linejoin:round;stroke-miterlimit:1.5;">
    <g>
        <rect x="0" y="0" width="461.983" height="391.731" style="fill:rgb(85,79,164);"/>
        <rect x="146.566" y="252.387" width="48.384" height="15.682" style="fill:rgb(214,225,0);stroke:rgb(229,229,229);stroke-width:3.75px;"/>
        <rect x="207.756" y="252.158" width="48.384" height="15.682" style="fill:rgb(214,225,0);stroke:white;stroke-width:3.75px;"/>
        <rect x="268.284" y="252.557" width="48.384" height="15.682" style="fill:rgb(214,225,0);stroke:rgb(252,252,252);stroke-width:3.75px;"/>
        <rect x="146.566" y="228.003" width="48.384" height="15.682" style="fill:rgb(214,225,0);stroke:rgb(229,229,229);stroke-width:3.75px;"/>
        <rect x="207.756" y="227.774" width="48.384" height="15.682" style="fill:rgb(214,225,0);stroke:white;stroke-width:3.75px;"/>
        <rect x="268.284" y="228.173" width="48.384" height="15.682" style="fill:rgb(214,225,0);stroke:rgb(252,252,252);stroke-width:3.75px;"/>
        <rect x="146.566" y="203.619" width="48.384" height="15.682" style="fill:rgb(214,225,0);stroke:rgb(229,229,229);stroke-width:3.75px;"/>
        <rect x="207.756" y="203.391" width="48.384" height="15.682" style="fill:rgb(214,225,0);stroke:white;stroke-width:3.75px;"/>
        <rect x="268.284" y="203.789" width="48.384" height="15.682" style="fill:rgb(214,225,0);stroke:rgb(252,252,252);stroke-width:3.75px;"/>
        <rect x="146.566" y="179.235" width="48.384" height="15.682" style="fill:rgb(214,225,0);stroke:rgb(229,229,229);stroke-width:3.75px;"/>
        <rect x="268.284" y="179.406" width="48.384" height="15.682" style="fill:rgb(214,225,0);stroke:rgb(252,252,252);stroke-width:3.75px;"/>
        <rect x="146.566" y="154.851" width="48.384" height="15.682" style="fill:rgb(214,225,0);stroke:white;stroke-width:3.75px;"/>
        <rect x="268.284" y="155.022" width="48.384" height="15.682" style="fill:rgb(214,225,0);stroke:rgb(252,252,252);stroke-width:3.75px;"/>
        <rect x="268.284" y="130.638" width="48.384" height="15.682" style="fill:rgb(214,225,0);stroke:rgb(252,252,252);stroke-width:3.75px;"/>
        <path d="M25.173,35.047C25.239,35.779 25.422,36.341 25.723,36.731C26.276,37.439 27.236,37.793 28.604,37.793C29.417,37.793 30.134,37.616 30.752,37.262C31.371,36.908 31.68,36.361 31.68,35.621C31.68,35.059 31.432,34.632 30.935,34.339C30.618,34.16 29.991,33.952 29.055,33.716L27.31,33.277C26.195,33 25.373,32.691 24.844,32.349C23.9,31.755 23.428,30.933 23.428,29.883C23.428,28.646 23.873,27.645 24.765,26.88C25.656,26.115 26.854,25.733 28.36,25.733C30.329,25.733 31.749,26.311 32.62,27.466C33.165,28.199 33.43,28.988 33.413,29.834L31.338,29.834C31.297,29.338 31.122,28.886 30.813,28.479C30.309,27.902 29.434,27.613 28.189,27.613C27.359,27.613 26.73,27.771 26.303,28.089C25.875,28.406 25.662,28.825 25.662,29.346C25.662,29.916 25.943,30.372 26.504,30.713C26.83,30.917 27.31,31.096 27.944,31.25L29.397,31.604C30.976,31.987 32.034,32.357 32.571,32.715C33.425,33.277 33.853,34.16 33.853,35.364C33.853,36.528 33.411,37.533 32.528,38.379C31.645,39.226 30.3,39.649 28.494,39.649C26.549,39.649 25.171,39.207 24.362,38.324C23.552,37.441 23.119,36.349 23.062,35.047L25.173,35.047Z" style="fill:white;fill-rule:nonzero;"/>
        <path d="M41.409,25.696C42.882,25.696 44.08,26.054 45.004,26.77C45.927,27.487 46.483,28.72 46.67,30.469L44.534,30.469C44.404,29.664 44.107,28.994 43.643,28.461C43.179,27.928 42.434,27.662 41.409,27.662C40.009,27.662 39.008,28.345 38.406,29.712C38.015,30.599 37.82,31.694 37.82,32.996C37.82,34.306 38.097,35.409 38.65,36.304C39.203,37.199 40.074,37.647 41.262,37.647C42.174,37.647 42.896,37.368 43.429,36.811C43.962,36.253 44.33,35.49 44.534,34.522L46.67,34.522C46.426,36.255 45.816,37.523 44.839,38.324C43.862,39.126 42.613,39.527 41.091,39.527C39.382,39.527 38.019,38.902 37.002,37.653C35.985,36.404 35.476,34.843 35.476,32.972C35.476,30.677 36.034,28.89 37.149,27.613C38.264,26.335 39.684,25.696 41.409,25.696Z" style="fill:white;fill-rule:nonzero;"/>
        <path d="M48.928,26.075L51.016,26.075L51.016,28.333C51.187,27.894 51.606,27.358 52.273,26.728C52.94,26.097 53.709,25.782 54.58,25.782C54.621,25.782 54.69,25.786 54.788,25.794C54.885,25.802 55.052,25.818 55.288,25.843L55.288,28.162C55.158,28.138 55.038,28.121 54.928,28.113C54.818,28.105 54.698,28.101 54.568,28.101C53.461,28.101 52.611,28.457 52.017,29.169C51.423,29.881 51.126,30.701 51.126,31.629L51.126,39.148L48.928,39.148L48.928,26.075Z" style="fill:white;fill-rule:nonzero;"/>
        <path d="M62.637,25.782C63.565,25.782 64.464,25.999 65.335,26.435C66.205,26.87 66.869,27.434 67.324,28.125C67.764,28.785 68.057,29.554 68.203,30.433C68.333,31.035 68.399,31.995 68.399,33.313L58.816,33.313C58.857,34.64 59.17,35.704 59.756,36.506C60.342,37.307 61.249,37.708 62.478,37.708C63.626,37.708 64.541,37.33 65.225,36.573C65.615,36.133 65.892,35.625 66.055,35.047L68.215,35.047C68.159,35.527 67.969,36.062 67.648,36.652C67.326,37.242 66.966,37.724 66.568,38.099C65.9,38.75 65.074,39.189 64.09,39.417C63.561,39.547 62.962,39.612 62.295,39.612C60.667,39.612 59.288,39.02 58.157,37.836C57.026,36.652 56.46,34.994 56.46,32.862C56.46,30.762 57.03,29.057 58.169,27.747C59.308,26.437 60.798,25.782 62.637,25.782ZM66.14,31.568C66.051,30.616 65.843,29.855 65.518,29.285C64.916,28.227 63.91,27.698 62.503,27.698C61.493,27.698 60.647,28.062 59.964,28.791C59.28,29.519 58.918,30.445 58.877,31.568L66.14,31.568Z" style="fill:white;fill-rule:nonzero;"/>
        <path d="M76.541,25.782C77.468,25.782 78.368,25.999 79.238,26.435C80.109,26.87 80.772,27.434 81.228,28.125C81.668,28.785 81.961,29.554 82.107,30.433C82.237,31.035 82.302,31.995 82.302,33.313L72.72,33.313C72.761,34.64 73.074,35.704 73.66,36.506C74.246,37.307 75.153,37.708 76.382,37.708C77.529,37.708 78.445,37.33 79.129,36.573C79.519,36.133 79.796,35.625 79.959,35.047L82.119,35.047C82.062,35.527 81.873,36.062 81.552,36.652C81.23,37.242 80.87,37.724 80.471,38.099C79.804,38.75 78.978,39.189 77.993,39.417C77.464,39.547 76.866,39.612 76.199,39.612C74.571,39.612 73.192,39.02 72.061,37.836C70.93,36.652 70.364,34.994 70.364,32.862C70.364,30.762 70.934,29.057 72.073,27.747C73.212,26.437 74.701,25.782 76.541,25.782ZM80.044,31.568C79.955,30.616 79.747,29.855 79.422,29.285C78.819,28.227 77.814,27.698 76.406,27.698C75.397,27.698 74.551,28.062 73.867,28.791C73.184,29.519 72.822,30.445 72.781,31.568L80.044,31.568Z" style="fill:white;fill-rule:nonzero;"/>
        <path d="M85,26.075L87.088,26.075L87.088,27.93C87.706,27.165 88.361,26.616 89.053,26.282C89.745,25.949 90.514,25.782 91.36,25.782C93.215,25.782 94.469,26.429 95.12,27.723C95.478,28.431 95.657,29.444 95.657,30.762L95.657,39.148L93.423,39.148L93.423,30.909C93.423,30.111 93.305,29.468 93.069,28.98C92.678,28.166 91.97,27.759 90.945,27.759C90.424,27.759 89.997,27.812 89.663,27.918C89.061,28.097 88.532,28.455 88.076,28.992C87.71,29.423 87.472,29.869 87.362,30.329C87.252,30.789 87.197,31.446 87.197,32.3L87.197,39.148L85,39.148L85,26.075Z" style="fill:white;fill-rule:nonzero;"/>
        <path d="M111.367,37.671C112.393,37.671 113.245,37.242 113.925,36.384C114.604,35.525 114.944,34.241 114.944,32.532C114.944,31.491 114.793,30.595 114.492,29.847C113.923,28.406 112.881,27.686 111.367,27.686C109.846,27.686 108.804,28.447 108.242,29.969C107.941,30.783 107.791,31.816 107.791,33.069C107.791,34.078 107.941,34.937 108.242,35.645C108.812,36.996 109.854,37.671 111.367,37.671ZM105.679,26.136L107.815,26.136L107.815,27.869C108.255,27.275 108.735,26.815 109.256,26.49C109.996,26.001 110.867,25.757 111.868,25.757C113.349,25.757 114.606,26.325 115.64,27.46C116.673,28.595 117.19,30.217 117.19,32.325C117.19,35.173 116.445,37.207 114.956,38.428C114.012,39.201 112.914,39.588 111.66,39.588C110.676,39.588 109.85,39.372 109.182,38.941C108.792,38.697 108.356,38.278 107.876,37.684L107.876,44.361L105.679,44.361L105.679,26.136Z" style="fill:white;fill-rule:nonzero;"/>
        <path d="M124.942,37.732C126.398,37.732 127.397,37.181 127.938,36.078C128.48,34.976 128.75,33.749 128.75,32.398C128.75,31.177 128.555,30.184 128.164,29.419C127.546,28.215 126.48,27.613 124.966,27.613C123.623,27.613 122.647,28.125 122.036,29.151C121.426,30.176 121.121,31.413 121.121,32.862C121.121,34.253 121.426,35.413 122.036,36.341C122.647,37.269 123.615,37.732 124.942,37.732ZM125.027,25.696C126.712,25.696 128.136,26.258 129.299,27.381C130.463,28.504 131.045,30.156 131.045,32.337C131.045,34.445 130.532,36.186 129.507,37.561C128.482,38.937 126.891,39.624 124.734,39.624C122.936,39.624 121.507,39.016 120.449,37.8C119.391,36.583 118.862,34.949 118.862,32.898C118.862,30.701 119.42,28.951 120.535,27.649C121.65,26.347 123.147,25.696 125.027,25.696Z" style="fill:white;fill-rule:nonzero;"/>
        <path d="M134.964,35.047C135.029,35.779 135.212,36.341 135.513,36.731C136.066,37.439 137.027,37.793 138.394,37.793C139.208,37.793 139.924,37.616 140.542,37.262C141.161,36.908 141.47,36.361 141.47,35.621C141.47,35.059 141.222,34.632 140.725,34.339C140.408,34.16 139.781,33.952 138.845,33.716L137.1,33.277C135.985,33 135.163,32.691 134.634,32.349C133.69,31.755 133.218,30.933 133.218,29.883C133.218,28.646 133.663,27.645 134.555,26.88C135.446,26.115 136.644,25.733 138.15,25.733C140.119,25.733 141.539,26.311 142.41,27.466C142.955,28.199 143.22,28.988 143.203,29.834L141.128,29.834C141.087,29.338 140.912,28.886 140.603,28.479C140.099,27.902 139.224,27.613 137.979,27.613C137.149,27.613 136.52,27.771 136.093,28.089C135.665,28.406 135.452,28.825 135.452,29.346C135.452,29.916 135.733,30.372 136.294,30.713C136.62,30.917 137.1,31.096 137.735,31.25L139.187,31.604C140.766,31.987 141.824,32.357 142.361,32.715C143.215,33.277 143.643,34.16 143.643,35.364C143.643,36.528 143.201,37.533 142.318,38.379C141.435,39.226 140.09,39.649 138.284,39.649C136.339,39.649 134.961,39.207 134.152,38.324C133.342,37.441 132.909,36.349 132.852,35.047L134.964,35.047Z" style="fill:white;fill-rule:nonzero;"/>
        <path d="M146.157,26.136L148.391,26.136L148.391,39.148L146.157,39.148L146.157,26.136ZM146.157,21.216L148.391,21.216L148.391,23.707L146.157,23.707L146.157,21.216Z" style="fill:white;fill-rule:nonzero;"/>
        <path d="M152.151,22.425L154.373,22.425L154.373,26.075L156.46,26.075L156.46,27.869L154.373,27.869L154.373,36.402C154.373,36.858 154.527,37.163 154.837,37.317C155.007,37.407 155.292,37.452 155.691,37.452C155.797,37.452 155.911,37.45 156.033,37.446C156.155,37.441 156.297,37.431 156.46,37.415L156.46,39.148C156.208,39.222 155.945,39.275 155.673,39.307C155.4,39.34 155.105,39.356 154.788,39.356C153.762,39.356 153.067,39.093 152.7,38.569C152.334,38.044 152.151,37.362 152.151,36.524L152.151,27.869L150.381,27.869L150.381,26.075L152.151,26.075L152.151,22.425Z" style="fill:white;fill-rule:nonzero;"/>
        <path d="M158.657,26.136L160.891,26.136L160.891,39.148L158.657,39.148L158.657,26.136ZM158.657,21.216L160.891,21.216L160.891,23.707L158.657,23.707L158.657,21.216Z" style="fill:white;fill-rule:nonzero;"/>
        <path d="M169.4,37.732C170.856,37.732 171.855,37.181 172.396,36.078C172.938,34.976 173.208,33.749 173.208,32.398C173.208,31.177 173.013,30.184 172.622,29.419C172.004,28.215 170.938,27.613 169.424,27.613C168.081,27.613 167.105,28.125 166.494,29.151C165.884,30.176 165.579,31.413 165.579,32.862C165.579,34.253 165.884,35.413 166.494,36.341C167.105,37.269 168.073,37.732 169.4,37.732ZM169.485,25.696C171.17,25.696 172.594,26.258 173.757,27.381C174.921,28.504 175.503,30.156 175.503,32.337C175.503,34.445 174.99,36.186 173.965,37.561C172.94,38.937 171.349,39.624 169.192,39.624C167.394,39.624 165.965,39.016 164.907,37.8C163.849,36.583 163.32,34.949 163.32,32.898C163.32,30.701 163.878,28.951 164.993,27.649C166.108,26.347 167.605,25.696 169.485,25.696Z" style="fill:white;fill-rule:nonzero;"/>
        <path d="M178.115,26.075L180.203,26.075L180.203,27.93C180.821,27.165 181.476,26.616 182.168,26.282C182.86,25.949 183.629,25.782 184.475,25.782C186.331,25.782 187.584,26.429 188.235,27.723C188.593,28.431 188.772,29.444 188.772,30.762L188.772,39.148L186.538,39.148L186.538,30.909C186.538,30.111 186.42,29.468 186.184,28.98C185.794,28.166 185.086,27.759 184.06,27.759C183.539,27.759 183.112,27.812 182.778,27.918C182.176,28.097 181.647,28.455 181.192,28.992C180.825,29.423 180.587,29.869 180.477,30.329C180.368,30.789 180.313,31.446 180.313,32.3L180.313,39.148L178.115,39.148L178.115,26.075Z" style="fill:white;fill-rule:nonzero;"/>
    </g>
</svg>
