<?xml version="1.0" encoding="UTF-8" standalone="no"?>
<!DOCTYPE svg PUBLIC "-//W3C//DTD SVG 1.1//EN" "http://www.w3.org/Graphics/SVG/1.1/DTD/svg11.dtd">
<svg width="100%" height="100%" viewBox="0 0 462 392" version="1.1" xmlns="http://www.w3.org/2000/svg" xmlns:xlink="http://www.w3.org/1999/xlink" xml:space="preserve" xmlns:serif="http://www.serif.com/" style="fill-rule:evenodd;clip-rule:evenodd;stroke-linecap:square;stroke-linejoin:round;stroke-miterlimit:1.5;">
    <g>
        <rect x="0" y="0" width="461.983" height="391.731" style="fill:rgb(38,35,62);"/>
        <ellipse cx="227.682" cy="184.529" rx="71.403" ry="71.253" style="fill:rgb(38,35,62);stroke:white;stroke-width:3.96px;"/>
        <ellipse cx="227.682" cy="86.766" rx="9.171" ry="9.222" style="fill:rgb(38,35,62);stroke:white;stroke-width:3.96px;"/>
        <ellipse cx="227.682" cy="280.92" rx="9.171" ry="9.222" style="fill:rgb(38,35,62);stroke:white;stroke-width:3.96px;"/>
        <path d="M121.383,184.529C121.383,179.467 125.515,175.358 130.605,175.358C135.695,175.358 139.827,179.467 139.827,184.529C139.827,189.591 135.695,193.7 130.605,193.7C125.515,193.7 121.383,189.591 121.383,184.529Z" style="fill:rgb(38,35,62);stroke:white;stroke-width:3.96px;"/>
        <path d="M315.537,184.529C315.537,179.467 319.67,175.358 324.759,175.358C329.849,175.358 333.981,179.467 333.981,184.529C333.981,189.591 329.849,193.7 324.759,193.7C319.67,193.7 315.537,189.591 315.537,184.529Z" style="fill:rgb(38,35,62);stroke:white;stroke-width:3.96px;"/>
        <path d="M152.517,102.778C156.097,99.199 161.924,99.215 165.523,102.814C169.123,106.413 169.139,112.241 165.559,115.82C161.98,119.399 156.152,119.383 152.553,115.784C148.954,112.185 148.938,106.357 152.517,102.778Z" style="fill:rgb(38,35,62);stroke:white;stroke-width:3.96px;"/>
        <path d="M289.805,240.066C293.384,236.487 299.212,236.503 302.811,240.102C306.41,243.701 306.426,249.529 302.847,253.108C299.268,256.687 293.44,256.671 289.841,253.072C286.242,249.473 286.226,243.645 289.805,240.066Z" style="fill:rgb(38,35,62);stroke:white;stroke-width:3.96px;"/>
        <path d="M302.847,102.778C299.268,99.199 293.44,99.215 289.841,102.814C286.242,106.413 286.226,112.241 289.805,115.82C293.384,119.399 299.212,119.383 302.811,115.784C306.41,112.185 306.426,106.357 302.847,102.778Z" style="fill:rgb(38,35,62);stroke:white;stroke-width:3.96px;"/>
        <path d="M165.559,240.066C161.98,236.487 156.152,236.503 152.553,240.102C148.954,243.701 148.938,249.529 152.517,253.108C156.097,256.687 161.924,256.671 165.523,253.072C169.123,249.473 169.139,243.645 165.559,240.066Z" style="fill:rgb(38,35,62);stroke:white;stroke-width:3.96px;"/>
        <path d="M242.714,231.132C242.714,224.447 237.286,219.019 230.601,219.019L224.763,219.019C218.078,219.019 212.651,224.447 212.651,231.132C212.651,237.817 218.078,243.244 224.763,243.244L230.601,243.244C237.286,243.244 242.714,237.817 242.714,231.132Z" style="fill:rgb(38,35,62);stroke:white;stroke-width:3.96px;"/>
        <path d="M242.714,215.984C242.714,215.11 242.004,214.4 241.129,214.4L214.235,214.4C213.361,214.4 212.651,215.11 212.651,215.984L212.651,230.11C212.651,230.985 213.361,231.695 214.235,231.695C222.925,233.368 231.868,233.497 241.129,231.695C242.004,231.695 242.714,230.985 242.714,230.11L242.714,215.984Z" style="fill:rgb(38,35,62);stroke:white;stroke-width:3.33px;"/>
        <path d="M242.714,208.952C242.714,208.077 242.004,207.367 241.129,207.367L214.235,207.367C213.361,207.367 212.651,208.077 212.651,208.952L212.651,223.077C212.651,223.952 213.361,224.662 214.235,224.662C222.925,226.335 231.868,226.464 241.129,224.662C242.004,224.662 242.714,223.952 242.714,223.077L242.714,208.952Z" style="fill:rgb(38,35,62);stroke:white;stroke-width:3.12px;"/>
        <ellipse cx="227.682" cy="175.358" rx="43.927" ry="43.662" style="fill:rgb(214,225,0);stroke:white;stroke-width:3.96px;"/>
        <path d="M14.79,32.274C14.856,33.006 15.039,33.568 15.34,33.959C15.893,34.667 16.853,35.021 18.221,35.021C19.034,35.021 19.751,34.844 20.369,34.49C20.988,34.136 21.297,33.588 21.297,32.848C21.297,32.286 21.049,31.859 20.552,31.566C20.235,31.387 19.608,31.18 18.672,30.943L16.927,30.504C15.812,30.227 14.99,29.918 14.461,29.576C13.517,28.982 13.045,28.16 13.045,27.11C13.045,25.874 13.49,24.873 14.382,24.108C15.273,23.343 16.471,22.96 17.977,22.96C19.946,22.96 21.366,23.538 22.237,24.693C22.782,25.426 23.047,26.215 23.03,27.062L20.955,27.062C20.914,26.565 20.739,26.114 20.43,25.707C19.926,25.129 19.051,24.84 17.806,24.84C16.976,24.84 16.347,24.999 15.92,25.316C15.492,25.633 15.279,26.053 15.279,26.573C15.279,27.143 15.56,27.599 16.121,27.941C16.447,28.144 16.927,28.323 17.561,28.478L19.014,28.832C20.593,29.214 21.651,29.584 22.188,29.943C23.042,30.504 23.47,31.387 23.47,32.591C23.47,33.755 23.028,34.76 22.145,35.607C21.262,36.453 19.917,36.876 18.111,36.876C16.166,36.876 14.788,36.435 13.979,35.552C13.169,34.669 12.736,33.576 12.679,32.274L14.79,32.274Z" style="fill:white;fill-rule:nonzero;"/>
        <path d="M25.984,18.382L28.182,18.382L28.182,25.072C28.702,24.413 29.17,23.949 29.585,23.68C30.293,23.216 31.176,22.985 32.234,22.985C34.13,22.985 35.416,23.648 36.092,24.974C36.458,25.699 36.641,26.704 36.641,27.989L36.641,36.376L34.383,36.376L34.383,28.136C34.383,27.176 34.261,26.472 34.017,26.024C33.618,25.308 32.869,24.95 31.77,24.95C30.859,24.95 30.033,25.263 29.292,25.89C28.552,26.516 28.182,27.7 28.182,29.442L28.182,36.376L25.984,36.376L25.984,18.382Z" style="fill:white;fill-rule:nonzero;"/>
        <path d="M45.332,23.009C46.26,23.009 47.159,23.227 48.03,23.662C48.901,24.097 49.564,24.661 50.02,25.353C50.459,26.012 50.752,26.781 50.899,27.66C51.029,28.262 51.094,29.222 51.094,30.541L41.512,30.541C41.552,31.867 41.866,32.931 42.452,33.733C43.038,34.534 43.945,34.935 45.174,34.935C46.321,34.935 47.237,34.557 47.92,33.8C48.311,33.36 48.588,32.852 48.75,32.274L50.911,32.274C50.854,32.754 50.665,33.289 50.343,33.879C50.022,34.469 49.662,34.951 49.263,35.326C48.596,35.977 47.77,36.416 46.785,36.644C46.256,36.774 45.658,36.839 44.991,36.839C43.363,36.839 41.984,36.247 40.853,35.063C39.721,33.879 39.156,32.221 39.156,30.089C39.156,27.989 39.725,26.284 40.865,24.974C42.004,23.664 43.493,23.009 45.332,23.009ZM48.836,28.795C48.746,27.843 48.539,27.082 48.213,26.512C47.611,25.454 46.606,24.925 45.198,24.925C44.189,24.925 43.343,25.29 42.659,26.018C41.976,26.746 41.613,27.672 41.573,28.795L48.836,28.795Z" style="fill:white;fill-rule:nonzero;"/>
        <rect x="53.853" y="18.443" width="2.197" height="17.932" style="fill:white;fill-rule:nonzero;"/>
        <path d="M59.895,21.312C59.928,20.401 60.087,19.733 60.372,19.31C60.884,18.561 61.873,18.187 63.338,18.187C63.476,18.187 63.619,18.191 63.765,18.199C63.912,18.207 64.078,18.22 64.266,18.236L64.266,20.238C64.038,20.222 63.873,20.211 63.771,20.207C63.669,20.203 63.574,20.201 63.484,20.201C62.817,20.201 62.418,20.374 62.288,20.72C62.158,21.066 62.093,21.947 62.093,23.363L64.266,23.363L64.266,25.096L62.068,25.096L62.068,36.376L59.895,36.376L59.895,25.096L58.077,25.096L58.077,23.363L59.895,23.363L59.895,21.312Z" style="fill:white;fill-rule:nonzero;"/>
        <rect x="73.299" y="18.443" width="2.197" height="17.932" style="fill:white;fill-rule:nonzero;"/>
        <path d="M78.792,23.363L81.026,23.363L81.026,36.376L78.792,36.376L78.792,23.363ZM78.792,18.443L81.026,18.443L81.026,20.934L78.792,20.934L78.792,18.443Z" style="fill:white;fill-rule:nonzero;"/>
        <path d="M88.96,23.07C89.986,23.07 90.881,23.322 91.646,23.827C92.061,24.112 92.484,24.527 92.915,25.072L92.915,23.424L94.942,23.424L94.942,35.314C94.942,36.974 94.698,38.284 94.209,39.244C93.298,41.018 91.577,41.905 89.046,41.905C87.638,41.905 86.454,41.59 85.494,40.959C84.533,40.329 83.996,39.342 83.882,37.999L86.116,37.999C86.222,38.585 86.434,39.037 86.751,39.354C87.247,39.842 88.029,40.087 89.095,40.087C90.779,40.087 91.882,39.492 92.403,38.304C92.712,37.604 92.854,36.355 92.83,34.557C92.391,35.224 91.862,35.721 91.243,36.046C90.625,36.372 89.807,36.534 88.79,36.534C87.373,36.534 86.134,36.032 85.072,35.027C84.01,34.022 83.479,32.36 83.479,30.04C83.479,27.851 84.015,26.142 85.085,24.913C86.155,23.684 87.447,23.07 88.96,23.07ZM92.915,29.784C92.915,28.164 92.582,26.964 91.915,26.183C91.247,25.402 90.397,25.011 89.363,25.011C87.817,25.011 86.759,25.735 86.189,27.184C85.888,27.957 85.738,28.97 85.738,30.223C85.738,31.696 86.037,32.817 86.635,33.586C87.233,34.355 88.037,34.74 89.046,34.74C90.625,34.74 91.735,34.028 92.378,32.604C92.736,31.798 92.915,30.858 92.915,29.784Z" style="fill:white;fill-rule:nonzero;"/>
        <path d="M98.25,18.382L100.447,18.382L100.447,25.072C100.968,24.413 101.436,23.949 101.851,23.68C102.559,23.216 103.442,22.985 104.5,22.985C106.396,22.985 107.682,23.648 108.357,24.974C108.724,25.699 108.907,26.704 108.907,27.989L108.907,36.376L106.648,36.376L106.648,28.136C106.648,27.176 106.526,26.472 106.282,26.024C105.883,25.308 105.135,24.95 104.036,24.95C103.125,24.95 102.299,25.263 101.558,25.89C100.818,26.516 100.447,27.7 100.447,29.442L100.447,36.376L98.25,36.376L98.25,18.382Z" style="fill:white;fill-rule:nonzero;"/>
        <path d="M112.593,19.652L114.815,19.652L114.815,23.302L116.902,23.302L116.902,25.096L114.815,25.096L114.815,33.629C114.815,34.085 114.97,34.39 115.279,34.545C115.45,34.634 115.735,34.679 116.133,34.679C116.239,34.679 116.353,34.677 116.475,34.673C116.597,34.669 116.74,34.659 116.902,34.642L116.902,36.376C116.65,36.449 116.388,36.502 116.115,36.534C115.842,36.567 115.547,36.583 115.23,36.583C114.205,36.583 113.509,36.321 113.143,35.796C112.776,35.271 112.593,34.589 112.593,33.751L112.593,25.096L110.823,25.096L110.823,23.302L112.593,23.302L112.593,19.652Z" style="fill:white;fill-rule:nonzero;"/>
        <path d="M126.045,23.363L128.279,23.363L128.279,36.376L126.045,36.376L126.045,23.363ZM126.045,18.443L128.279,18.443L128.279,20.934L126.045,20.934L126.045,18.443Z" style="fill:white;fill-rule:nonzero;"/>
        <path d="M131.6,23.302L133.687,23.302L133.687,25.157C134.305,24.392 134.961,23.843 135.652,23.509C136.344,23.176 137.113,23.009 137.959,23.009C139.815,23.009 141.068,23.656 141.719,24.95C142.077,25.658 142.256,26.671 142.256,27.989L142.256,36.376L140.022,36.376L140.022,28.136C140.022,27.338 139.904,26.695 139.668,26.207C139.278,25.393 138.57,24.986 137.544,24.986C137.024,24.986 136.596,25.039 136.263,25.145C135.66,25.324 135.131,25.682 134.676,26.219C134.31,26.651 134.071,27.096 133.962,27.556C133.852,28.016 133.797,28.673 133.797,29.527L133.797,36.376L131.6,36.376L131.6,23.302Z" style="fill:white;fill-rule:nonzero;"/>
        <path d="M145.943,19.652L148.165,19.652L148.165,23.302L150.252,23.302L150.252,25.096L148.165,25.096L148.165,33.629C148.165,34.085 148.319,34.39 148.628,34.545C148.799,34.634 149.084,34.679 149.483,34.679C149.589,34.679 149.703,34.677 149.825,34.673C149.947,34.669 150.089,34.659 150.252,34.642L150.252,36.376C150,36.449 149.737,36.502 149.465,36.534C149.192,36.567 148.897,36.583 148.58,36.583C147.554,36.583 146.858,36.321 146.492,35.796C146.126,35.271 145.943,34.589 145.943,33.751L145.943,25.096L144.173,25.096L144.173,23.302L145.943,23.302L145.943,19.652Z" style="fill:white;fill-rule:nonzero;"/>
        <path d="M157.894,23.009C158.821,23.009 159.721,23.227 160.591,23.662C161.462,24.097 162.125,24.661 162.581,25.353C163.02,26.012 163.313,26.781 163.46,27.66C163.59,28.262 163.655,29.222 163.655,30.541L154.073,30.541C154.113,31.867 154.427,32.931 155.013,33.733C155.599,34.534 156.506,34.935 157.735,34.935C158.882,34.935 159.798,34.557 160.481,33.8C160.872,33.36 161.149,32.852 161.311,32.274L163.472,32.274C163.415,32.754 163.226,33.289 162.905,33.879C162.583,34.469 162.223,34.951 161.824,35.326C161.157,35.977 160.331,36.416 159.346,36.644C158.817,36.774 158.219,36.839 157.552,36.839C155.924,36.839 154.545,36.247 153.414,35.063C152.282,33.879 151.717,32.221 151.717,30.089C151.717,27.989 152.286,26.284 153.426,24.974C154.565,23.664 156.054,23.009 157.894,23.009ZM161.397,28.795C161.307,27.843 161.1,27.082 160.774,26.512C160.172,25.454 159.167,24.925 157.759,24.925C156.75,24.925 155.904,25.29 155.22,26.018C154.537,26.746 154.174,27.672 154.134,28.795L161.397,28.795Z" style="fill:white;fill-rule:nonzero;"/>
        <path d="M166.353,23.302L168.44,23.302L168.44,25.157C169.059,24.392 169.714,23.843 170.406,23.509C171.097,23.176 171.867,23.009 172.713,23.009C174.568,23.009 175.822,23.656 176.473,24.95C176.831,25.658 177.01,26.671 177.01,27.989L177.01,36.376L174.776,36.376L174.776,28.136C174.776,27.338 174.658,26.695 174.422,26.207C174.031,25.393 173.323,24.986 172.298,24.986C171.777,24.986 171.35,25.039 171.016,25.145C170.414,25.324 169.885,25.682 169.429,26.219C169.063,26.651 168.825,27.096 168.715,27.556C168.605,28.016 168.55,28.673 168.55,29.527L168.55,36.376L166.353,36.376L166.353,23.302Z" style="fill:white;fill-rule:nonzero;"/>
        <path d="M181.563,32.274C181.628,33.006 181.811,33.568 182.112,33.959C182.666,34.667 183.626,35.021 184.993,35.021C185.807,35.021 186.523,34.844 187.142,34.49C187.76,34.136 188.069,33.588 188.069,32.848C188.069,32.286 187.821,31.859 187.325,31.566C187.007,31.387 186.381,31.18 185.445,30.943L183.699,30.504C182.584,30.227 181.762,29.918 181.233,29.576C180.289,28.982 179.817,28.16 179.817,27.11C179.817,25.874 180.263,24.873 181.154,24.108C182.045,23.343 183.243,22.96 184.749,22.96C186.718,22.96 188.138,23.538 189.009,24.693C189.554,25.426 189.819,26.215 189.803,27.062L187.728,27.062C187.687,26.565 187.512,26.114 187.203,25.707C186.698,25.129 185.823,24.84 184.578,24.84C183.748,24.84 183.119,24.999 182.692,25.316C182.265,25.633 182.051,26.053 182.051,26.573C182.051,27.143 182.332,27.599 182.894,27.941C183.219,28.144 183.699,28.323 184.334,28.478L185.787,28.832C187.365,29.214 188.423,29.584 188.96,29.943C189.815,30.504 190.242,31.387 190.242,32.591C190.242,33.755 189.801,34.76 188.918,35.607C188.035,36.453 186.69,36.876 184.883,36.876C182.938,36.876 181.561,36.435 180.751,35.552C179.941,34.669 179.508,33.576 179.451,32.274L181.563,32.274Z" style="fill:white;fill-rule:nonzero;"/>
        <path d="M192.757,23.363L194.991,23.363L194.991,36.376L192.757,36.376L192.757,23.363ZM192.757,18.443L194.991,18.443L194.991,20.934L192.757,20.934L192.757,18.443Z" style="fill:white;fill-rule:nonzero;"/>
        <path d="M198.75,19.652L200.972,19.652L200.972,23.302L203.06,23.302L203.06,25.096L200.972,25.096L200.972,33.629C200.972,34.085 201.127,34.39 201.436,34.545C201.607,34.634 201.892,34.679 202.29,34.679C202.396,34.679 202.51,34.677 202.632,34.673C202.754,34.669 202.897,34.659 203.06,34.642L203.06,36.376C202.807,36.449 202.545,36.502 202.272,36.534C202,36.567 201.705,36.583 201.387,36.583C200.362,36.583 199.666,36.321 199.3,35.796C198.934,35.271 198.75,34.589 198.75,33.751L198.75,25.096L196.98,25.096L196.98,23.302L198.75,23.302L198.75,19.652Z" style="fill:white;fill-rule:nonzero;"/>
        <path d="M213.423,23.302L215.853,23.302C215.543,24.14 214.856,26.053 213.79,29.039C212.992,31.285 212.325,33.116 211.788,34.532C210.518,37.869 209.623,39.903 209.102,40.636C208.581,41.368 207.686,41.735 206.416,41.735C206.107,41.735 205.869,41.722 205.702,41.698C205.536,41.673 205.33,41.629 205.086,41.564L205.086,39.562C205.468,39.667 205.745,39.733 205.916,39.757C206.087,39.781 206.237,39.794 206.368,39.794C206.775,39.794 207.074,39.726 207.265,39.592C207.456,39.458 207.617,39.293 207.747,39.098C207.788,39.033 207.934,38.699 208.186,38.097C208.439,37.495 208.622,37.047 208.736,36.754L203.902,23.302L206.392,23.302L209.895,33.946L213.423,23.302Z" style="fill:white;fill-rule:nonzero;"/>
    </g>
</svg>
