<?xml version="1.0" encoding="UTF-8" standalone="no"?>
<!DOCTYPE svg PUBLIC "-//W3C//DTD SVG 1.1//EN" "http://www.w3.org/Graphics/SVG/1.1/DTD/svg11.dtd">
<svg width="100%" height="100%" viewBox="0 0 464 391" version="1.1" xmlns="http://www.w3.org/2000/svg" xmlns:xlink="http://www.w3.org/1999/xlink" xml:space="preserve" xmlns:serif="http://www.serif.com/" style="fill-rule:evenodd;clip-rule:evenodd;stroke-linecap:square;stroke-linejoin:round;stroke-miterlimit:1.5;">
    <g>
        <rect x="0" y="0" width="463.34" height="390.705" style="fill:rgb(0,157,166);"/>
        <ellipse cx="234.152" cy="185.625" rx="71.403" ry="71.253" style="fill:rgb(38,35,62);stroke:white;stroke-width:3.96px;"/>
        <ellipse cx="234.152" cy="87.862" rx="9.171" ry="9.222" style="fill:rgb(38,35,62);stroke:white;stroke-width:3.96px;"/>
        <ellipse cx="234.152" cy="282.016" rx="9.171" ry="9.222" style="fill:rgb(38,35,62);stroke:white;stroke-width:3.96px;"/>
        <path d="M127.853,185.625C127.853,180.563 131.985,176.454 137.075,176.454C142.165,176.454 146.297,180.563 146.297,185.625C146.297,190.687 142.165,194.796 137.075,194.796C131.985,194.796 127.853,190.687 127.853,185.625Z" style="fill:rgb(38,35,62);stroke:white;stroke-width:3.96px;"/>
        <path d="M322.007,185.625C322.007,180.563 326.139,176.454 331.229,176.454C336.319,176.454 340.451,180.563 340.451,185.625C340.451,190.687 336.319,194.796 331.229,194.796C326.139,194.796 322.007,190.687 322.007,185.625Z" style="fill:rgb(38,35,62);stroke:white;stroke-width:3.96px;"/>
        <path d="M158.987,103.874C162.566,100.295 168.394,100.311 171.993,103.91C175.592,107.509 175.608,113.337 172.029,116.916C168.45,120.496 162.622,120.479 159.023,116.88C155.424,113.281 155.408,107.454 158.987,103.874Z" style="fill:rgb(38,35,62);stroke:white;stroke-width:3.96px;"/>
        <path d="M296.275,241.162C299.854,237.583 305.682,237.599 309.281,241.198C312.88,244.797 312.896,250.625 309.317,254.204C305.738,257.783 299.91,257.767 296.311,254.168C292.712,250.569 292.696,244.741 296.275,241.162Z" style="fill:rgb(38,35,62);stroke:white;stroke-width:3.96px;"/>
        <path d="M309.317,103.874C305.738,100.295 299.91,100.311 296.311,103.91C292.712,107.509 292.696,113.337 296.275,116.916C299.854,120.496 305.682,120.479 309.281,116.88C312.88,113.281 312.896,107.454 309.317,103.874Z" style="fill:rgb(38,35,62);stroke:white;stroke-width:3.96px;"/>
        <path d="M172.029,241.162C168.45,237.583 162.622,237.599 159.023,241.198C155.424,244.797 155.408,250.625 158.987,254.204C162.566,257.783 168.394,257.767 171.993,254.168C175.592,250.569 175.608,244.741 172.029,241.162Z" style="fill:rgb(38,35,62);stroke:white;stroke-width:3.96px;"/>
        <path d="M249.184,232.228C249.184,225.543 243.756,220.116 237.071,220.116L231.233,220.116C224.548,220.116 219.12,225.543 219.12,232.228C219.12,238.913 224.548,244.341 231.233,244.341L237.071,244.341C243.756,244.341 249.184,238.913 249.184,232.228Z" style="fill:rgb(38,35,62);stroke:white;stroke-width:3.96px;"/>
        <path d="M249.184,217.081C249.184,216.206 248.473,215.496 247.599,215.496L220.705,215.496C219.83,215.496 219.12,216.206 219.12,217.081L219.12,231.207C219.12,232.081 219.83,232.791 220.705,232.791C229.395,234.464 238.338,234.593 247.599,232.791C248.473,232.791 249.184,232.081 249.184,231.207L249.184,217.081Z" style="fill:rgb(38,35,62);stroke:white;stroke-width:3.33px;"/>
        <path d="M249.184,210.048C249.184,209.173 248.473,208.463 247.599,208.463L220.705,208.463C219.83,208.463 219.12,209.173 219.12,210.048L219.12,224.174C219.12,225.048 219.83,225.758 220.705,225.758C229.395,227.431 238.338,227.56 247.599,225.758C248.473,225.758 249.184,225.048 249.184,224.174L249.184,210.048Z" style="fill:rgb(38,35,62);stroke:white;stroke-width:3.13px;"/>
        <ellipse cx="234.152" cy="176.454" rx="43.927" ry="43.662" style="fill:rgb(214,225,0);stroke:white;stroke-width:3.96px;"/>
        <path d="M19.251,32.347C19.316,33.079 19.499,33.641 19.8,34.032C20.354,34.74 21.314,35.094 22.681,35.094C23.495,35.094 24.211,34.917 24.83,34.563C25.448,34.209 25.757,33.661 25.757,32.921C25.757,32.359 25.509,31.932 25.013,31.639C24.695,31.46 24.069,31.253 23.133,31.017L21.387,30.577C20.272,30.3 19.45,29.991 18.921,29.649C17.977,29.055 17.505,28.233 17.505,27.184C17.505,25.947 17.951,24.946 18.842,24.181C19.733,23.416 20.931,23.033 22.437,23.033C24.406,23.033 25.826,23.611 26.697,24.767C27.242,25.499 27.507,26.288 27.491,27.135L25.415,27.135C25.375,26.638 25.2,26.187 24.891,25.78C24.386,25.202 23.511,24.913 22.266,24.913C21.436,24.913 20.807,25.072 20.38,25.389C19.953,25.706 19.739,26.126 19.739,26.646C19.739,27.216 20.02,27.672 20.581,28.014C20.907,28.217 21.387,28.396 22.022,28.551L23.475,28.905C25.053,29.287 26.111,29.657 26.648,30.016C27.503,30.577 27.93,31.46 27.93,32.664C27.93,33.828 27.489,34.833 26.606,35.68C25.723,36.526 24.378,36.949 22.571,36.949C20.626,36.949 19.249,36.508 18.439,35.625C17.629,34.742 17.196,33.649 17.139,32.347L19.251,32.347Z" style="fill:white;fill-rule:nonzero;"/>
        <path d="M30.445,23.436L32.679,23.436L32.679,36.449L30.445,36.449L30.445,23.436ZM30.445,18.517L32.679,18.517L32.679,21.007L30.445,21.007L30.445,18.517Z" style="fill:white;fill-rule:nonzero;"/>
        <path d="M37.391,30.064C37.391,31.464 37.688,32.636 38.282,33.58C38.876,34.524 39.828,34.996 41.138,34.996C42.155,34.996 42.992,34.559 43.647,33.684C44.302,32.809 44.629,31.554 44.629,29.918C44.629,28.266 44.292,27.043 43.616,26.25C42.941,25.456 42.107,25.059 41.114,25.059C40.007,25.059 39.11,25.483 38.422,26.329C37.734,27.175 37.391,28.42 37.391,30.064ZM40.699,23.143C41.7,23.143 42.538,23.355 43.213,23.778C43.604,24.022 44.047,24.449 44.544,25.059L44.544,18.455L46.656,18.455L46.656,36.449L44.678,36.449L44.678,34.63C44.165,35.435 43.559,36.017 42.859,36.375C42.159,36.733 41.358,36.913 40.455,36.913C38.998,36.913 37.736,36.3 36.67,35.075C35.604,33.851 35.071,32.221 35.071,30.186C35.071,28.282 35.557,26.632 36.53,25.236C37.502,23.841 38.892,23.143 40.699,23.143Z" style="fill:white;fill-rule:nonzero;"/>
        <path d="M55.347,23.082C56.275,23.082 57.174,23.3 58.045,23.735C58.916,24.17 59.579,24.734 60.035,25.426C60.474,26.085 60.767,26.854 60.913,27.733C61.044,28.335 61.109,29.295 61.109,30.614L51.526,30.614C51.567,31.94 51.88,33.004 52.466,33.806C53.052,34.607 53.96,35.008 55.188,35.008C56.336,35.008 57.251,34.63 57.935,33.873C58.326,33.434 58.602,32.925 58.765,32.347L60.926,32.347C60.869,32.827 60.68,33.362 60.358,33.952C60.037,34.542 59.677,35.024 59.278,35.399C58.61,36.05 57.784,36.489 56.8,36.717C56.271,36.847 55.673,36.913 55.005,36.913C53.378,36.913 51.998,36.32 50.867,35.136C49.736,33.952 49.17,32.294 49.17,30.162C49.17,28.062 49.74,26.357 50.879,25.047C52.019,23.737 53.508,23.082 55.347,23.082ZM58.851,28.868C58.761,27.916 58.553,27.155 58.228,26.585C57.626,25.527 56.621,24.998 55.213,24.998C54.204,24.998 53.357,25.363 52.674,26.091C51.99,26.819 51.628,27.745 51.587,28.868L58.851,28.868Z" style="fill:white;fill-rule:nonzero;"/>
        <rect x="70.813" y="18.517" width="2.197" height="17.932" style="fill:white;fill-rule:nonzero;"/>
        <path d="M76.307,23.436L78.54,23.436L78.54,36.449L76.307,36.449L76.307,23.436ZM76.307,18.517L78.54,18.517L78.54,21.007L76.307,21.007L76.307,18.517Z" style="fill:white;fill-rule:nonzero;"/>
        <path d="M86.475,23.143C87.5,23.143 88.396,23.395 89.161,23.9C89.576,24.185 89.999,24.6 90.43,25.145L90.43,23.497L92.456,23.497L92.456,35.387C92.456,37.047 92.212,38.357 91.724,39.317C90.813,41.091 89.091,41.978 86.56,41.978C85.153,41.978 83.969,41.663 83.008,41.032C82.048,40.402 81.511,39.415 81.397,38.072L83.631,38.072C83.737,38.658 83.948,39.11 84.266,39.427C84.762,39.915 85.543,40.16 86.609,40.16C88.294,40.16 89.397,39.566 89.917,38.377C90.227,37.677 90.369,36.428 90.345,34.63C89.905,35.297 89.376,35.794 88.758,36.119C88.139,36.445 87.321,36.607 86.304,36.607C84.888,36.607 83.649,36.105 82.587,35.1C81.525,34.095 80.994,32.433 80.994,30.113C80.994,27.924 81.529,26.215 82.599,24.986C83.669,23.757 84.961,23.143 86.475,23.143ZM90.43,29.857C90.43,28.237 90.096,27.037 89.429,26.256C88.762,25.475 87.911,25.084 86.878,25.084C85.332,25.084 84.274,25.808 83.704,27.257C83.403,28.03 83.252,29.043 83.252,30.296C83.252,31.769 83.551,32.89 84.15,33.659C84.748,34.428 85.551,34.813 86.56,34.813C88.139,34.813 89.25,34.101 89.893,32.677C90.251,31.871 90.43,30.931 90.43,29.857Z" style="fill:white;fill-rule:nonzero;"/>
        <path d="M95.765,18.455L97.962,18.455L97.962,25.145C98.483,24.486 98.951,24.022 99.366,23.753C100.074,23.289 100.957,23.058 102.015,23.058C103.911,23.058 105.197,23.721 105.872,25.047C106.238,25.772 106.421,26.777 106.421,28.062L106.421,36.449L104.163,36.449L104.163,28.209C104.163,27.249 104.041,26.545 103.797,26.097C103.398,25.381 102.649,25.023 101.551,25.023C100.639,25.023 99.813,25.336 99.073,25.963C98.332,26.589 97.962,27.774 97.962,29.515L97.962,36.449L95.765,36.449L95.765,18.455Z" style="fill:white;fill-rule:nonzero;"/>
        <path d="M110.108,19.725L112.33,19.725L112.33,23.375L114.417,23.375L114.417,25.169L112.33,25.169L112.33,33.702C112.33,34.158 112.484,34.463 112.793,34.618C112.964,34.707 113.249,34.752 113.648,34.752C113.754,34.752 113.868,34.75 113.99,34.746C114.112,34.742 114.254,34.732 114.417,34.715L114.417,36.449C114.165,36.522 113.902,36.575 113.63,36.607C113.357,36.64 113.062,36.656 112.745,36.656C111.719,36.656 111.023,36.394 110.657,35.869C110.291,35.344 110.108,34.662 110.108,33.824L110.108,25.169L108.338,25.169L108.338,23.375L110.108,23.375L110.108,19.725Z" style="fill:white;fill-rule:nonzero;"/>
        <path d="M123.56,23.436L125.794,23.436L125.794,36.449L123.56,36.449L123.56,23.436ZM123.56,18.517L125.794,18.517L125.794,21.007L123.56,21.007L123.56,18.517Z" style="fill:white;fill-rule:nonzero;"/>
        <path d="M129.114,23.375L131.202,23.375L131.202,25.23C131.82,24.465 132.475,23.916 133.167,23.582C133.859,23.249 134.628,23.082 135.474,23.082C137.33,23.082 138.583,23.729 139.234,25.023C139.592,25.731 139.771,26.744 139.771,28.062L139.771,36.449L137.537,36.449L137.537,28.209C137.537,27.411 137.419,26.768 137.183,26.28C136.792,25.466 136.084,25.059 135.059,25.059C134.538,25.059 134.111,25.112 133.777,25.218C133.175,25.397 132.646,25.755 132.19,26.292C131.824,26.724 131.586,27.169 131.476,27.629C131.366,28.089 131.311,28.746 131.311,29.6L131.311,36.449L129.114,36.449L129.114,23.375Z" style="fill:white;fill-rule:nonzero;"/>
        <path d="M143.457,19.725L145.679,19.725L145.679,23.375L147.767,23.375L147.767,25.169L145.679,25.169L145.679,33.702C145.679,34.158 145.834,34.463 146.143,34.618C146.314,34.707 146.599,34.752 146.997,34.752C147.103,34.752 147.217,34.75 147.339,34.746C147.461,34.742 147.604,34.732 147.767,34.715L147.767,36.449C147.514,36.522 147.252,36.575 146.979,36.607C146.707,36.64 146.412,36.656 146.094,36.656C145.069,36.656 144.373,36.394 144.007,35.869C143.641,35.344 143.457,34.662 143.457,33.824L143.457,25.169L141.687,25.169L141.687,23.375L143.457,23.375L143.457,19.725Z" style="fill:white;fill-rule:nonzero;"/>
        <path d="M155.408,23.082C156.336,23.082 157.235,23.3 158.106,23.735C158.977,24.17 159.64,24.734 160.096,25.426C160.535,26.085 160.828,26.854 160.975,27.733C161.105,28.335 161.17,29.295 161.17,30.614L151.587,30.614C151.628,31.94 151.941,33.004 152.527,33.806C153.113,34.607 154.021,35.008 155.249,35.008C156.397,35.008 157.312,34.63 157.996,33.873C158.387,33.434 158.663,32.925 158.826,32.347L160.987,32.347C160.93,32.827 160.741,33.362 160.419,33.952C160.098,34.542 159.738,35.024 159.339,35.399C158.671,36.05 157.845,36.489 156.861,36.717C156.332,36.847 155.734,36.913 155.066,36.913C153.439,36.913 152.059,36.32 150.928,35.136C149.797,33.952 149.231,32.294 149.231,30.162C149.231,28.062 149.801,26.357 150.94,25.047C152.08,23.737 153.569,23.082 155.408,23.082ZM158.912,28.868C158.822,27.916 158.615,27.155 158.289,26.585C157.687,25.527 156.682,24.998 155.274,24.998C154.265,24.998 153.418,25.363 152.735,26.091C152.051,26.819 151.689,27.745 151.648,28.868L158.912,28.868Z" style="fill:white;fill-rule:nonzero;"/>
        <path d="M163.868,23.375L165.955,23.375L165.955,25.23C166.573,24.465 167.229,23.916 167.92,23.582C168.612,23.249 169.381,23.082 170.227,23.082C172.083,23.082 173.336,23.729 173.987,25.023C174.345,25.731 174.524,26.744 174.524,28.062L174.524,36.449L172.29,36.449L172.29,28.209C172.29,27.411 172.172,26.768 171.936,26.28C171.546,25.466 170.838,25.059 169.812,25.059C169.292,25.059 168.864,25.112 168.531,25.218C167.928,25.397 167.4,25.755 166.944,26.292C166.578,26.724 166.34,27.169 166.23,27.629C166.12,28.089 166.065,28.746 166.065,29.6L166.065,36.449L163.868,36.449L163.868,23.375Z" style="fill:white;fill-rule:nonzero;"/>
        <path d="M179.078,32.347C179.143,33.079 179.326,33.641 179.627,34.032C180.18,34.74 181.141,35.094 182.508,35.094C183.322,35.094 184.038,34.917 184.656,34.563C185.275,34.209 185.584,33.661 185.584,32.921C185.584,32.359 185.336,31.932 184.839,31.639C184.522,31.46 183.895,31.253 182.959,31.017L181.214,30.577C180.099,30.3 179.277,29.991 178.748,29.649C177.804,29.055 177.332,28.233 177.332,27.184C177.332,25.947 177.778,24.946 178.669,24.181C179.56,23.416 180.758,23.033 182.264,23.033C184.233,23.033 185.653,23.611 186.524,24.767C187.069,25.499 187.334,26.288 187.317,27.135L185.242,27.135C185.201,26.638 185.026,26.187 184.717,25.78C184.213,25.202 183.338,24.913 182.093,24.913C181.263,24.913 180.634,25.072 180.207,25.389C179.779,25.706 179.566,26.126 179.566,26.646C179.566,27.216 179.847,27.672 180.408,28.014C180.734,28.217 181.214,28.396 181.849,28.551L183.301,28.905C184.88,29.287 185.938,29.657 186.475,30.016C187.33,30.577 187.757,31.46 187.757,32.664C187.757,33.828 187.315,34.833 186.432,35.68C185.549,36.526 184.205,36.949 182.398,36.949C180.453,36.949 179.076,36.508 178.266,35.625C177.456,34.742 177.023,33.649 176.966,32.347L179.078,32.347Z" style="fill:white;fill-rule:nonzero;"/>
        <path d="M190.271,23.436L192.505,23.436L192.505,36.449L190.271,36.449L190.271,23.436ZM190.271,18.517L192.505,18.517L192.505,21.007L190.271,21.007L190.271,18.517Z" style="fill:white;fill-rule:nonzero;"/>
        <path d="M196.265,19.725L198.487,19.725L198.487,23.375L200.574,23.375L200.574,25.169L198.487,25.169L198.487,33.702C198.487,34.158 198.641,34.463 198.951,34.618C199.122,34.707 199.406,34.752 199.805,34.752C199.911,34.752 200.025,34.75 200.147,34.746C200.269,34.742 200.411,34.732 200.574,34.715L200.574,36.449C200.322,36.522 200.059,36.575 199.787,36.607C199.514,36.64 199.219,36.656 198.902,36.656C197.876,36.656 197.181,36.394 196.814,35.869C196.448,35.344 196.265,34.662 196.265,33.824L196.265,25.169L194.495,25.169L194.495,23.375L196.265,23.375L196.265,19.725Z" style="fill:white;fill-rule:nonzero;"/>
        <path d="M210.938,23.375L213.367,23.375C213.058,24.213 212.37,26.126 211.304,29.112C210.507,31.358 209.839,33.189 209.302,34.605C208.033,37.942 207.137,39.976 206.617,40.709C206.096,41.441 205.201,41.808 203.931,41.808C203.622,41.808 203.384,41.795 203.217,41.771C203.05,41.746 202.845,41.702 202.601,41.637L202.601,39.635C202.983,39.74 203.26,39.806 203.431,39.83C203.601,39.854 203.752,39.867 203.882,39.867C204.289,39.867 204.588,39.799 204.779,39.665C204.971,39.531 205.131,39.366 205.262,39.171C205.302,39.106 205.449,38.772 205.701,38.17C205.953,37.568 206.136,37.12 206.25,36.827L201.416,23.375L203.907,23.375L207.41,34.019L210.938,23.375Z" style="fill:white;fill-rule:nonzero;"/>
    </g>
</svg>
